<svg width="108" height="32.12" viewBox="0 0 212 67" xmlns="http://www.w3.org/2000/svg"><g fill="none" fill-rule="evenodd"><path d="M6 0h42.578a6 6 0 016 6v43.176a6 6 0 01-6 6H6a6 6 0 01-6-6V6a6 6 0 016-6z" fill="#FF8F00"/><g fill="#FFF"><path d="M32.506 41.432h-3.575V28.963H15.334v12.469h-3.556V14.457h3.556v11.597h13.597V14.457h3.575zM41.673 41.432h-3.427V21.386h3.427zM37.968 16.068c0-.555.17-1.025.51-1.408.339-.383.842-.574 1.51-.574.666 0 1.172.191 1.518.574.346.383.519.853.519 1.408 0 .556-.173 1.02-.519 1.39-.346.37-.852.556-1.519.556-.667 0-1.17-.186-1.51-.556-.34-.37-.509-.834-.509-1.39z"/></g><g fill="#FFF"><path d="M192.177 16.185V42.08h19.525v-5.22h-14.044V16.185zM69.82 38.114c3.071 2.56 7 3.966 11.114 3.966 5.992 0 9.713-3.071 9.713-8.014v-.077c0-4.072-2.288-6.175-8.444-7.755-4.59-1.16-6.326-1.808-6.326-4.033v-.077c0-1.31 1.055-2.84 4.028-2.84 2.188 0 4.51.824 7.086 2.518l2.659-3.8c-2.757-2.065-6.007-3.111-9.667-3.111-5.525 0-9.237 3.125-9.237 7.778v.078c0 4.835 2.85 6.404 8.838 7.91 4.657 1.177 5.931 2.019 5.931 3.917v.078c0 1.87-1.71 3.033-4.462 3.033-2.855 0-5.475-.999-8.213-3.137l-3.02 3.566zM108.608 20.168c-4.808 0-8.72 3.87-8.72 8.627 0 4.757 3.912 8.627 8.72 8.627 4.809 0 8.722-3.87 8.722-8.627 0-4.757-3.913-8.627-8.722-8.627zm6.473 20.97l-.294.143a14 14 0 01-6.18 1.418c-7.75 0-14.055-6.237-14.055-13.904s6.305-13.904 14.056-13.904c7.75 0 14.057 6.237 14.057 13.904 0 3.194-1.072 6.201-3.101 8.698l-.275.338 5.202 4.823-5.61 2.015-3.8-3.532zM157.466 66.68c-6.439 0-12.473-1.545-17.935-4.591-3.434-1.917-6.657-4.414-9.834-7.621l5.594-2.03c6.607 5.984 13.863 8.893 22.175 8.893 5.804 0 11.735-1.796 16.704-5.058 1.689-1.111 3.28-2.4 4.734-3.833l5.463 1.982a36.243 36.243 0 01-7.293 6.33c-5.907 3.877-12.687 5.928-19.608 5.928M172.365 20.105c-4.309.486-7.541 4.088-7.541 8.38 0 4.65 3.803 8.434 8.478 8.434 3.665 0 6.9-2.328 8.052-5.793.087-.299.225-1.018-.26-1.598a1.288 1.288 0 00-.632-.41c-.279-.091-.5-.122-.666-.094a2.156 2.156 0 00-.417.108 4.739 4.739 0 01-1.291.18c-2.616 0-4.744-2.117-4.744-4.718 0-.738.17-1.449.503-2.114.064-.127.478-1.005.04-1.703-.275-.436-.767-.676-1.386-.676-.053 0-.1.002-.136.004zm-12.73 8.38c0-7.496 6.131-13.594 13.667-13.594 7.537 0 13.668 6.098 13.668 13.594 0 7.496-6.131 13.595-13.668 13.595-7.536 0-13.667-6.1-13.667-13.595zM139.823 20.105c-4.308.486-7.54 4.088-7.54 8.38 0 4.65 3.803 8.434 8.478 8.434 3.665 0 6.9-2.328 8.052-5.793.087-.299.224-1.018-.26-1.598a1.288 1.288 0 00-.633-.41c-.278-.091-.5-.122-.666-.094a2.156 2.156 0 00-.416.108 4.739 4.739 0 01-1.292.18c-2.616 0-4.744-2.117-4.744-4.718 0-.738.17-1.449.504-2.114.063-.127.477-1.005.04-1.703-.275-.436-.767-.676-1.386-.676-.054 0-.1.002-.137.004zm-12.73 8.38c0-7.496 6.132-13.594 13.668-13.594s13.668 6.098 13.668 13.594c0 7.496-6.132 13.595-13.668 13.595s-13.667-6.1-13.667-13.595z"/></g></g></svg>