<svg width="615" height="420" fill="none" xmlns="http://www.w3.org/2000/svg"><g clip-path="url(#clip0)"><path d="M232.756 400.18c0 10.944-51.265 19.82-114.505 19.82-63.24 0-114.506-8.876-114.506-19.82 0-2.737 3.2-5.34 8.99-7.708 16.854-6.904 55.663-11.811 101.278-12.095 1.407-.011 2.82-.016 4.238-.016 63.24 0 114.505 8.876 114.505 19.819z" fill="#3F3D56"/><path opacity=".1" d="M114.013 380.377a65.044 65.044 0 01-20.352 20.775 64.947 64.947 0 01-56.264 6.719 64.986 64.986 0 01-24.663-15.399c16.855-6.904 55.664-11.811 101.279-12.095z" fill="#000"/><path d="M59.928 400.716c33.098 0 59.928-28.778 59.928-64.279 0-35.5-26.83-64.279-59.928-64.279C26.831 272.158 0 300.937 0 336.437c0 35.501 26.83 64.279 59.928 64.279zM133.462 44.64c8.497 32.77 35.908 53.95 61.286 47.356z" fill="#3F3D56"/><path d="M194.748 91.996c-8.593-33.138 7.371-65.908 35.692-73.267zM150.867 43.288c8.071 31.128 27.698 52.913 43.881 48.708z" fill="#FFB4A5"/><path d="M194.748 91.996C183.769 49.653 201.372 8.506 234.106 0z" fill="#3F3D56"/><path d="M185.197 94.924s6.46-1.893 8.059-3.802c1.6-1.909 9.22-5.672 10.289-3.555 1.068 2.117 12.678 8.616 5.343 10.585-7.336 1.97-17.379 3.293-19.647 2.607-2.268-.685-4.044-5.835-4.044-5.835z" fill="#A8A8A8"/><path opacity=".2" d="M208.816 97.338c-7.336 1.97-17.378 3.292-19.646 2.607-1.728-.522-3.168-3.632-3.758-5.086l-.215.065s1.776 5.15 4.044 5.836c2.268.685 12.311-.638 19.647-2.607 2.117-.569 2.654-1.515 2.324-2.624-.12.753-.82 1.385-2.396 1.809z" fill="#000"/><path d="M189.53 68.036h419.269a5.5 5.5 0 015.5 5.5v238.153a5.5 5.5 0 01-5.5 5.5H189.53a5.5 5.5 0 01-5.5-5.5V73.536a5.5 5.5 0 015.5-5.5z" fill="#F2F2F2" stroke="#E8E8E8"/><path opacity=".3" d="M437.72 143.473H213.218a6 6 0 00-6 6v112.005a6 6 0 006 6H437.72a6 6 0 006-6V149.473a6 6 0 00-6-6z" fill="#2A5FEC"/><path d="M556.77 138.067h-94.858v5.253h94.858v-5.253zM599.961 147.765H461.912v5.253h138.049v-5.253zM556.77 171.202h-94.858v5.253h94.858v-5.253zM556.77 209.995h-94.858v5.254h94.858v-5.254zM599.961 180.9H461.912v5.254h138.049V180.9zM599.961 190.599H461.912v5.253h138.049v-5.253zM599.961 200.297H461.912v5.253h138.049v-5.253z" fill="#3F3D56"/><path d="M509.561 233.433h-45.649a2 2 0 00-2 2v9.739a2 2 0 002 2h45.649a2 2 0 002-2v-9.739a2 2 0 00-2-2z" fill="#2A5FEC"/><path d="M168.273 218.503s8.913-25.28 15.35-17.349c6.437 7.931-9.903 21.314-9.903 21.314l-5.447-3.965z" fill="#F4D8D0"/><path d="M126.187 193.718l5.361 1.99s2.561 11.394 1.571 13.377c-.991 1.982-1.486.495 0 4.461 1.485 3.965 5.941 14.375 6.437 15.862.495 1.487 28.718-9.418 28.718-14.871 0 0 5.942 6.94 8.913 8.427 0 0-32.68 23.793-37.136 26.767-4.457 2.974-6.932 1.487-10.894-1.982-3.961-3.47-20.796-32.22-20.796-32.22l17.826-21.811z" fill="#87A6D6"/><path d="M140.545 369.689s-.495 5.452-1.485 5.948c-.99.496-8.418 12.888 0 15.366 8.417 2.479 13.369 1.487 15.349 2.479 1.981.991 36.641 2.974 37.137-2.479.495-5.452-16.835-6.444-16.835-6.444s-15.845-10.409-18.321-15.862c-2.476-5.452-15.845.992-15.845.992zM40.031 379.602s-11.883 20.323-8.913 22.802c2.971 2.478 31.904 11.51 36.146 11.897 5.447.495 9.408-3.966 4.952-6.444-4.457-2.479-13.864-12.888-13.864-16.358v-8.923l-18.32-2.974z" fill="#BAA48F"/><path d="M28.643 246.757s-10.398 12.888 5.941 33.707l27.234 34.699s-16.835 26.767-17.33 40.646c-.496 13.88-3.962 10.905-4.952 16.854-.99 5.948-5.447 2.974-1.98 7.435 3.465 4.461 16.34 8.427 20.3 4.957 3.962-3.47 3.962-7.931 3.962-9.914 0-1.983 6.932-13.383 7.427-16.853.495-3.47 18.815-31.724 18.815-31.724s5.942-16.854-.99-26.272-11.513-22.776-11.513-22.776 20.426 24.759 34.785 30.707c0 0 5.447.991 4.456 3.47-.99 2.478 0 3.965 1.486 6.444 1.485 2.478 11.883 31.228 15.349 38.664 3.466 7.435 1.981 11.896 5.942 14.375 3.961 2.478 21.787.495 21.787-1.983 0-2.479-2.476-8.923-3.962-12.392-1.485-3.47-13.369-43.621-12.378-50.561.99-6.939-.495-16.358-7.923-20.323-7.427-3.966-45.058-36.185-47.039-36.185-1.98 0-59.417-2.975-59.417-2.975z" fill="#2F2E41"/><path d="M128.167 168.934c11.486 0 20.796-9.321 20.796-20.819s-9.31-20.819-20.796-20.819c-11.485 0-20.796 9.321-20.796 20.819s9.311 20.819 20.796 20.819z" fill="#F4D8D0"/><path d="M111.332 150.098s-6.437 11.401-14.359 12.888 20.796 24.288 20.796 24.288 6.932-21.81 12.874-22.801c5.942-.992-19.311-14.375-19.311-14.375z" fill="#F4D8D0"/><path d="M131.633 196.693c0 6.444-19.311 24.784-19.311 24.784l-18.32 15.366s-.496 5.453-2.476 5.949c-1.98.495-4.457.495-2.476 3.47 1.98 2.974 6.932 9.418 2.476 10.409a36.26 36.26 0 01-4.055.387 207.27 207.27 0 01-4.155.193c-3.664.129-8.249.213-13.215.178a263.94 263.94 0 01-4.308-.049c-18.722-.372-40.409-2.528-38.636-9.631 2.97-11.897.99-15.862 7.427-22.306 6.437-6.444 16.835-28.75 16.835-28.75s20.796-35.195 38.126-35.195l3.6-.946a8.235 8.235 0 018.997 3.46c3.476 5.299 8.957 13.259 12.161 15.827 4.951 3.966 5.723 1.12 5.723 1.12s11.607 9.29 11.607 15.734z" fill="#87A6D6"/><path d="M87.565 272.038s14.359 22.306 5.447 26.272c-8.913 3.965-13.865-23.298-13.865-23.298l8.418-2.974z" fill="#F4D8D0"/><path d="M114.572 145.764c.798-.101 1.05-1.109 1.185-1.903.719-4.253 3.885-8.285 8.138-8.971a11.505 11.505 0 014.848.391 18.403 18.403 0 016.222 3.065c.982.744 1.927 1.607 3.109 1.955.78.229 4.093 1.704 4.867 1.953 1.702.549 3.111 2.333 4.864 1.979 1.677-.337 2.314-2.365 2.584-4.056.614-3.853-1.589-9.602-3.779-12.829-1.663-2.449-4.475-3.859-7.287-4.776a52.337 52.337 0 00-10.107-2.01c-4.625-.547-9.416-.837-13.849.594-4.433 1.432-8.469 4.933-9.297 9.522-.172.956-.205 1.935-.416 2.883-.515 2.313-2.044 4.257-2.936 6.452a12.442 12.442 0 00.379 10.071c1.235 2.486 3.382 4.875 2.919 7.612l3.82-3.017a2.778 2.778 0 001.276-3.251l-.556-4.79c-.101-.877-.19-1.823.248-2.59 1.699-2.969 2.437 1.884 3.768 1.716z" fill="#2F2E41"/><path opacity=".1" d="M78.652 237.835l4.664 19.416c-4.704.169-10.928.258-17.523.129-1.664-4.996-3.253-10.206-4.471-15.084-4.457-17.844 2.97-45.107 6.932-57.995 3.96-12.888 13.864-16.358 13.864-16.358s4.951 1.487 11.388 5.948-14.854 63.944-14.854 63.944z" fill="#000"/><path opacity=".1" d="M82.614 236.843l4.857 20.215a207.27 207.27 0 01-4.154.193c-3.664.129-8.25.213-13.216.179-1.787-5.309-3.515-10.911-4.817-16.125-4.457-17.845 2.97-45.108 6.932-57.996 3.96-12.888 12.626 1.239 12.626 1.239s-3.466-8.427 2.97-3.965c6.438 4.461-5.198 56.26-5.198 56.26z" fill="#000"/><path d="M84.1 166.951s-9.904 3.47-13.865 16.358c-3.961 12.888-11.388 40.151-6.932 57.996 4.456 17.844 13.864 40.151 13.864 40.151s9.408-6.94 12.874-5.453l-9.408-39.16s21.292-59.482 14.855-63.944c-6.437-4.461-11.389-5.948-11.389-5.948z" fill="#87A6D6"/><path d="M427.553 130.617H203.051a6 6 0 00-6 6v112.005a6 6 0 006 6h224.502a6 6 0 006-6V136.617a6 6 0 00-6-6z" fill="#3F3D56"/><path d="M319.702 221.887c14.781 0 26.763-12.017 26.763-26.841 0-14.823-11.982-26.841-26.763-26.841-14.78 0-26.763 12.018-26.763 26.841 0 14.824 11.983 26.841 26.763 26.841z" fill="#fff"/><path d="M319.702 163.632a31.964 31.964 0 00-17.77 5.396 32.002 32.002 0 00-11.78 14.37 32.038 32.038 0 006.933 34.895 31.953 31.953 0 0034.857 6.941 31.985 31.985 0 0014.354-11.793 32.041 32.041 0 005.391-17.789 32.131 32.131 0 00-9.396-22.614 32.056 32.056 0 00-22.589-9.406zm-6.566 49.092l-16.393-16.41 4.598-4.603 11.81 11.823 24.927-24.955 4.598 4.603-29.54 29.542z" fill="#7BC67E"/></g><defs><clipPath id="clip0"><path fill="#fff" d="M0 0h614.799v420H0z"/></clipPath></defs></svg>