<?xml version="1.0" encoding="UTF-8"?>
<svg width="270px" height="176px" viewBox="0 0 270 176" version="1.1" xmlns="http://www.w3.org/2000/svg" xmlns:xlink="http://www.w3.org/1999/xlink">
    <!-- Generator: Sketch 64 (93537) - https://sketch.com -->
    <title>undraw_authentication_fsn5</title>
    <desc>Created with Sketch.</desc>
    <g id="Onboarding" stroke="none" stroke-width="1" fill="none" fill-rule="evenodd">
        <g id="009-onboarding-idf---student---tablet" transform="translate(-521.000000, -134.000000)" fill-rule="nonzero">
            <g id="modal" transform="translate(256.000000, 78.000000)">
                <g id="undraw_authentication_fsn5" transform="translate(265.000000, 56.000000)">
                    <path d="M152.719241,25.4733311 C135.412663,25.4965698 118.754358,20.5722864 102.820731,15.1018932 C86.8871027,9.63150004 71.0761837,3.50577513 54.0914272,0.910010826 C43.1680247,-0.75852881 30.7466481,-0.6051533 22.2079647,5.45317933 C13.9887872,11.2814487 11.6086987,20.9278387 10.4603291,29.8398854 C9.59673667,36.5442543 9.19851174,43.5809367 12.4329317,49.7136332 C14.6787351,53.9709656 18.5220688,57.4800113 21.2309244,61.5374907 C30.6864513,75.6526854 25.0001697,93.6836032 15.8108978,108.126464 C11.5021967,114.902873 6.45492717,121.398093 3.1973546,128.562588 C-0.0602179656,135.727084 -1.3961237,143.851338 1.92627618,150.922879 C5.21857766,157.931675 12.6551968,163.018629 20.6359023,166.492817 C36.842731,173.562033 55.7121101,175.077198 74.074447,175.660489 C114.721173,176.954886 155.446619,174.314968 196.063247,171.67505 C211.093922,170.699024 226.191741,169.716026 240.912172,166.887875 C249.085044,165.319262 257.501019,162.990743 263.296118,157.887521 C270.651703,151.408568 272.156622,140.830305 266.803738,133.226598 C257.827471,120.473192 234.158555,118.067985 227.722129,104.268837 C224.172833,96.6721018 227.233609,87.9599081 231.741422,80.6373894 C241.409953,64.9256952 258.052051,50.8523302 258.332198,33.279215 C258.524364,21.211351 249.869918,9.43861872 236.943814,4.19364106 C223.394905,-1.29999084 204.921436,0.11292295 195.428865,10.3519002 C185.667724,20.8999523 167.999965,25.457064 152.719241,25.4733311 Z" id="Path" fill="#FF8F00" opacity="0.1"></path>
                    <path d="M230,150.019311 C230,150.019311 226.986514,148.145803 224,149.478743 C224,149.478743 224.919493,151.14665 228.70045,150.989562 L230,150.019311 Z" id="Path" fill="#FF8F00"></path>
                    <path d="M229.834255,150 C229.834255,150 230.676332,153.570414 228.564386,156 C228.564386,156 227.294517,154.528207 228.564386,150.922691 L229.834255,150 Z" id="Path" fill="#FF8F00"></path>
                    <path d="M233,146.911557 C233,146.911557 232.806795,144.312784 227,145.175465 C227,145.175465 226.972418,146.85147 229.010628,147.64548 C231.048839,148.43949 231.983018,147.769946 233,146.911557 Z" id="Path" fill="#FF8F00"></path>
                    <path d="M233.775654,147 C233.775654,147 236.335426,147.884537 234.052446,154 C234.052446,154 232.362908,153.594687 232.059544,151.160422 C231.75618,148.726158 232.6552,147.886921 233.775654,147 Z" id="Path" fill="#FF8F00"></path>
                    <path d="M237.996366,142.950784 C237.996366,142.950784 238.352664,138.585256 232.009638,139.032104 C232.009638,139.032104 231.555754,142.974879 236.877542,144 L237.996366,142.950784 Z" id="Path" fill="#FF8F00"></path>
                    <path d="M242,137.804031 C242,137.804031 241.035568,132.782297 234,134.27837 C234,134.27837 233.97482,138.619869 240.851747,139 L242,137.804031 Z" id="Path" fill="#FF8F00"></path>
                    <path d="M245,132.019018 C245,132.019018 243.493842,126.708068 237,128.296525 C237,128.296525 238.546041,133.073966 244.568328,132.99913 L245,132.019018 Z" id="Path" fill="#FF8F00"></path>
                    <path d="M248,127.065748 C248,127.065748 246.48,121.692687 240,123.300133 C240,123.300133 242.162424,128.404895 247.570909,127.974203 L248,127.065748 Z" id="Path" fill="#FF8F00"></path>
                    <path d="M250,122.085497 C250,122.085497 248.865501,115.812052 243,117.200658 C243,117.200658 244.704102,122.907876 249.569267,123 L250,122.085497 Z" id="Path" fill="#FF8F00"></path>
                    <path d="M252,116.048212 C252,116.048212 250.692581,109.434111 245,111.347358 C245,111.347358 247.230968,117.599494 251.595806,116.953126 L252,116.048212 Z" id="Path" fill="#FF8F00"></path>
                    <path d="M253,110.640623 C253,110.640623 250.756974,103.819505 246,104.003663 C246,104.003663 248.291841,111.207636 252.602162,112 L253,110.640623 Z" id="Path" fill="#FF8F00"></path>
                    <path d="M253,104.704945 C253,104.704945 250.679814,96.3950058 247,97.0351752 C247,97.0351752 248.605568,103.387814 252.87007,106 L253,104.704945 Z" id="Path" fill="#FF8F00"></path>
                    <path d="M254,98.2 C254,98.2 251.7488,91.2771117 248,91 C248,91 249.5312,97.8125341 253.9256,100 L254,98.2 Z" id="Path" fill="#FF8F00"></path>
                    <path d="M254,91.8932618 C254,91.8932618 251.343182,85.1526535 249,85 C249,85 250.154545,91.6380441 253.772727,93 L254,91.8932618 Z" id="Path" fill="#FF8F00"></path>
                    <path d="M254,86.4822735 C254,86.4822735 252.358447,79.5740011 250,79 C250,79 250.321918,84.6522228 253.762557,87 L254,86.4822735 Z" id="Path" fill="#FF8F00"></path>
                    <path d="M256,79.6003511 C256,79.6003511 254.101695,73.8730252 252,73 C252,73 252.414313,79.7524868 255.51538,81 L256,79.6003511 Z" id="Path" fill="#FF8F00"></path>
                    <path d="M256.610885,74.2086373 L257,64 C257,64 252.993651,71.6955236 256.321609,76 L256.610885,74.2086373 Z" id="Path" fill="#FF8F00"></path>
                    <path d="M259.212351,64.8292318 C259.212351,64.8292318 261.456408,57.4142949 262,57 C262,57 257.599497,61.8114701 258.029592,68 L259.212351,64.8292318 Z" id="Path" fill="#FF8F00"></path>
                    <path d="M237.143318,143.014785 C237.143318,143.014785 242.145649,142.407788 241.99674,148.972267 C241.99674,148.972267 237.47647,149.656604 236,144.226437 L237.143318,143.014785 Z" id="Path" fill="#FF8F00"></path>
                    <path d="M242.067673,137 C242.067673,137 247.417721,136.982954 246.97383,143.964667 C246.97383,143.964667 242.481192,144.802375 241,138.319878 L242.067673,137 Z" id="Path" fill="#FF8F00"></path>
                    <path d="M245.409685,132.392034 C245.409685,132.392034 250.038686,130.334786 253,135.645652 C253,135.645652 248.725021,137.35897 245,133.250804 L245.409685,132.392034 Z" id="Path" fill="#FF8F00"></path>
                    <path d="M247.396062,127.48272 C247.396062,127.48272 252.18706,125.17779 255,130.641163 C255,130.641163 250.00872,132.339299 247,128.347347 L247.396062,127.48272 Z" id="Path" fill="#FF8F00"></path>
                    <path d="M249.223928,121.982606 C249.223928,121.982606 254.105082,117.488248 258,122.033131 C258,122.033131 253.014029,125.732881 249,122.983905 L249.223928,121.982606 Z" id="Path" fill="#FF8F00"></path>
                    <path d="M251.177269,115.92434 C251.177269,115.92434 256.114453,111.460778 260,116.129663 C260,116.129663 254.459143,119.796479 251,116.861688 L251.177269,115.92434 Z" id="Path" fill="#FF8F00"></path>
                    <path d="M252,109.643872 C252,109.643872 255.6738,103.90565 260,105.186421 C260,105.186421 256.187392,111.26205 252.041643,110.991206 L252,109.643872 Z" id="Path" fill="#FF8F00"></path>
                    <path d="M253.103962,104.670448 C253.103962,104.670448 257.161014,96.7882822 261,98.1604 C261,98.1604 258.073851,104.219752 253,106 L253.103962,104.670448 Z" id="Path" fill="#FF8F00"></path>
                    <path d="M253.382546,98.2797996 C253.382546,98.2797996 257.315601,92.3346719 261,93.0616185 C261,93.0616185 257.78422,99.090717 253,100 L253.382546,98.2797996 Z" id="Path" fill="#FF8F00"></path>
                    <path d="M254,91.8459658 C254,91.8459658 256.758546,85.0464548 259,85 C259,85 257.675898,91.7506112 254.186067,93 L254,91.8459658 Z" id="Path" fill="#FF8F00"></path>
                    <path d="M254,86.4366243 C254,86.4366243 257.425463,80.0136852 260,80 C260,80 258.247381,85.4923428 254.113618,87 L254,86.4366243 Z" id="Path" fill="#FF8F00"></path>
                    <path d="M255,79.4607721 C255,79.4607721 257.187822,73.6575342 259,73 C259,73 257.906089,80.0734745 255.241486,81 L255,79.4607721 Z" id="Path" fill="#FF8F00"></path>
                    <path d="M256.764641,74.3930233 L262,66 C262,66 260.658564,74.2790698 256,76 L256.764641,74.3930233 Z" id="Path" fill="#FF8F00"></path>
                    <path d="M260.58075,65.6390929 C260.58075,65.6390929 266.775,60.7844139 267,60 C267,60 263.85,66.7991057 258,68 L260.58075,65.6390929 Z" id="Path" fill="#FF8F00"></path>
                    <path d="M261.169139,63 C261.169139,63 268.204006,55.9930881 270,56 C270,56 264.198071,56.2743791 261,62.6264825 L261.169139,63 Z" id="Path" fill="#FF8F00"></path>
                    <path d="M255,79.9655919 L255.27027,80 C256.666275,69.3357971 258.701528,63.02536 261,62.2523257 L260.910693,62 C258.473561,62.8257933 256.424207,69.0398879 255,79.9655919 Z" id="Path" fill="#444053"></path>
                    <path d="M253,105.968284 L253.512267,106 C253.621197,105.016816 253.703631,104.010978 253.759568,103.007406 C254.248283,94.2901455 255.004907,86.2842206 256,80.283175 L255.705594,80 C254.707556,86.014638 253.736016,94.2606953 253.247301,102.991548 C253.191364,103.988324 253.10893,104.989631 253,105.968284 Z" id="Path" fill="#444053"></path>
                    <path d="M222.213997,155 C222.282294,154.969608 229.255416,151.771403 236.49262,144.145275 C240.732768,139.678749 244.255924,134.549595 246.930675,128.949128 C250.277227,121.951887 252.31703,113.353205 253,105 L252.587942,105.198719 C251.051259,123.948427 242.739517,136.759948 236.130646,143.738486 C228.964016,151.296816 222.068297,154.46229 222,154.492682 L222.213997,155 Z" id="Path" fill="#444053"></path>
                    <path d="M241.01317,20 L17.9868303,20 C16.8895342,20 16,20.9152102 16,22.0441791 L16,28 L243,28 L243,22.0441791 C243,21.5020291 242.790674,20.9820841 242.418071,20.5987262 C242.045468,20.2153683 241.54011,20 241.01317,20 Z" id="Path" fill="#283A5B"></path>
                    <path d="M16,28 L16,158.002005 C16,160.210037 17.7936169,162 20.0061554,162 L238.993845,162 C241.206383,162 243,160.210037 243,158.002005 L243,28 L16,28 Z" id="Path" fill="#FFFFFF"></path>
                    <circle id="Oval" fill="#FA5959" opacity="0.8" cx="20" cy="24" r="1"></circle>
                    <circle id="Oval" fill="#FED253" opacity="0.8" cx="22" cy="24" r="1"></circle>
                    <circle id="Oval" fill="#8CCF4D" opacity="0.8" cx="25" cy="24" r="1"></circle>
                    <rect id="Rectangle" fill="#000000" opacity="0.05" x="37" y="50" width="182" height="80"></rect>
                    <rect id="Rectangle" fill="#283A5B" x="39" y="50" width="179" height="78"></rect>
                    <path d="M87,70 C77.0588745,70 69,78.0588745 69,88 C69,97.9411255 77.0588745,106 87,106 C96.9411255,106 105,97.9411255 105,88 C105,83.2261032 103.103577,78.6477328 99.7279221,75.2720779 C96.3522672,71.8964231 91.7738968,70 87,70 L87,70 Z M90.2283117,88.4324675 L90.2283117,96.9555844 L83.8651948,96.9555844 L83.8651948,88.4324675 C82.0595088,87.0656285 81.3286287,84.6982037 82.0495517,82.5513407 C82.7704746,80.4044776 84.7820787,78.9579871 87.0467532,78.9579871 C89.3114278,78.9579871 91.3230319,80.4044776 92.0439548,82.5513407 C92.7648778,84.6982037 92.0339977,87.0656285 90.2283117,88.4324675 L90.2283117,88.4324675 Z" id="Shape" fill="#FF8F00"></path>
                    <path d="M87,70 C77.0588745,70 69,78.0588745 69,88 C69,97.9411255 77.0588745,106 87,106 C96.9411255,106 105,97.9411255 105,88 C105,83.2261032 103.103577,78.6477328 99.7279221,75.2720779 C96.3522672,71.8964231 91.7738968,70 87,70 L87,70 Z M90.2283117,88.4324675 L90.2283117,96.9555844 L83.8651948,96.9555844 L83.8651948,88.4324675 C82.0595088,87.0656285 81.3286287,84.6982037 82.0495517,82.5513407 C82.7704746,80.4044776 84.7820787,78.9579871 87.0467532,78.9579871 C89.3114278,78.9579871 91.3230319,80.4044776 92.0439548,82.5513407 C92.7648778,84.6982037 92.0339977,87.0656285 90.2283117,88.4324675 L90.2283117,88.4324675 Z" id="Shape" fill="#000000" opacity="0.05"></path>
                    <path d="M87,65 C74.2974508,65 64,75.2974508 64,88 C64,100.702549 74.2974508,111 87,111 C99.7025492,111 110,100.702549 110,88 C110,81.9000207 107.576793,76.0498807 103.263456,71.736544 C98.9501193,67.4232073 93.0999793,65 87,65 L87,65 Z M91.1237374,88.5529293 L91.1237374,99.4419192 L82.9924242,99.4419192 L82.9924242,88.5529293 C80.6842494,86.8061769 79.7497765,83.7802896 80.6710609,81.0361959 C81.5923453,78.2921022 84.1634625,76.4431593 87.0580808,76.4431593 C89.9526991,76.4431593 92.5238163,78.2921022 93.4451007,81.0361959 C94.3663851,83.7802896 93.4319122,86.8061769 91.1237374,88.5529293 Z" id="Shape" fill="#FF8F00"></path>
                    <rect id="Rectangle" fill="#FFFFFF" x="120" y="85" width="74" height="8"></rect>
                    <rect id="Rectangle" fill="#FF8F00" x="178" y="100" width="16" height="8"></rect>
                    <path d="M126.866667,88.8704075 L125.322667,88.8704075 L126.696,87.496994 C126.747142,87.444138 126.747142,87.3601373 126.696,87.3072812 C126.670964,87.281989 126.636885,87.2677624 126.601333,87.2677624 C126.565782,87.2677624 126.531702,87.281989 126.506667,87.3072812 L125.133333,88.6833667 L125.133333,87.1336005 C125.133333,87.059815 125.073638,87 125,87 C124.926958,87.0014215 124.868085,87.0604119 124.866667,87.1336005 L124.866667,88.6833667 L123.496,87.2992652 C123.470964,87.2739729 123.436885,87.2597464 123.401333,87.2597464 C123.365782,87.2597464 123.331702,87.2739729 123.306667,87.2992652 C123.255524,87.3521212 123.255524,87.4361219 123.306667,87.488978 L124.68,88.8623914 L123.133333,88.8623914 C123.060291,88.863813 123.001419,88.9228034 123,88.995992 C123,89.0697775 123.059695,89.1295925 123.133333,89.1295925 L124.68,89.1295925 L123.306667,90.505678 C123.255524,90.558534 123.255524,90.6425348 123.306667,90.6953908 C123.359958,90.74528 123.442709,90.74528 123.496,90.6953908 L124.866667,89.3193053 L124.866667,90.8663995 C124.866667,90.940185 124.926362,91 125,91 C125.073638,91 125.133333,90.940185 125.133333,90.8663995 L125.133333,89.3193053 L126.506667,90.6953908 C126.559958,90.74528 126.642709,90.74528 126.696,90.6953908 C126.747142,90.6425348 126.747142,90.558534 126.696,90.505678 L125.322667,89.1295925 L126.866667,89.1295925 C126.940305,89.1295925 127,89.0697775 127,88.995992 C126.995763,88.9253542 126.93729,88.87028 126.866667,88.8704075 L126.866667,88.8704075 Z" id="Path" fill="#FF8F00"></path>
                    <path d="M131.866667,88.8704075 L130.322667,88.8704075 L131.696,87.496994 C131.747142,87.444138 131.747142,87.3601373 131.696,87.3072812 C131.670964,87.281989 131.636885,87.2677624 131.601333,87.2677624 C131.565782,87.2677624 131.531702,87.281989 131.506667,87.3072812 L130.133333,88.6833667 L130.133333,87.1336005 C130.133333,87.059815 130.073638,87 130,87 C129.926958,87.0014215 129.868085,87.0604119 129.866667,87.1336005 L129.866667,88.6833667 L128.496,87.2992652 C128.470964,87.2739729 128.436885,87.2597464 128.401333,87.2597464 C128.365782,87.2597464 128.331702,87.2739729 128.306667,87.2992652 C128.255524,87.3521212 128.255524,87.4361219 128.306667,87.488978 L129.68,88.8623914 L128.133333,88.8623914 C128.060291,88.863813 128.001419,88.9228034 128,88.995992 C128,89.0697775 128.059695,89.1295925 128.133333,89.1295925 L129.68,89.1295925 L128.306667,90.505678 C128.255524,90.558534 128.255524,90.6425348 128.306667,90.6953908 C128.359958,90.74528 128.442709,90.74528 128.496,90.6953908 L129.866667,89.3193053 L129.866667,90.8663995 C129.866667,90.940185 129.926362,91 130,91 C130.073638,91 130.133333,90.940185 130.133333,90.8663995 L130.133333,89.3193053 L131.506667,90.6953908 C131.559958,90.74528 131.642709,90.74528 131.696,90.6953908 C131.747142,90.6425348 131.747142,90.558534 131.696,90.505678 L130.322667,89.1295925 L131.866667,89.1295925 C131.940305,89.1295925 132,89.0697775 132,88.995992 C131.995763,88.9253542 131.93729,88.87028 131.866667,88.8704075 Z" id="Path" fill="#FF8F00"></path>
                    <path d="M136.866667,88.8704075 L135.322667,88.8704075 L136.696,87.496994 C136.747142,87.444138 136.747142,87.3601373 136.696,87.3072812 C136.670964,87.281989 136.636885,87.2677624 136.601333,87.2677624 C136.565782,87.2677624 136.531702,87.281989 136.506667,87.3072812 L135.133333,88.6833667 L135.133333,87.1336005 C135.133333,87.059815 135.073638,87 135,87 C134.926958,87.0014215 134.868085,87.0604119 134.866667,87.1336005 L134.866667,88.6833667 L133.496,87.2992652 C133.470964,87.2739729 133.436885,87.2597464 133.401333,87.2597464 C133.365782,87.2597464 133.331702,87.2739729 133.306667,87.2992652 C133.255524,87.3521212 133.255524,87.4361219 133.306667,87.488978 L134.68,88.8623914 L133.133333,88.8623914 C133.060291,88.863813 133.001419,88.9228034 133,88.995992 C133,89.0697775 133.059695,89.1295925 133.133333,89.1295925 L134.68,89.1295925 L133.306667,90.505678 C133.255524,90.558534 133.255524,90.6425348 133.306667,90.6953908 C133.359958,90.74528 133.442709,90.74528 133.496,90.6953908 L134.866667,89.3193053 L134.866667,90.8663995 C134.866667,90.940185 134.926362,91 135,91 C135.073638,91 135.133333,90.940185 135.133333,90.8663995 L135.133333,89.3193053 L136.506667,90.6953908 C136.559958,90.74528 136.642709,90.74528 136.696,90.6953908 C136.747142,90.6425348 136.747142,90.558534 136.696,90.505678 L135.322667,89.1295925 L136.866667,89.1295925 C136.940305,89.1295925 137,89.0697775 137,88.995992 C136.995763,88.9253542 136.93729,88.87028 136.866667,88.8704075 L136.866667,88.8704075 Z" id="Path" fill="#FF8F00"></path>
                    <path d="M141.866667,88.8704075 L140.322667,88.8704075 L141.696,87.496994 C141.747142,87.444138 141.747142,87.3601373 141.696,87.3072812 C141.670964,87.281989 141.636885,87.2677624 141.601333,87.2677624 C141.565782,87.2677624 141.531702,87.281989 141.506667,87.3072812 L140.133333,88.6833667 L140.133333,87.1336005 C140.133333,87.059815 140.073638,87 140,87 C139.926958,87.0014215 139.868085,87.0604119 139.866667,87.1336005 L139.866667,88.6833667 L138.496,87.2992652 C138.470964,87.2739729 138.436885,87.2597464 138.401333,87.2597464 C138.365782,87.2597464 138.331702,87.2739729 138.306667,87.2992652 C138.255524,87.3521212 138.255524,87.4361219 138.306667,87.488978 L139.68,88.8623914 L138.133333,88.8623914 C138.060291,88.863813 138.001419,88.9228034 138,88.995992 C138,89.0697775 138.059695,89.1295925 138.133333,89.1295925 L139.68,89.1295925 L138.306667,90.505678 C138.255524,90.558534 138.255524,90.6425348 138.306667,90.6953908 C138.359958,90.74528 138.442709,90.74528 138.496,90.6953908 L139.866667,89.3193053 L139.866667,90.8663995 C139.866667,90.940185 139.926362,91 140,91 C140.073638,91 140.133333,90.940185 140.133333,90.8663995 L140.133333,89.3193053 L141.506667,90.6953908 C141.559958,90.74528 141.642709,90.74528 141.696,90.6953908 C141.747142,90.6425348 141.747142,90.558534 141.696,90.505678 L140.322667,89.1295925 L141.866667,89.1295925 C141.940305,89.1295925 142,89.0697775 142,88.995992 C141.995763,88.9253542 141.93729,88.87028 141.866667,88.8704075 L141.866667,88.8704075 Z" id="Path" fill="#FF8F00"></path>
                    <path d="M146.866667,88.8704075 L145.322667,88.8704075 L146.696,87.496994 C146.747142,87.444138 146.747142,87.3601373 146.696,87.3072812 C146.670964,87.281989 146.636885,87.2677624 146.601333,87.2677624 C146.565782,87.2677624 146.531702,87.281989 146.506667,87.3072812 L145.133333,88.6833667 L145.133333,87.1336005 C145.133333,87.059815 145.073638,87 145,87 C144.926958,87.0014215 144.868085,87.0604119 144.866667,87.1336005 L144.866667,88.6833667 L143.496,87.2992652 C143.470964,87.2739729 143.436885,87.2597464 143.401333,87.2597464 C143.365782,87.2597464 143.331702,87.2739729 143.306667,87.2992652 C143.255524,87.3521212 143.255524,87.4361219 143.306667,87.488978 L144.68,88.8623914 L143.133333,88.8623914 C143.060291,88.863813 143.001419,88.9228034 143,88.995992 C143,89.0697775 143.059695,89.1295925 143.133333,89.1295925 L144.68,89.1295925 L143.306667,90.505678 C143.255524,90.558534 143.255524,90.6425348 143.306667,90.6953908 C143.359958,90.74528 143.442709,90.74528 143.496,90.6953908 L144.866667,89.3193053 L144.866667,90.8663995 C144.866667,90.940185 144.926362,91 145,91 C145.073638,91 145.133333,90.940185 145.133333,90.8663995 L145.133333,89.3193053 L146.506667,90.6953908 C146.559958,90.74528 146.642709,90.74528 146.696,90.6953908 C146.747142,90.6425348 146.747142,90.558534 146.696,90.505678 L145.322667,89.1295925 L146.866667,89.1295925 C146.940305,89.1295925 147,89.0697775 147,88.995992 C146.995763,88.9253542 146.93729,88.87028 146.866667,88.8704075 L146.866667,88.8704075 Z" id="Path" fill="#FF8F00"></path>
                    <path d="M151.866667,88.8704075 L150.322667,88.8704075 L151.696,87.496994 C151.747142,87.444138 151.747142,87.3601373 151.696,87.3072812 C151.670964,87.281989 151.636885,87.2677624 151.601333,87.2677624 C151.565782,87.2677624 151.531702,87.281989 151.506667,87.3072812 L150.133333,88.6833667 L150.133333,87.1336005 C150.133333,87.059815 150.073638,87 150,87 C149.926958,87.0014215 149.868085,87.0604119 149.866667,87.1336005 L149.866667,88.6833667 L148.496,87.2992652 C148.470964,87.2739729 148.436885,87.2597464 148.401333,87.2597464 C148.365782,87.2597464 148.331702,87.2739729 148.306667,87.2992652 C148.255524,87.3521212 148.255524,87.4361219 148.306667,87.488978 L149.68,88.8623914 L148.133333,88.8623914 C148.060291,88.863813 148.001419,88.9228034 148,88.995992 C148,89.0697775 148.059695,89.1295925 148.133333,89.1295925 L149.68,89.1295925 L148.306667,90.505678 C148.255524,90.558534 148.255524,90.6425348 148.306667,90.6953908 C148.359958,90.74528 148.442709,90.74528 148.496,90.6953908 L149.866667,89.3193053 L149.866667,90.8663995 C149.866667,90.940185 149.926362,91 150,91 C150.073638,91 150.133333,90.940185 150.133333,90.8663995 L150.133333,89.3193053 L151.506667,90.6953908 C151.559958,90.74528 151.642709,90.74528 151.696,90.6953908 C151.747142,90.6425348 151.747142,90.558534 151.696,90.505678 L150.322667,89.1295925 L151.866667,89.1295925 C151.940305,89.1295925 152,89.0697775 152,88.995992 C151.995763,88.9253542 151.93729,88.87028 151.866667,88.8704075 L151.866667,88.8704075 Z" id="Path" fill="#FF8F00"></path>
                    <path d="M156.866667,88.8704075 L155.322667,88.8704075 L156.696,87.496994 C156.747142,87.444138 156.747142,87.3601373 156.696,87.3072812 C156.670964,87.281989 156.636885,87.2677624 156.601333,87.2677624 C156.565782,87.2677624 156.531702,87.281989 156.506667,87.3072812 L155.133333,88.6833667 L155.133333,87.1336005 C155.133333,87.059815 155.073638,87 155,87 C154.926958,87.0014215 154.868085,87.0604119 154.866667,87.1336005 L154.866667,88.6833667 L153.496,87.2992652 C153.470964,87.2739729 153.436885,87.2597464 153.401333,87.2597464 C153.365782,87.2597464 153.331702,87.2739729 153.306667,87.2992652 C153.255524,87.3521212 153.255524,87.4361219 153.306667,87.488978 L154.68,88.8623914 L153.133333,88.8623914 C153.060291,88.863813 153.001419,88.9228034 153,88.995992 C153,89.0697775 153.059695,89.1295925 153.133333,89.1295925 L154.68,89.1295925 L153.306667,90.505678 C153.255524,90.558534 153.255524,90.6425348 153.306667,90.6953908 C153.359958,90.74528 153.442709,90.74528 153.496,90.6953908 L154.866667,89.3193053 L154.866667,90.8663995 C154.866667,90.940185 154.926362,91 155,91 C155.073638,91 155.133333,90.940185 155.133333,90.8663995 L155.133333,89.3193053 L156.506667,90.6953908 C156.559958,90.74528 156.642709,90.74528 156.696,90.6953908 C156.747142,90.6425348 156.747142,90.558534 156.696,90.505678 L155.322667,89.1295925 L156.866667,89.1295925 C156.940305,89.1295925 157,89.0697775 157,88.995992 C156.995763,88.9253542 156.93729,88.87028 156.866667,88.8704075 L156.866667,88.8704075 Z" id="Path" fill="#FF8F00"></path>
                    <path d="M160.866667,88.8704075 L159.322667,88.8704075 L160.696,87.496994 C160.747142,87.444138 160.747142,87.3601373 160.696,87.3072812 C160.670964,87.281989 160.636885,87.2677624 160.601333,87.2677624 C160.565782,87.2677624 160.531702,87.281989 160.506667,87.3072812 L159.133333,88.6833667 L159.133333,87.1336005 C159.133333,87.059815 159.073638,87 159,87 C158.926958,87.0014215 158.868085,87.0604119 158.866667,87.1336005 L158.866667,88.6833667 L157.496,87.2992652 C157.470964,87.2739729 157.436885,87.2597464 157.401333,87.2597464 C157.365782,87.2597464 157.331702,87.2739729 157.306667,87.2992652 C157.255524,87.3521212 157.255524,87.4361219 157.306667,87.488978 L158.68,88.8623914 L157.133333,88.8623914 C157.060291,88.863813 157.001419,88.9228034 157,88.995992 C157,89.0697775 157.059695,89.1295925 157.133333,89.1295925 L158.68,89.1295925 L157.306667,90.505678 C157.255524,90.558534 157.255524,90.6425348 157.306667,90.6953908 C157.359958,90.74528 157.442709,90.74528 157.496,90.6953908 L158.866667,89.3193053 L158.866667,90.8663995 C158.866667,90.940185 158.926362,91 159,91 C159.073638,91 159.133333,90.940185 159.133333,90.8663995 L159.133333,89.3193053 L160.506667,90.6953908 C160.559958,90.74528 160.642709,90.74528 160.696,90.6953908 C160.747142,90.6425348 160.747142,90.558534 160.696,90.505678 L159.322667,89.1295925 L160.866667,89.1295925 C160.940305,89.1295925 161,89.0697775 161,88.995992 C160.995763,88.9253542 160.93729,88.87028 160.866667,88.8704075 L160.866667,88.8704075 Z" id="Path" fill="#FF8F00"></path>
                    <path d="M165.866667,88.8704075 L164.322667,88.8704075 L165.696,87.496994 C165.747142,87.444138 165.747142,87.3601373 165.696,87.3072812 C165.670964,87.281989 165.636885,87.2677624 165.601333,87.2677624 C165.565782,87.2677624 165.531702,87.281989 165.506667,87.3072812 L164.133333,88.6833667 L164.133333,87.1336005 C164.133333,87.059815 164.073638,87 164,87 C163.926958,87.0014215 163.868085,87.0604119 163.866667,87.1336005 L163.866667,88.6833667 L162.496,87.2992652 C162.470964,87.2739729 162.436885,87.2597464 162.401333,87.2597464 C162.365782,87.2597464 162.331702,87.2739729 162.306667,87.2992652 C162.255524,87.3521212 162.255524,87.4361219 162.306667,87.488978 L163.68,88.8623914 L162.133333,88.8623914 C162.060291,88.863813 162.001419,88.9228034 162,88.995992 C162,89.0697775 162.059695,89.1295925 162.133333,89.1295925 L163.68,89.1295925 L162.306667,90.505678 C162.255524,90.558534 162.255524,90.6425348 162.306667,90.6953908 C162.359958,90.74528 162.442709,90.74528 162.496,90.6953908 L163.866667,89.3193053 L163.866667,90.8663995 C163.866667,90.940185 163.926362,91 164,91 C164.073638,91 164.133333,90.940185 164.133333,90.8663995 L164.133333,89.3193053 L165.506667,90.6953908 C165.559958,90.74528 165.642709,90.74528 165.696,90.6953908 C165.747142,90.6425348 165.747142,90.558534 165.696,90.505678 L164.322667,89.1295925 L165.866667,89.1295925 C165.940305,89.1295925 166,89.0697775 166,88.995992 C165.995763,88.9253542 165.93729,88.87028 165.866667,88.8704075 L165.866667,88.8704075 Z" id="Path" fill="#FF8F00"></path>
                    <path d="M170.866667,88.8704075 L169.322667,88.8704075 L170.696,87.496994 C170.747142,87.444138 170.747142,87.3601373 170.696,87.3072812 C170.670964,87.281989 170.636885,87.2677624 170.601333,87.2677624 C170.565782,87.2677624 170.531702,87.281989 170.506667,87.3072812 L169.133333,88.6833667 L169.133333,87.1336005 C169.133333,87.059815 169.073638,87 169,87 C168.926958,87.0014215 168.868085,87.0604119 168.866667,87.1336005 L168.866667,88.6833667 L167.496,87.2992652 C167.470964,87.2739729 167.436885,87.2597464 167.401333,87.2597464 C167.365782,87.2597464 167.331702,87.2739729 167.306667,87.2992652 C167.255524,87.3521212 167.255524,87.4361219 167.306667,87.488978 L168.68,88.8623914 L167.133333,88.8623914 C167.060291,88.863813 167.001419,88.9228034 167,88.995992 C167,89.0697775 167.059695,89.1295925 167.133333,89.1295925 L168.68,89.1295925 L167.306667,90.505678 C167.255524,90.558534 167.255524,90.6425348 167.306667,90.6953908 C167.359958,90.74528 167.442709,90.74528 167.496,90.6953908 L168.866667,89.3193053 L168.866667,90.8663995 C168.866667,90.940185 168.926362,91 169,91 C169.073638,91 169.133333,90.940185 169.133333,90.8663995 L169.133333,89.3193053 L170.506667,90.6953908 C170.559958,90.74528 170.642709,90.74528 170.696,90.6953908 C170.747142,90.6425348 170.747142,90.558534 170.696,90.505678 L169.322667,89.1295925 L170.866667,89.1295925 C170.940305,89.1295925 171,89.0697775 171,88.995992 C170.995763,88.9253542 170.93729,88.87028 170.866667,88.8704075 L170.866667,88.8704075 Z" id="Path" fill="#FF8F00"></path>
                    <path d="M175.866667,88.8704075 L174.322667,88.8704075 L175.696,87.496994 C175.747142,87.444138 175.747142,87.3601373 175.696,87.3072812 C175.670964,87.281989 175.636885,87.2677624 175.601333,87.2677624 C175.565782,87.2677624 175.531702,87.281989 175.506667,87.3072812 L174.133333,88.6833667 L174.133333,87.1336005 C174.133333,87.059815 174.073638,87 174,87 C173.926958,87.0014215 173.868085,87.0604119 173.866667,87.1336005 L173.866667,88.6833667 L172.496,87.2992652 C172.470964,87.2739729 172.436885,87.2597464 172.401333,87.2597464 C172.365782,87.2597464 172.331702,87.2739729 172.306667,87.2992652 C172.255524,87.3521212 172.255524,87.4361219 172.306667,87.488978 L173.68,88.8623914 L172.133333,88.8623914 C172.060291,88.863813 172.001419,88.9228034 172,88.995992 C172,89.0697775 172.059695,89.1295925 172.133333,89.1295925 L173.68,89.1295925 L172.306667,90.505678 C172.255524,90.558534 172.255524,90.6425348 172.306667,90.6953908 C172.359958,90.74528 172.442709,90.74528 172.496,90.6953908 L173.866667,89.3193053 L173.866667,90.8663995 C173.866667,90.940185 173.926362,91 174,91 C174.073638,91 174.133333,90.940185 174.133333,90.8663995 L174.133333,89.3193053 L175.506667,90.6953908 C175.559958,90.74528 175.642709,90.74528 175.696,90.6953908 C175.747142,90.6425348 175.747142,90.558534 175.696,90.505678 L174.322667,89.1295925 L175.866667,89.1295925 C175.940305,89.1295925 176,89.0697775 176,88.995992 C175.995763,88.9253542 175.93729,88.87028 175.866667,88.8704075 L175.866667,88.8704075 Z" id="Path" fill="#FF8F00"></path>
                </g>
            </g>
        </g>
    </g>
</svg>