<?xml version="1.0" encoding="UTF-8"?>
<svg width="243px" height="168px" viewBox="0 0 243 168" version="1.1" xmlns="http://www.w3.org/2000/svg" xmlns:xlink="http://www.w3.org/1999/xlink">
    <!-- Generator: sketchtool 56.2 (101010) - https://sketch.com -->
    <title>A095B42D-BAC8-4C1F-B5AF-1CEA9C933D26hdpi/</title>
    <desc>Created with sketchtool.</desc>
    <defs>
        <linearGradient x1="49.990264%" y1="99.9993906%" x2="49.990264%" y2="0.00841935186%" id="linearGradient-1">
            <stop stop-color="#808080" stop-opacity="0.25" offset="0%"></stop>
            <stop stop-color="#808080" stop-opacity="0.12" offset="54%"></stop>
            <stop stop-color="#808080" stop-opacity="0.1" offset="100%"></stop>
        </linearGradient>
    </defs>
    <g id="[flow]-onboarding---IDF" stroke="none" stroke-width="1" fill="none" fill-rule="evenodd">
        <g id="003-onboarding-idf---teacher---desktop" transform="translate(-519.000000, -188.000000)">
            <g id="illustration" transform="translate(519.000000, 188.000000)">
                <path d="M59.2293269,5.01557632 C51.7236156,6.35929387 43.1047163,8.75389408 40.0683715,16.1163032 C37.293709,22.847352 40.5501992,30.4299065 42.7412687,37.3956386 C44.9005066,44.2727398 46.0205111,51.4337685 46.0642178,58.6417445 C46.1202926,68.780893 44.1452147,79.4724818 48.1576758,88.6853583 C52.685194,99.0799585 63.889763,105.09242 67.8170735,115.746625 C69.4640102,120.213915 69.6633871,125.102804 70.4484338,129.823468 C72.1888284,140.284528 76.9427225,150.164071 83.9209157,157.817238 C88.5605834,162.905504 94.6021202,167.175493 101.293709,167.277259 C106.369514,167.356179 111.162868,165.05296 115.864841,163.036345 C121.350344,160.684601 126.972907,158.666387 132.701809,156.992731 C135.115101,156.288681 137.601082,155.640706 140.097447,155.860852 C144.907416,156.27622 148.919877,159.806854 153.484779,161.468328 C165.856534,165.954309 178.645734,156.205607 191.698693,155.17757 C202.888725,154.294912 214.1286,159.92108 225.123408,157.57217 C226.743346,157.225337 228.475433,156.596054 229.324862,155.100727 C230.730885,152.623053 228.986336,149.194185 230.236596,146.62513 C231.486855,144.056075 234.861726,143.790239 236.843034,141.835929 C238.859649,139.846314 239.023719,136.411215 237.995682,133.709242 C236.967645,131.007269 234.984259,128.855659 233.077717,126.751817 C223.640974,116.330811 214.952656,105.25579 207.077717,93.6095535 C199.044488,81.7320872 191.526315,67.761163 193.785921,53.3665628 C194.566814,48.4132918 196.485817,43.7258567 197.356014,38.7892004 C198.226212,33.8525441 197.868995,28.2616822 194.676887,24.5358255 C192.770345,22.3094496 190.09537,21.0238837 187.499316,19.7985462 C163.287478,8.36967809 137.34563,-3.33333333 111.131715,0.992731049 C106.863802,1.69678089 102.639503,2.82658359 98.3217464,2.98026999 C92.0725252,3.20456906 86.1909053,0.411214953 80.0870631,1.31879543 C73.1566374,2.34267913 66.1535221,3.77570093 59.2293269,5.01557632 Z" id="Path" fill="#295FEC" fill-rule="nonzero" opacity="0.1"></path>
                <g id="Group" transform="translate(5.000000, 8.977850)">
                    <path d="M33.5867082,26.5050158 C33.5867082,26.5050158 25.0446521,21.8155038 22.5109034,14.6317032 C21.4682465,11.6108841 19.4736074,9.00990974 16.8265836,7.21944983 C15.5634162,6.37891807 14.2258736,5.65592207 12.8307373,5.0595329" id="Path" stroke="#535461" stroke-width="2"></path>
                    <path d="M11.2107996,0.542398947 C12.0186916,1.35444464 12.8888889,5.17375928 12.8888889,5.17375928 C12.8888889,5.17375928 9.07580478,4.2807167 8.26791277,3.46659417 C7.5269063,2.6436971 7.56186835,1.38414931 8.34738199,0.603624811 C9.13289564,-0.176899688 10.3926406,-0.203835674 11.2107996,0.542398947 Z" id="Path" fill="#295FEC" fill-rule="nonzero"></path>
                    <path d="M18.1163032,2.62547267 C18.3530633,3.746968 17.0093458,7.42505731 17.0093458,7.42505731 C17.0093458,7.42505731 14.2949117,4.6026274 14.0581516,3.47905523 C13.8787011,2.38327668 14.5929124,1.34017815 15.6794227,1.11120515 C16.7659329,0.882232149 17.840356,1.54839083 18.1183801,2.62339583 L18.1163032,2.62547267 Z" id="Path" fill="#295FEC" fill-rule="nonzero"></path>
                    <path d="M25.655244,10.421942 C25.2938733,11.508131 22.2762201,14.0065734 22.2762201,14.0065734 C22.2762201,14.0065734 21.3582555,10.1997198 21.7196262,9.11145398 C22.0815075,8.0217956 23.2582129,7.43181569 24.3478712,7.79369697 C25.4375296,8.15557826 26.0275095,9.33228366 25.6656282,10.421942 L25.655244,10.421942 Z" id="Path" fill="#295FEC" fill-rule="nonzero"></path>
                    <path d="M30.03946,17.6057427 C29.867082,18.7376222 27.3146417,21.7095848 27.3146417,21.7095848 C27.3146417,21.7095848 25.7653167,18.1124924 25.9376947,16.9806129 C26.0159308,16.2186249 26.5072471,15.5615627 27.2160138,15.2710521 C27.9247804,14.9805415 28.7359164,15.103752 29.3264476,15.5916243 C29.9169789,16.0794967 30.1910221,16.8528159 30.03946,17.6036658 L30.03946,17.6057427 Z" id="Path" fill="#295FEC" fill-rule="nonzero"></path>
                    <path d="M14.0768432,10.6545485 C15.2232606,10.6420874 18.5212876,8.52786104 18.5212876,8.52786104 C18.5212876,8.52786104 15.1754933,6.49255471 14.0290758,6.50501577 C12.882067,6.51820637 11.9629257,7.45873384 11.9761163,8.60574266 C11.9893069,9.75275149 12.9298344,10.6718928 14.0768432,10.6587022 L14.0768432,10.6545485 Z" id="Path" fill="#295FEC" fill-rule="nonzero"></path>
                    <path d="M19.3001038,18.9909971 C20.3883697,18.6358569 22.9034268,15.6327416 22.9034268,15.6327416 C22.9034268,15.6327416 19.1007269,14.6919317 18.0124611,15.0470718 C16.9644912,15.4329951 16.4093319,16.578563 16.7557735,17.640239 C17.1022151,18.7019149 18.2262087,19.2995487 19.3001038,18.9930739 L19.3001038,18.9909971 Z" id="Path" fill="#295FEC" fill-rule="nonzero"></path>
                    <path d="M25.4890966,26.3970199 C26.623053,26.2308725 29.6095535,23.6971238 29.6095535,23.6971238 C29.6095535,23.6971238 26.0207684,22.1270303 24.8888889,22.2931778 C24.1296446,22.3714334 23.4745061,22.8598443 23.1827234,23.5651377 C22.8909407,24.270431 23.0095384,25.0789397 23.4915851,25.6707224 C23.9736319,26.2625051 24.7414397,26.5421884 25.4911734,26.3990968 L25.4890966,26.3970199 Z" id="Path" fill="#295FEC" fill-rule="nonzero"></path>
                    <path d="M25.9023884,55.1654519 C25.9023884,55.1654519 17.3603323,50.47594 14.8265836,43.2921393 C13.7839266,40.2713202 11.7892876,37.6703459 9.14226376,35.879886 C7.87909639,35.0393542 6.54155378,34.3163582 5.14641745,33.719969" id="Path" stroke="#535461" stroke-width="2"></path>
                    <path d="M3.52647975,29.2028351 C4.33437175,30.0148808 5.20456906,33.8341954 5.20456906,33.8341954 C5.20456906,33.8341954 1.39148494,32.9411528 0.583592939,32.1270303 C-0.157413539,31.3041332 -0.122451487,30.0445854 0.66306216,29.2640609 C1.44857581,28.4835364 2.7083208,28.4566005 3.52647975,29.2028351 L3.52647975,29.2028351 Z" id="Path" fill="#295FEC" fill-rule="nonzero"></path>
                    <path d="M10.4319834,31.2859088 C10.6687435,32.4074041 9.32502596,36.0854934 9.32502596,36.0854934 C9.32502596,36.0854934 6.6105919,33.2630635 6.37383178,32.1394914 C6.19438122,31.0437128 6.9085926,30.0006143 7.99510283,29.7716413 C9.08161307,29.5426683 10.1560362,30.208827 10.4340602,31.283832 L10.4319834,31.2859088 Z" id="Path" fill="#295FEC" fill-rule="nonzero"></path>
                    <path d="M17.9709242,39.0823782 C17.6095535,40.1685672 14.5919003,42.6670095 14.5919003,42.6670095 C14.5919003,42.6670095 13.6739356,38.860156 14.0353063,37.7718901 C14.2694025,37.0670047 14.8617681,36.5405526 15.5892648,36.3908431 C16.3167616,36.2411336 17.0688653,36.4909112 17.5622659,37.0460871 C18.0556665,37.601263 18.2154046,38.3774928 17.9813084,39.0823782 L17.9709242,39.0823782 Z" id="Path" fill="#295FEC" fill-rule="nonzero"></path>
                    <path d="M22.3551402,46.2661788 C22.1827622,47.3980583 19.6303219,50.370021 19.6303219,50.370021 C19.6303219,50.370021 18.0809969,46.7729285 18.2533749,45.641049 C18.331611,44.879061 18.8229273,44.2219989 19.5316939,43.9314882 C20.2404606,43.6409776 21.0515965,43.7641881 21.6421278,44.2520605 C22.2326591,44.7399328 22.5067022,45.5132521 22.3551402,46.264102 L22.3551402,46.2661788 Z" id="Path" fill="#295FEC" fill-rule="nonzero"></path>
                    <path d="M6.39252336,39.3149846 C7.53894081,39.3025236 10.8369678,37.1882972 10.8369678,37.1882972 C10.8369678,37.1882972 7.49117342,35.1529908 6.34475597,35.1654519 C5.19774717,35.1786425 4.27860594,36.11917 4.29179655,37.2661788 C4.30498715,38.4131876 5.24551457,39.3323289 6.39252336,39.3191383 L6.39252336,39.3149846 Z" id="Path" fill="#295FEC" fill-rule="nonzero"></path>
                    <path d="M11.615784,47.6514332 C12.7040498,47.296293 15.219107,44.2931778 15.219107,44.2931778 C15.219107,44.2931778 11.4164071,43.3523678 10.3281412,43.707508 C9.59681148,43.9162193 9.03805206,44.5079753 8.87159806,45.2500647 C8.70514407,45.9921541 8.95762111,46.7658741 9.52974124,47.2669551 C10.1018614,47.7680361 10.9021096,47.9163264 11.615784,47.6535101 L11.615784,47.6514332 Z" id="Path" fill="#295FEC" fill-rule="nonzero"></path>
                    <path d="M17.8047767,55.0574561 C18.9387331,54.8913086 21.9252336,52.3575599 21.9252336,52.3575599 C21.9252336,52.3575599 18.3364486,50.7874664 17.2045691,50.9536139 C16.4453248,51.0318695 15.7901863,51.5202805 15.4984036,52.2255738 C15.2066209,52.9308671 15.3252185,53.7393758 15.8072653,54.3311585 C16.289312,54.9229412 17.0571199,55.2026246 17.8068536,55.0595329 L17.8047767,55.0574561 Z" id="Path" fill="#295FEC" fill-rule="nonzero"></path>
                </g>
                <g id="laptop" transform="translate(0.000000, 19.000000)" fill-rule="nonzero">
                    <path d="M32,0 L210,0 C214.418278,-8.11624501e-16 218,3.581722 218,8 L218,121 L24,121 L24,8 C24,3.581722 27.581722,8.11624501e-16 32,0 Z" id="Rectangle" fill="#535461"></path>
                    <rect id="Rectangle" fill="#F1F1F4" x="34" y="14" width="174" height="103"></rect>
                    <circle id="Oval" fill="#FFFFFF" cx="121.232606" cy="7.60851506" r="1.36033229"></circle>
                    <path d="M150.282588,117 L143.923943,123.486388 L99.0907253,123.486388 L93.3444753,117 L2.03887363,117 C0.912834818,117 0,117.907619 0,119.027224 L0,120.660671 C0,126.923209 5.10596454,132 11.404491,132 L231.595509,132 C234.620168,132 237.520945,130.805324 239.659702,128.678787 C241.798459,126.552251 243,123.668048 243,120.660671 L243,119.027224 C243,117.907619 242.087165,117 240.961126,117 L150.282588,117 Z" id="Path" fill="#535461"></path>
                    <rect id="Rectangle" fill="#295FEC" x="61" y="28" width="19.5223261" height="19" rx="2"></rect>
                    <rect id="Rectangle" fill="#295FEC" opacity="0.2" transform="translate(171.805815, 37.500000) rotate(-180.000000) translate(-171.805815, -37.500000) " x="162.044652" y="28" width="19.5223261" height="19" rx="2"></rect>
                    <rect id="Rectangle" fill="#295FEC" x="111.522326" y="28" width="19.5223261" height="19" rx="2"></rect>
                    <rect id="Rectangle" fill="#295FEC" x="61" y="56" width="19.5223261" height="19" rx="2"></rect>
                    <rect id="Rectangle" fill="#295FEC" opacity="0.2" transform="translate(171.805815, 63.500000) rotate(-180.000000) translate(-171.805815, -63.500000) " x="162.044652" y="54" width="19.5223261" height="19" rx="2"></rect>
                    <rect id="Rectangle" fill="#295FEC" opacity="0.2" x="111.522326" y="54" width="19.5223261" height="19" rx="2"></rect>
                    <rect id="Rectangle" fill="#295FEC" x="61" y="84" width="19.5223261" height="19" rx="2"></rect>
                    <rect id="Rectangle" fill="#295FEC" transform="translate(171.805815, 93.500000) rotate(-180.000000) translate(-171.805815, -93.500000) " x="162.044652" y="84" width="19.5223261" height="19" rx="2"></rect>
                    <rect id="Rectangle" fill="#295FEC" x="111.522326" y="84" width="19.5223261" height="19" rx="2"></rect>
                    <g id="person" transform="translate(190.642783, 15.267913)">
                        <path d="M44.6396677,23.4475597 C44.6012126,23.2250322 44.517062,23.0128878 44.3925234,22.8245067 C44.2449845,22.6523986 44.0815782,22.4945551 43.9044652,22.3530633 C42.9241952,21.430945 43.4517134,19.7694704 43.0737279,18.4880582 C42.6583593,17.1194185 41.2045691,16.0706127 39.9418484,15.3727934 C39.7378055,15.2549549 39.5183109,15.1661784 39.2897196,15.1090343 C39.00401,15.0632625 38.7151056,15.0403447 38.4257529,15.0404984 C37.9734729,15.0132932 37.5286912,14.9122702 37.1090343,14.741433 C36.5088266,14.4963655 35.973001,14.1183801 35.3582555,13.9106957 C35.2387824,13.8668914 35.1113122,13.8491873 34.9844237,13.8587747 C34.3136033,13.7964694 34.290758,14.6313603 33.5700935,15.1152648 C33.271028,15.3229491 32.9865005,15.6095535 32.9865005,15.9667705 C32.9865005,16.4548287 33.4849429,16.7767394 33.9293873,16.9906542 C34.3738318,17.2045691 34.4755971,17.1630322 34.5628245,17.1609553 L34.6002077,17.1609553 C34.6604361,17.1713396 34.7268951,17.2232606 34.8992731,17.4122534 C32.1436165,17.8422275 30.1069496,20.2079282 30.0913811,22.9968847 C30.0906928,23.7843382 30.2570395,24.5629821 30.5794393,25.2814123 C30.5607477,25.4143302 30.5399792,25.5514019 30.517134,25.6967809 C30.2990654,27.0363448 29.894081,28.6521288 29.2004154,29.9896158 C28.6313603,30.105919 28.2720665,30.1973001 28.2720665,30.1973001 C28.2777061,30.2246753 28.2811783,30.2524527 28.2824507,30.2803738 L28.0747664,30.4340602 L27.2024922,31.0571132 C25.4849429,28.2097612 23.7300104,24.674974 23.6593977,22.0207684 C23.6593977,22.0207684 23.4517134,22.1640706 23.0986501,22.3883697 L23.0986501,20.5025961 L22.9865005,20.4818276 L23.0986501,20.2741433 L23.9086189,18.741433 C24.21357,18.164881 24.3779541,17.5244236 24.3883697,16.8722741 C24.4257529,14.463136 24.3468328,8.52336449 22.6812046,7.53686397 C20.5815161,6.29075805 20.1619938,11.6780893 19.0425753,14.4382139 C18.211838,16.4963655 18.6272066,19.4787124 18.8805815,20.8598131 C18.8992731,20.953271 18.9158879,21.0384216 18.9325026,21.1173416 C18.2496112,21.3747058 17.5854889,21.6793554 16.9449637,22.0290758 C17.3873313,22.2035306 17.7175493,23.588785 17.9003115,24.5856698 C17.9190031,24.6915888 17.9376947,24.7933541 17.9543094,24.886812 C17.531622,25.019604 17.1008247,25.1250488 16.6645898,25.2024922 L20.2741433,33.0778816 C19.5036345,33.9709242 17.8961578,35.5347871 16.6645898,34.7248183 C14.9844237,33.6199377 9.81100727,34.172378 9.81100727,34.172378 C9.81100727,34.172378 6.85358255,26.3198339 6.99480789,23.9688474 C6.99480789,23.9688474 6.83904465,24.0477674 6.57943925,24.1765317 L6.57943925,22.0353063 C6.48344161,22.1001051 6.38278678,22.1577213 6.27829699,22.2076843 L6.38836968,22.0124611 L6.5482866,21.7279335 C6.8532345,21.1887759 7.03481789,20.5886996 7.07995846,19.9709242 C7.25441329,17.5555556 7.50986501,11.3541018 5.59916926,10.5794393 C3.21910696,9.61370717 2.5192108,16.5129803 2.5192108,16.5129803 L3.02596054,22.7601246 L3.03634476,22.8992731 C1.90654206,22.9989616 0.978193146,22.9989616 0.978193146,22.9989616 C1.26272066,23.2793354 1.35410177,24.8265836 1.39356179,25.7964694 C1.39356179,25.8961578 1.39356179,25.9875389 1.39356179,26.0726895 C0.816199377,26.172378 0.321910696,26.1806854 -1.3500312e-13,26.0353063 L3.77985462,36.2471443 C3.77985462,36.2471443 4.06022845,38.7393562 8.95950156,39.8359294 C11.8400831,40.4859813 13.8483904,41.0820353 15.0155763,41.4724818 C13.0176532,46.2076843 6.08515057,63.2793354 8.11838006,67.4330218 C8.11838006,67.4330218 9.2066459,67.0176532 10.3198339,66.6521288 C10.5773624,70.2326064 11.0238837,75.655244 11.5659398,79.1298027 C10.9740395,80.9595016 10.5275182,82.4942887 10.3821391,83.3727934 C10.3696781,83.4454829 10.3592939,83.5140187 10.3509865,83.5804777 C9.93561786,86.8930426 6.57113188,93.2419522 11.6116303,98.623053 C11.6116303,98.623053 15.1111111,100.699896 15.3914849,103.17757 C15.6261682,105.266874 19.325026,110.475597 20.4963655,112.083074 C19.5597092,113.692627 16.9179647,117.937695 14.5503634,119.048806 C11.6116303,120.429907 13.9896158,122.361371 16.7892004,121.956386 C19.588785,121.551402 28.834891,114.917965 28.834891,114.917965 C28.834891,114.917965 28.7705088,110.581516 27.894081,110.265836 L27.894081,110.265836 L27.0529595,108.529595 C27.5198004,108.457041 27.9768744,108.331625 28.4153686,108.155763 C32.1952233,106.637591 37.3748702,103.877466 37.3748702,103.877466 C37.3748702,103.877466 37.4766355,100.635514 36.0083074,99.4475597 C35.2564901,97.1277259 31.7757009,95.0446521 31.7757009,95.0446521 C31.7757009,95.0446521 29.2523364,88.5545171 23.0924195,86.7559709 C23.0924195,86.7559709 22.0976116,85.3541018 22.1349948,83.748702 C22.5399792,82.9719626 22.8141225,82.4776739 22.8141225,82.4776739 L26,74.9179647 C26.8247725,74.1825303 27.5259942,73.3193263 28.0768432,72.3613707 C28.1239183,72.2755279 28.1696089,72.1889927 28.2139148,72.1017653 C30.1349948,72.3281412 31.6407061,72.5545171 31.6407061,72.5545171 L31.5015576,65.9293873 C30.2326064,52.2596054 34.1536864,48.2575286 34.1536864,48.2575286 C34.1536864,48.2575286 39.761163,41.4953271 40.3136033,36.6645898 C40.8307373,32.2056075 37.0550363,31.9813084 36.4714434,31.973001 C36.3600659,31.3117569 36.3848003,30.6347392 36.5441329,29.9833853 L36.6105919,30.0311526 C36.7290854,30.1282064 36.8735661,30.1881659 37.0259605,30.2035306 C37.0563509,30.2064509 37.0869513,30.2064509 37.1173416,30.2035306 L37.1671859,30.2035306 C37.304779,30.1970551 37.4384476,30.1555964 37.5555556,30.0830737 C39.01973,29.3146417 40.1599169,27.9252336 41.7673936,27.5244029 C42.1038422,27.4413292 42.4548287,27.403946 42.7850467,27.2959502 C43.5325205,27.0322496 44.135195,26.4672423 44.4465213,25.7383178 C44.7482662,25.01357 44.8158004,24.2126 44.6396677,23.4475597 Z M24.07892,96.5524403 C24.3592939,97.5181724 28.8390447,100.830737 28.8390447,100.830737 L29.0114226,102.020768 C27.8629139,103.108664 26.6543754,104.131381 25.3914849,105.084112 L23.7985462,101.796469 C23.7985462,101.796469 21.4184839,94.2056075 19.3187954,93.3790239 C18.9304258,93.2253375 18.8058152,92.7559709 18.8598131,92.0976116 C20.2242991,93.0965732 23.8463136,95.7777778 24.0726895,96.5586708 L24.07892,96.5524403 Z" id="Shape" fill="url(#linearGradient-1)"></path>
                        <path d="M15.7279335,40.6147456 C15.7279335,40.6147456 6.20768432,62.6458982 8.5192108,67.4060228 C8.5192108,67.4060228 12.3281412,65.9106957 12.8805815,66.1827622 C13.4330218,66.4548287 18.8639668,37.7590862 18.8639668,37.7590862 L15.7279335,40.6147456 Z" id="Path" fill="#575988"></path>
                        <path d="M15.7279335,40.6147456 C15.7279335,40.6147456 6.20768432,62.6458982 8.5192108,67.4060228 C8.5192108,67.4060228 12.3281412,65.9106957 12.8805815,66.1827622 C13.4330218,66.4548287 18.8639668,37.7590862 18.8639668,37.7590862 L15.7279335,40.6147456 Z" id="Path" fill="#000000" opacity="0.05"></path>
                        <path d="M20.8951194,110.7892 C20.8951194,110.7892 17.6303219,116.909657 14.7746625,118.265836 C11.9190031,119.622015 14.2305296,121.530633 16.9511942,121.121495 C19.6718588,120.712357 28.6479751,114.184839 28.6479751,114.184839 C28.6479751,114.184839 28.5856698,109.912773 27.7320872,109.601246 C26.8785047,109.28972 20.8951194,110.7892 20.8951194,110.7892 Z" id="Path" fill="#575988"></path>
                        <path d="M29.4641745,100.86189 C29.4641745,100.86189 24.8411215,105.484943 22.7995846,105.894081 C20.7580478,106.303219 24.5669782,109.021807 28.238837,107.52648 C31.9106957,106.031153 36.9428868,103.310488 36.9428868,103.310488 C36.9428868,103.310488 37.0778816,98.9491173 34.7663551,98.5503634 C32.4548287,98.1516096 29.4641745,100.86189 29.4641745,100.86189 Z" id="Path" fill="#575988"></path>
                        <path d="M10.423676,63.0529595 C10.423676,63.0529595 11.3748702,79.6448598 12.6002077,81.9522326 C13.8255452,84.2596054 18.4485981,91.3354102 18.4485981,91.3354102 C18.4485981,91.3354102 23.7528557,95.1443406 24.0249221,96.0955348 C24.2969886,97.046729 28.6479751,100.311526 28.6479751,100.311526 L28.9200415,102.215992 C28.9200415,102.215992 36.1287643,101.800623 35.7196262,99.3603323 C35.3104881,96.9200415 31.5036345,94.6002077 31.5036345,94.6002077 C31.5036345,94.6002077 29.0550363,88.2076843 23.0716511,86.4402908 C23.0716511,86.4402908 21.1671859,83.7196262 22.7995846,81.5451713 C22.7995846,81.5451713 26.8805815,71.3457944 29.192108,70.1225337 C31.5036345,68.8992731 28.238837,61.8338525 28.238837,61.8338525 L10.423676,63.0529595 Z" id="Path" fill="#67647E"></path>
                        <path d="M10.423676,63.0529595 C10.423676,63.0529595 11.3748702,79.6448598 12.6002077,81.9522326 C13.8255452,84.2596054 18.4485981,91.3354102 18.4485981,91.3354102 C18.4485981,91.3354102 23.7528557,95.1443406 24.0249221,96.0955348 C24.2969886,97.046729 28.6479751,100.311526 28.6479751,100.311526 L28.9200415,102.215992 C28.9200415,102.215992 36.1287643,101.800623 35.7196262,99.3603323 C35.3104881,96.9200415 31.5036345,94.6002077 31.5036345,94.6002077 C31.5036345,94.6002077 29.0550363,88.2076843 23.0716511,86.4402908 C23.0716511,86.4402908 21.1671859,83.7196262 22.7995846,81.5451713 C22.7995846,81.5451713 26.8805815,71.3457944 29.192108,70.1225337 C31.5036345,68.8992731 28.238837,61.8338525 28.238837,61.8338525 L10.423676,63.0529595 Z" id="Path" fill="#000000" opacity="0.05"></path>
                        <path d="M23.7507788,101.268951 L28.1121495,110.380062 C27.4330218,112.691589 20.9034268,111.875389 20.9034268,111.875389 C20.9034268,111.875389 15.8712357,105.075805 15.5991693,102.627207 C15.3271028,100.178609 11.9273105,98.1391485 11.9273105,98.1391485 C7.03219107,92.834891 10.2949117,86.5794393 10.7040498,83.3146417 C10.7040498,83.2523364 10.7227414,83.1838006 10.7331256,83.1069574 C11.0944964,80.9179647 13.2959502,74.6209761 15.007269,69.9044652 C16.1619938,66.7268951 17.0944964,64.2679128 17.0944964,64.2679128 C17.0944964,64.2679128 26.2056075,64.6832814 28.1017653,67.9397715 C28.9740395,69.4350987 28.5835929,70.9906542 27.9044652,72.2367601 C27.3730944,73.1784179 26.6943755,74.0289201 25.894081,74.7559709 L22.7975078,82.2201454 C22.7975078,82.2201454 17.3603323,92.1557632 19.4080997,92.9740395 C21.4558671,93.7923157 23.7507788,101.268951 23.7507788,101.268951 Z" id="Path" fill="#67647E"></path>
                        <path d="M7.50986501,20.6292835 C7.46683541,21.2373506 7.2910228,21.8285914 6.99480789,22.3613707 L6.83904465,22.6417445 L6.07268951,24.0228453 L3.62409138,24.0228453 L3.5721703,23.3790239 L3.07995846,17.2232606 C3.07995846,17.2232606 3.75908619,10.423676 6.07268951,11.3748702 C7.92731049,12.1391485 7.68016615,18.2492212 7.50986501,20.6292835 Z" id="Path" fill="#F7C4A7"></path>
                        <path d="M6.83904465,22.6396677 L6.07268951,24.0207684 L3.62409138,24.0207684 L3.5721703,23.376947 C4.71235722,23.2772586 6.06853583,23.0695742 6.83904465,22.6396677 Z" id="Path" fill="#000000" opacity="0.1"></path>
                        <path d="M7.0238837,22.662513 L7.0238837,25.7902388 L1.99169263,27.1505711 C1.99169263,27.1505711 1.99169263,26.8245067 1.97715472,26.3717549 C1.94807892,25.4164071 1.85877466,23.8920042 1.58255452,23.615784 C1.58463136,23.6199377 5.6635514,23.6199377 7.0238837,22.662513 Z" id="Path" fill="#E6E6F0"></path>
                        <path d="M7.0238837,24.4963655 L7.0238837,25.7902388 L1.99169263,27.1505711 C1.99169263,27.1505711 1.99169263,26.8245067 1.97715472,26.3717549 C3.65316719,26.07892 6.07268951,24.9595016 7.0238837,24.4963655 Z" id="Path" fill="#000000" opacity="0.1"></path>
                        <path d="M36.3738318,29.6573209 C35.3811007,32.5233645 36.6708204,33.8110073 36.6708204,33.8110073 C36.6708204,33.8110073 24.4299065,34.6272066 27.4226376,32.450675 C29.1692627,31.1796469 29.9439252,28.3759086 30.2845275,26.2658359 C30.4293994,25.3903834 30.5188814,24.5066613 30.5524403,23.6199377 C30.5524403,23.6199377 40.3343718,23.4766355 38.305296,26.2035306 C37.4900964,27.2502139 36.8388283,28.4147934 36.3738318,29.6573209 L36.3738318,29.6573209 Z" id="Path" fill="#F7C4A7"></path>
                        <path d="M38.3073728,26.1973001 C37.3104881,27.5389408 36.9844237,27.7362409 36.6458982,28.7040498 C36.3398812,28.7559052 36.0300048,28.7816124 35.7196262,28.7809077 C33.3873313,28.7809077 31.1173416,28.3011423 30.2845275,26.2679128 C30.4294863,25.3917745 30.5189686,24.5073559 30.5524403,23.6199377 C30.5524403,23.6199377 40.3322949,23.470405 38.3073728,26.1973001 Z" id="Path" fill="#000000" opacity="0.1"></path>
                        <circle id="Oval" fill="#F7C4A7" cx="35.4475597" cy="23.6137072" r="5.57632399"></circle>
                        <path d="M7.43094496,24.5649013 C7.43094496,24.5649013 2.12668744,27.2855659 0.631360332,26.6043614 L4.30321911,36.6687435 C4.30321911,36.6687435 4.57528557,39.1173416 9.33541018,40.1993769 C14.0955348,41.2814123 16.4070613,42.238837 16.4070613,42.238837 L25.2461059,31.7673936 L20.7580478,32.9906542 C20.7580478,32.9906542 18.4465213,36.2554517 16.8120457,35.1671859 C15.1775701,34.07892 10.1516096,34.6272066 10.1516096,34.6272066 C10.1516096,34.6272066 7.29595016,26.8785047 7.43094496,24.5649013 Z" id="Path" fill="#575988"></path>
                        <path d="M7.43094496,24.5649013 C7.43094496,24.5649013 2.12668744,27.2855659 0.631360332,26.6043614 L4.30321911,36.6687435 C4.30321911,36.6687435 4.57528557,39.1173416 9.33541018,40.1993769 C14.0955348,41.2814123 16.4070613,42.238837 16.4070613,42.238837 L25.2461059,31.7673936 L20.7580478,32.9906542 C20.7580478,32.9906542 18.4465213,36.2554517 16.8120457,35.1671859 C15.1775701,34.07892 10.1516096,34.6272066 10.1516096,34.6272066 C10.1516096,34.6272066 7.29595016,26.8785047 7.43094496,24.5649013 Z" id="Path" fill="#000000" opacity="0.05"></path>
                        <path d="M28.1038422,30.9865005 C28.1038422,30.9865005 35.2938733,28.9304258 36.0498442,32.7497404 C36.0498442,32.7497404 32.7268951,31.1298027 27.9667705,33.9958463 C27.6095535,34.2035306 27.2606438,34.4382139 26.9283489,34.6770509 C22.7393562,37.6116303 19.8130841,42.1536864 18.6375909,47.3125649 L15.5991693,60.6251298 L15.3271028,64.2035306 C15.3271028,64.2035306 10.9657321,65.0633437 10.1599169,63.7736241 C9.35410177,62.4839045 9.88785047,58.1889927 11.1111111,56.7580478 C12.3343718,55.3271028 14.2326064,49.165109 14.2326064,49.165109 L15.4226376,45.5929387 C16.418804,42.5884064 18.0022742,39.8118622 20.0809969,37.4247144 L20.0809969,37.4247144 L20.3676012,37.0778816 C22.1590135,34.9280515 24.4305109,33.2292304 26.9989616,32.1183801 C27.694704,31.8172378 28.1993769,31.4371755 28.1038422,30.9865005 Z" id="Path" fill="#000000" opacity="0.1"></path>
                        <path d="M28.1038422,30.7144341 C28.1038422,30.7144341 35.2938733,28.6583593 36.0498442,32.4776739 C36.0498442,32.4776739 32.7268951,30.8577362 27.9667705,33.7237799 C27.6095535,33.9314642 27.2606438,34.1661475 26.9283489,34.4049844 C22.7393562,37.3395639 19.8130841,41.8816199 18.6375909,47.0404984 L15.5991693,60.3530633 L15.3271028,63.9314642 C15.3271028,63.9314642 10.9657321,64.7912773 10.1599169,63.5015576 C9.35410177,62.211838 9.88785047,57.9169263 11.1111111,56.4859813 C12.3343718,55.0550363 14.238837,48.8971963 14.238837,48.8971963 L15.4288681,45.325026 C16.4250345,42.3204936 18.0085048,39.5439494 20.0872274,37.1568017 L20.0872274,37.1568017 L20.3738318,36.8099688 C22.165244,34.6601388 24.4367415,32.9613177 27.0051921,31.8504673 C27.694704,31.5451713 28.1993769,31.165109 28.1038422,30.7144341 Z" id="Path" fill="#E6E6F0"></path>
                        <path d="M10.0228453,58.1287643 L10.0830737,60.4714434 L11.9875389,59.2481828 C11.9875389,59.2481828 15.3790239,46.9055036 17.7673936,43.5410177 C18.0477674,43.1443406 18.1827622,42.5524403 18.4465213,42.4527518 L28.1703011,33.0695742 L28.1703011,30.8888889 C28.1703011,30.8888889 23.2066459,34.5607477 22.7975078,35.2502596 C22.623053,35.5389408 20.0166147,36.9636552 18.4361371,39.1962617 C17.028632,41.2517134 15.7789466,43.4108921 14.6978193,45.655244 L11.4330218,52.9989616 L10.0228453,58.1287643 Z" id="Path" fill="#000000" opacity="0.1"></path>
                        <path d="M28.172378,30.7538941 L28.172378,32.8618899 L18.3115265,42.3115265 C18.0498442,42.411215 17.9127726,43.0031153 17.6323988,43.3997923 C15.2419522,46.7663551 11.8525441,59.1069574 11.8525441,59.1069574 L9.94807892,60.3302181 L9.88785047,57.9875389 L11.3084112,52.8535826 L14.5732087,45.509865 C15.6542938,43.2654906 16.903981,41.1063088 18.3115265,39.0508827 C19.8816199,36.8203531 22.490135,35.3956386 22.6728972,35.1048806 C23.0259605,34.5192108 26.8598131,31.7113188 27.9148494,30.9511942 L28.172378,30.7538941 Z" id="Path" fill="#787C9C"></path>
                        <path d="M33.5908619,17.694704 C33.1609553,17.4870197 32.674974,17.165109 32.674974,16.6853583 C32.674974,16.3343718 32.9511942,16.0436137 33.2419522,15.854621 C34.0186916,15.325026 33.9584631,14.3676012 34.8515057,14.6666667 C35.4496366,14.874351 35.9709242,15.2461059 36.5524403,15.4870197 C36.9596269,15.6554436 37.3919488,15.7551022 37.8317757,15.7819315 C38.1100177,15.7818871 38.3878169,15.8041111 38.662513,15.8483904 C38.88122,15.9056468 39.0909097,15.9930175 39.2855659,16.1079958 C40.525427,16.8016903 41.4462127,17.9511824 41.8525441,19.3125649 C42.2222222,20.5752856 42.184839,22.0706127 43.1360332,22.9781931 C43.3080375,23.1173924 43.4665751,23.2724533 43.6095535,23.4413292 C43.7314313,23.6302442 43.8127599,23.8424056 43.8483904,24.0643821 C44.0196949,24.8182099 43.9544253,25.6065218 43.6614746,26.3219107 C43.3604787,27.0386931 42.77177,27.5957426 42.03946,27.8566978 C41.7175493,27.9626168 41.3790239,27.9979232 41.0508827,28.0809969 C39.4890966,28.4755971 38.3821391,29.8463136 36.9574247,30.6022845 C36.8436973,30.6735738 36.7135144,30.7143454 36.5794393,30.7206646 C36.4326808,30.7042903 36.2939939,30.6450595 36.1806854,30.5503634 C35.6303219,30.1578401 35.1775701,29.5472482 35.192108,28.8701973 C35.2364466,28.447415 35.3597293,28.0367077 35.5555556,27.6593977 C35.8536576,26.953049 36.0818163,26.2191849 36.2367601,25.4683281 C36.286031,25.2958227 36.291031,25.1136818 36.251298,24.9387331 C36.1474559,24.6085151 35.7819315,24.4548287 35.5285566,24.2201454 C35.046729,23.7736241 34.9885774,23.0134995 35.1671859,22.3800623 C35.3457944,21.7466251 35.7196262,21.1879543 35.9979232,20.5919003 C36.0937594,20.4128458 36.1497295,20.2151793 36.1619938,20.0124611 C36.1619938,19.2170301 35.086189,18.7850467 34.6334372,18.2596054 C34.0436137,17.5410177 34.4319834,18.1100727 33.5908619,17.694704 Z" id="Path" fill="#000000" opacity="0.1"></path>
                        <path d="M33.7279335,17.694704 C33.298027,17.4870197 32.8120457,17.165109 32.8120457,16.6853583 C32.8120457,16.3343718 33.0882658,16.0436137 33.3790239,15.854621 C34.1557632,15.325026 34.0955348,14.3676012 34.9885774,14.6666667 C35.5867082,14.874351 36.1079958,15.2461059 36.6895119,15.4870197 C37.0966985,15.6554436 37.5290204,15.7551022 37.9688474,15.7819315 C38.2492212,15.7985462 39.1568017,15.3665628 39.4226376,15.4330218 C39.6413446,15.4902782 39.8510343,15.5776489 40.0456906,15.6926272 C41.2855516,16.3863216 42.2063373,17.5358138 42.6126687,18.8971963 C42.9823468,20.1599169 42.7248183,21.7383178 43.6760125,22.635514 C43.8359294,22.7892004 43.6178609,23.258567 43.7466251,23.430945 C43.868503,23.61986 43.9498315,23.8320214 43.9854621,24.0539979 C44.1567666,24.8078257 44.091497,25.5961375 43.7985462,26.3115265 C43.4975503,27.0283089 42.9088417,27.5853584 42.1765317,27.8463136 C41.854621,27.9522326 41.5160955,27.9875389 41.1879543,28.0706127 C39.6261682,28.4652129 38.5192108,29.8359294 37.0944964,30.5919003 C36.980769,30.6631896 36.8505861,30.7039612 36.7165109,30.7102804 C36.5697524,30.6939061 36.4310656,30.6346753 36.317757,30.5399792 C35.7673936,30.1474559 35.3146417,29.536864 35.3291796,28.8598131 C35.3735183,28.4370308 35.4968009,28.0263235 35.6926272,27.6490135 C35.9907293,26.9426647 36.218888,26.2088006 36.3738318,25.4579439 C36.4231027,25.2854385 36.4281026,25.1032976 36.3883697,24.9283489 C36.2845275,24.5981308 35.9190031,24.4444444 35.6656282,24.2097612 C35.1838006,23.7632399 35.125649,23.0031153 35.3042575,22.3696781 C35.482866,21.7362409 35.8566978,21.1775701 36.1349948,20.5815161 C36.2308311,20.4024616 36.2868011,20.2047951 36.2990654,20.0020768 C36.2990654,19.2066459 35.2232606,18.7746625 34.7705088,18.2492212 C34.1806854,17.5410177 34.569055,18.1100727 33.7279335,17.694704 Z" id="Path" fill="#B96B6B"></path>
                        <path d="M27.9065421,72.2471443 C25.4143302,71.9522326 22.2741433,71.6635514 20.8951194,71.894081 C18.674974,72.2637591 15.5597092,70.2845275 14.9989616,69.9148494 C16.1536864,66.7372793 17.086189,64.278297 17.086189,64.278297 C17.086189,64.278297 26.1973001,64.6936656 28.0934579,67.9501558 C28.9761163,69.4454829 28.5856698,71.0010384 27.9065421,72.2471443 Z" id="Path" fill="#000000" opacity="0.1"></path>
                        <path d="M39.8006231,37.0778816 C39.2564901,41.8380062 33.8172378,48.5005192 33.8172378,48.5005192 C33.8172378,48.5005192 30.0083074,52.4465213 31.2336449,65.9086189 L31.3686397,72.4361371 C31.3686397,72.4361371 23.3437175,71.2128764 20.8971963,71.6199377 C18.450675,72.026999 14.913811,69.5804777 14.913811,69.5804777 C14.913811,69.5804777 13.5514019,46.0498442 19.4080997,41.1588785 C20.1267932,40.0452502 20.9089793,38.9739048 21.7507788,37.9501558 C23.3208723,36.0498442 25.4558671,33.9086189 27.4537902,33.3811007 C27.7108484,33.311705 27.9748667,33.2713011 28.2409138,33.2606438 C28.2409138,33.2606438 34.3613707,29.8608515 35.9937695,32.4444444 C35.9916926,32.4548287 40.3426791,32.317757 39.8006231,37.0778816 Z" id="Path" fill="#575988"></path>
                        <path d="M14.98027,62.4423676 C14.98027,62.4423676 17.1568017,61.4911734 20.8286604,61.7632399 C24.5005192,62.0353063 31.0384216,58.7705088 31.0384216,58.7705088" id="Path" fill="#000000" opacity="0.1"></path>
                        <path d="M18.9241952,92.7788162 C18.9241952,92.7788162 19.05919,93.1941848 17.2917965,93.7300104 C15.5244029,94.2658359 14.98027,94.8182762 14.98027,94.8182762" id="Path" fill="#000000" opacity="0.05"></path>
                        <rect id="Rectangle" fill="#295FEC" transform="translate(13.580478, 9.761163) rotate(-180.000000) translate(-13.580478, -9.761163) " x="3.81931464" y="-2.89546165e-13" width="19.5223261" height="19.5223261" rx="2"></rect>
                        <path d="M24.3219107,17.5804777 C24.3125572,18.223061 24.1532554,18.854579 23.8566978,19.4247144 L23.0716511,20.9366563 L22.5275182,21.9750779 L19.1277259,22.2471443 C19.1277259,22.2471443 19.0571132,21.9667705 18.9698858,21.5036345 C18.7165109,20.1433022 18.3156802,17.2045691 19.1277259,15.1754933 C20.2159917,12.4548287 20.623053,7.15057113 22.6583593,8.37590862 C24.2824507,9.35202492 24.3592939,15.2066459 24.3219107,17.5804777 Z" id="Path" fill="#F7C4A7"></path>
                        <path d="M23.0716511,20.8930426 L23.0716511,20.9345794 L22.5275182,21.973001 L19.1277259,22.2450675 C19.1277259,22.2450675 19.0571132,21.9646937 18.9698858,21.5015576 C20.1869159,21.0384216 21.7819315,20.6064382 23.0716511,20.8930426 Z" id="Path" fill="#000000" opacity="0.1"></path>
                        <path d="M23.0716511,21.165109 L23.0716511,23.6199377 L18.1765317,26.2035306 C18.1765317,26.2035306 18.1204569,25.761163 18.0166147,25.1879543 C17.8380062,24.2056075 17.5181724,22.8390447 17.0882658,22.6687435 C17.0882658,22.662513 20.623053,20.6209761 23.0716511,21.165109 Z" id="Path" fill="#E6E6F0"></path>
                        <path d="M36.3136033,43.3956386 C35.1078921,44.4579205 33.5133111,44.9683671 31.9148494,44.8037383 C23.3042575,43.9293873 23.0716511,40.886812 23.0716511,40.886812 L21.7507788,37.9501558 C23.3208723,36.0498442 25.4558671,33.9086189 27.4537902,33.3811007 C28.8805815,35.6801661 30.1536864,37.3395639 30.1536864,37.3395639 C30.1536864,37.3395639 36.5462098,32.4444444 38.450675,37.0674974 C39.5534787,39.7694704 37.8920042,42.0020768 36.3136033,43.3956386 Z" id="Path" fill="#000000" opacity="0.05"></path>
                        <path d="M23.0716511,22.6645898 L23.0716511,23.6199377 L18.1765317,26.2035306 C18.1765317,26.2035306 18.1204569,25.761163 18.0166147,25.1879543 C20.1266874,24.5046729 22.2139148,23.2232606 23.0716511,22.6645898 Z" id="Path" fill="#000000" opacity="0.1"></path>
                        <path d="M23.615784,22.662513 C23.615784,22.662513 19.9439252,25.2461059 16.8161994,25.7902388 L23.2087227,39.933541 C23.2087227,39.933541 23.443406,42.9761163 32.0519211,43.8504673 C33.6496621,44.0142435 35.2432696,43.5038675 36.4485981,42.4423676 C38.026999,41.0488058 39.6843198,38.8161994 38.5752856,36.1246106 C36.6708204,31.5015576 30.278297,36.3966771 30.278297,36.3966771 C30.278297,36.3966771 23.7507788,27.8296989 23.615784,22.662513 Z" id="Path" fill="#575988"></path>
                    </g>
                </g>
            </g>
        </g>
    </g>
</svg>