<?xml version="1.0" encoding="UTF-8"?>
<svg width="168px" height="168px" viewBox="0 0 168 168" version="1.1" xmlns="http://www.w3.org/2000/svg" xmlns:xlink="http://www.w3.org/1999/xlink">
    <!-- Generator: sketchtool 55.2 (78181) - https://sketchapp.com -->
    <title>9147953F-77C5-4CF0-AFC5-8E981B035C96hdpi/</title>
    <desc>Created with sketchtool.</desc>
    <defs>
        <linearGradient x1="49.9990906%" y1="99.9986219%" x2="49.9990906%" y2="5.94155337e-06%" id="linearGradient-1">
            <stop stop-color="#808080" stop-opacity="0.25" offset="0%"></stop>
            <stop stop-color="#808080" stop-opacity="0.12" offset="54%"></stop>
            <stop stop-color="#808080" stop-opacity="0.1" offset="100%"></stop>
        </linearGradient>
    </defs>
    <g id="[flow]-onboarding---IDF" stroke="none" stroke-width="1" fill="none" fill-rule="evenodd">
        <g id="010-onboarding-idf---teacher" transform="translate(-558.000000, -181.000000)">
            <g id="modal" transform="translate(360.000000, 125.000000)">
                <g id="undraw_app_installation_mbdv" transform="translate(198.000000, 56.000000)">
                    <path d="M20.4361371,5.01557632 C12.9304258,6.35929387 4.31152648,8.75389408 1.27518172,16.1163032 C-1.49948079,22.847352 1.75700935,30.4299065 3.94807892,37.3956386 C6.10731676,44.2727398 7.22732125,51.4337685 7.27102804,58.6417445 C7.3271028,68.780893 5.35202492,79.4724818 9.36448598,88.6853583 C13.8920042,99.0799585 25.0965732,105.09242 29.0238837,115.746625 C30.6708204,120.213915 30.8701973,125.102804 31.655244,129.823468 C33.3956386,140.284528 38.1495327,150.164071 45.1277259,157.817238 C49.7673936,162.905504 55.8089304,167.175493 62.5005192,167.277259 C67.576324,167.356179 72.3696781,165.05296 77.0716511,163.036345 C82.5571539,160.684601 88.1797174,158.666387 93.9086189,156.992731 C96.3219107,156.288681 98.807892,155.640706 101.304258,155.860852 C106.114226,156.27622 110.126687,159.806854 114.691589,161.468328 C127.063344,165.954309 139.852544,156.205607 152.905504,155.17757 C164.095535,154.294912 173.734375,130.118266 161.154297,104.296875 C148.574219,78.4754835 152.733126,67.761163 154.992731,53.3665628 C155.773624,48.4132918 157.692627,43.7258567 158.562825,38.7892004 C159.433022,33.8525441 159.075805,28.2616822 155.883697,24.5358255 C153.977155,22.3094496 151.302181,21.0238837 148.706127,19.7985462 C124.494289,8.36967809 98.5524403,-3.33333333 72.3385254,0.992731049 C68.0706127,1.69678089 63.8463136,2.82658359 59.5285566,2.98026999 C53.2793354,3.20456906 47.3977155,0.411214953 41.2938733,1.31879543 C34.3634476,2.34267913 27.3603323,3.77570093 20.4361371,5.01557632 Z" id="Path" fill="#295FEC" fill-rule="nonzero" opacity="0.1"></path>
                    <path d="M39.5867082,35.482866 C39.5867082,35.482866 31.0446521,30.7933541 28.5109034,23.6095535 C27.4682465,20.5887343 25.4736074,17.98776 22.8265836,16.1973001 C21.5634162,15.3567683 20.2258736,14.6337723 18.8307373,14.0373832" id="Path" stroke="#535461" stroke-width="2"></path>
                    <path d="M17.2107996,9.52024922 C18.0186916,10.3322949 18.8888889,14.1516096 18.8888889,14.1516096 C18.8888889,14.1516096 15.0758048,13.258567 14.2679128,12.4444444 C13.5269063,11.6215474 13.5618683,10.3619996 14.347382,9.58147509 C15.1328956,8.80095059 16.3926406,8.7740146 17.2107996,9.52024922 Z" id="Path" fill="#295FEC" fill-rule="nonzero"></path>
                    <path d="M24.1163032,11.6033229 C24.3530633,12.7248183 23.0093458,16.4029076 23.0093458,16.4029076 C23.0093458,16.4029076 20.2949117,13.5804777 20.0581516,12.4569055 C19.8787011,11.361127 20.5929124,10.3180284 21.6794227,10.0890554 C22.7659329,9.86008242 23.840356,10.5262411 24.1183801,11.6012461 L24.1163032,11.6033229 Z" id="Path" fill="#295FEC" fill-rule="nonzero"></path>
                    <path d="M31.655244,19.3997923 C31.2938733,20.4859813 28.2762201,22.9844237 28.2762201,22.9844237 C28.2762201,22.9844237 27.3582555,19.1775701 27.7196262,18.0893043 C28.0815075,16.9996459 29.2582129,16.409666 30.3478712,16.7715472 C31.4375296,17.1334285 32.0275095,18.3101339 31.6656282,19.3997923 L31.655244,19.3997923 Z" id="Path" fill="#295FEC" fill-rule="nonzero"></path>
                    <path d="M36.03946,26.5835929 C35.867082,27.7154725 33.3146417,30.6874351 33.3146417,30.6874351 C33.3146417,30.6874351 31.7653167,27.0903427 31.9376947,25.9584631 C32.0159308,25.1964751 32.5072471,24.539413 33.2160138,24.2489024 C33.9247804,23.9583917 34.7359164,24.0816022 35.3264476,24.5694746 C35.9169789,25.0573469 36.1910221,25.8306662 36.03946,26.5815161 L36.03946,26.5835929 Z" id="Path" fill="#295FEC" fill-rule="nonzero"></path>
                    <path d="M20.0768432,19.6323988 C21.2232606,19.6199377 24.5212876,17.5057113 24.5212876,17.5057113 C24.5212876,17.5057113 21.1754933,15.470405 20.0290758,15.482866 C18.882067,15.4960566 17.9629257,16.4365841 17.9761163,17.5835929 C17.9893069,18.7306018 18.9298344,19.649743 20.0768432,19.6365524 L20.0768432,19.6323988 Z" id="Path" fill="#295FEC" fill-rule="nonzero"></path>
                    <path d="M25.3001038,27.9688474 C26.3883697,27.6137072 28.9034268,24.6105919 28.9034268,24.6105919 C28.9034268,24.6105919 25.1007269,23.6697819 24.0124611,24.0249221 C22.9644912,24.4108454 22.4093319,25.5564133 22.7557735,26.6180892 C23.1022151,27.6797652 24.2262087,28.2773989 25.3001038,27.9709242 L25.3001038,27.9688474 Z" id="Path" fill="#295FEC" fill-rule="nonzero"></path>
                    <path d="M31.4890966,35.3748702 C32.623053,35.2087227 35.6095535,32.674974 35.6095535,32.674974 C35.6095535,32.674974 32.0207684,31.1048806 30.8888889,31.271028 C30.1296446,31.3492837 29.4745061,31.8376946 29.1827234,32.5429879 C28.8909407,33.2482813 29.0095384,34.05679 29.4915851,34.6485727 C29.9736319,35.2403554 30.7414397,35.5200387 31.4911734,35.376947 L31.4890966,35.3748702 Z" id="Path" fill="#295FEC" fill-rule="nonzero"></path>
                    <path d="M31.9023884,64.1433022 C31.9023884,64.1433022 23.3603323,59.4537902 20.8265836,52.2699896 C19.7839266,49.2491705 17.7892876,46.6481961 15.1422638,44.8577362 C13.8790964,44.0172045 12.5415538,43.2942085 11.1464174,42.6978193" id="Path" stroke="#535461" stroke-width="2"></path>
                    <path d="M9.52647975,38.1806854 C10.3343718,38.992731 11.2045691,42.8120457 11.2045691,42.8120457 C11.2045691,42.8120457 7.39148494,41.9190031 6.58359294,41.1048806 C5.84258646,40.2819835 5.87754851,39.0224357 6.66306216,38.2419112 C7.44857581,37.4613867 8.7083208,37.4344507 9.52647975,38.1806854 L9.52647975,38.1806854 Z" id="Path" fill="#295FEC" fill-rule="nonzero"></path>
                    <path d="M16.4319834,40.2637591 C16.6687435,41.3852544 15.325026,45.0633437 15.325026,45.0633437 C15.325026,45.0633437 12.6105919,42.2409138 12.3738318,41.1173416 C12.1943812,40.0215631 12.9085926,38.9784646 13.9951028,38.7494916 C15.0816131,38.5205186 16.1560362,39.1866772 16.4340602,40.2616822 L16.4319834,40.2637591 Z" id="Path" fill="#295FEC" fill-rule="nonzero"></path>
                    <path d="M23.9709242,48.0602285 C23.6095535,49.1464174 20.5919003,51.6448598 20.5919003,51.6448598 C20.5919003,51.6448598 19.6739356,47.8380062 20.0353063,46.7497404 C20.2694025,46.044855 20.8617681,45.5184028 21.5892648,45.3686933 C22.3167616,45.2189839 23.0688653,45.4687615 23.5622659,46.0239374 C24.0556665,46.5791133 24.2154046,47.3553431 23.9813084,48.0602285 L23.9709242,48.0602285 Z" id="Path" fill="#295FEC" fill-rule="nonzero"></path>
                    <path d="M28.3551402,55.2440291 C28.1827622,56.3759086 25.6303219,59.3478712 25.6303219,59.3478712 C25.6303219,59.3478712 24.0809969,55.7507788 24.2533749,54.6188993 C24.331611,53.8569113 24.8229273,53.1998491 25.5316939,52.9093385 C26.2404606,52.6188279 27.0515965,52.7420384 27.6421278,53.2299107 C28.2326591,53.7177831 28.5067022,54.4911023 28.3551402,55.2419522 L28.3551402,55.2440291 Z" id="Path" fill="#295FEC" fill-rule="nonzero"></path>
                    <path d="M12.3925234,48.2928349 C13.5389408,48.2803738 16.8369678,46.1661475 16.8369678,46.1661475 C16.8369678,46.1661475 13.4911734,44.1308411 12.344756,44.1433022 C11.1977472,44.1564928 10.2786059,45.0970203 10.2917965,46.2440291 C10.3049871,47.3910379 11.2455146,48.3101791 12.3925234,48.2969886 L12.3925234,48.2928349 Z" id="Path" fill="#295FEC" fill-rule="nonzero"></path>
                    <path d="M17.615784,56.6292835 C18.7040498,56.2741433 21.219107,53.271028 21.219107,53.271028 C21.219107,53.271028 17.4164071,52.3302181 16.3281412,52.6853583 C15.5968115,52.8940696 15.0380521,53.4858256 14.8715981,54.227915 C14.7051441,54.9700044 14.9576211,55.7437243 15.5297412,56.2448053 C16.1018614,56.7458864 16.9021096,56.8941767 17.615784,56.6313603 L17.615784,56.6292835 Z" id="Path" fill="#295FEC" fill-rule="nonzero"></path>
                    <path d="M23.8047767,64.0353063 C24.9387331,63.8691589 27.9252336,61.3354102 27.9252336,61.3354102 C27.9252336,61.3354102 24.3364486,59.7653167 23.2045691,59.9314642 C22.4453248,60.0097198 21.7901863,60.4981307 21.4984036,61.2034241 C21.2066209,61.9087174 21.3252185,62.7172261 21.8072653,63.3090088 C22.289312,63.9007915 23.0571199,64.1804749 23.8068536,64.0373832 L23.8047767,64.0353063 Z" id="Path" fill="#295FEC" fill-rule="nonzero"></path>
                    <path d="M130.926272,-8.99229221e-06 L34.4423676,-8.99229221e-06 C32.0981065,-0.00330720895 29.8485467,0.924776338 28.1885669,2.58008236 C26.528587,4.23538839 25.5941644,6.48232248 25.5908619,8.82658359 L25.5908619,142.517134 C25.593614,144.861755 26.5277938,147.109223 28.1878333,148.764978 C29.8478729,150.420733 32.0977471,151.349101 34.4423676,151.345803 L130.926272,151.345803 C133.270533,151.349102 135.520093,150.421018 137.180073,148.765712 C138.840053,147.110406 139.774475,144.863472 139.777778,142.519211 L139.777778,8.82450675 C139.769755,3.94364672 135.807134,-0.00688751477 130.926272,-8.99229221e-06 Z" id="Path" fill="url(#linearGradient-1)" fill-rule="nonzero"></path>
                    <rect id="Rectangle" fill="#535461" fill-rule="nonzero" x="27" y="2" width="111.468328" height="148.170301" rx="8"></rect>
                    <rect id="Rectangle" fill="#39B54A" x="32.6147456" y="15.8296989" width="100.141225" height="120.139148"></rect>
                    <circle id="Oval" fill="#FFFFFF" fill-rule="nonzero" cx="82.2326064" cy="8.60851506" r="1.36033229"></circle>
                    <circle id="Oval" fill="#FFFFFF" fill-rule="nonzero" cx="82.2326064" cy="142.733126" r="4.07892004"></circle>
                    <path d="M138.566978,127.046729 C138.566978,127.046729 138.701973,127.462098 136.934579,127.997923 C135.167186,128.533749 134.623053,129.086189 134.623053,129.086189" id="Path" fill="#000000" fill-rule="nonzero" opacity="0.05"></path>
                    <g id="check" transform="translate(51.000000, 52.000000)" fill-rule="nonzero">
                        <path d="M55.4890548,3.58253873 L22.3390542,36.2345733 L8.40597672,22.5106602 C6.54596798,20.6785776 3.5302844,20.6785636 1.67025807,22.5106288 L1.16971959,21.7732188 C-0.690313562,23.6052918 -0.18978733,27.3131008 1.67024092,29.145181 L19.74827,46.9515808 C21.1669655,48.3489585 23.4669356,48.3495482 24.8863694,46.9528981 L62.2213441,10.2171489 C64.0825702,8.38579483 64.7577345,5.02760753 62.8974564,3.19532219 L62.8974564,3.19532219 C61.0378935,1.36373895 57.3485907,1.75093619 55.4890548,3.58253873 Z" id="Path" fill="#57B894"></path>
                        <path d="M55.4890548,3.58253873 L22.3390542,36.2345733 L8.40597672,22.5106602 C6.54596798,20.6785776 3.5302844,20.6785636 1.67025807,22.5106288 L1.16971959,21.7732188 C-0.690313562,23.6052918 -0.18978733,27.3131008 1.67024092,29.145181 L19.74827,46.9515808 C21.1669655,48.3489585 23.4669356,48.3495482 24.8863694,46.9528981 L62.2213441,10.2171489 C64.0825702,8.38579483 64.7577345,5.02760753 62.8974564,3.19532219 L62.8974564,3.19532219 C61.0378935,1.36373895 57.3485907,1.75093619 55.4890548,3.58253873 Z" id="Path" fill="#000000" opacity="0.1"></path>
                        <path d="M55.7869016,1.37998921 L22.2928268,34.1809268 L8.21513345,20.3944285 C6.33581909,18.5539911 3.28883478,18.553977 1.40950265,20.394397 L1.40950265,20.394397 C0.507013592,21.2782024 0,22.4769034 0,23.7267972 C0,24.9766911 0.507013592,26.175392 1.40950265,27.0591974 L19.6751693,44.9467997 C21.1085899,46.3505499 23.432432,46.3511422 24.8665987,44.9481231 L62.5890848,8.04484786 C63.4921276,7.16141583 64,5.9627629 64,4.71274945 C64,3.46273599 63.4934007,2.26383017 62.5908172,1.37994801 L62.5908172,1.37994801 C60.7119531,-0.459998761 57.6657424,-0.459980314 55.7869016,1.37998921 Z" id="Path" fill="#FFFFFF"></path>
                    </g>
                </g>
            </g>
        </g>
    </g>
</svg>