<?xml version="1.0" encoding="UTF-8"?>
<svg width="200px" height="168px" viewBox="0 0 200 168" version="1.1" xmlns="http://www.w3.org/2000/svg" xmlns:xlink="http://www.w3.org/1999/xlink">
    <!-- Generator: sketchtool 55.2 (78181) - https://sketchapp.com -->
    <title>7B903F06-0481-400C-A0F6-B01F8217D4DAhdpi/</title>
    <desc>Created with sketchtool.</desc>
    <defs>
        <linearGradient x1="49.9990906%" y1="99.9986219%" x2="49.9990906%" y2="5.94155337e-06%" id="linearGradient-1">
            <stop stop-color="#808080" stop-opacity="0.25" offset="0%"></stop>
            <stop stop-color="#808080" stop-opacity="0.12" offset="54%"></stop>
            <stop stop-color="#808080" stop-opacity="0.1" offset="100%"></stop>
        </linearGradient>
        <linearGradient x1="49.990264%" y1="99.9993906%" x2="49.990264%" y2="0.00841935186%" id="linearGradient-2">
            <stop stop-color="#808080" stop-opacity="0.25" offset="0%"></stop>
            <stop stop-color="#808080" stop-opacity="0.12" offset="54%"></stop>
            <stop stop-color="#808080" stop-opacity="0.1" offset="100%"></stop>
        </linearGradient>
    </defs>
    <g id="[flow]-onboarding---IDF" stroke="none" stroke-width="1" fill="none" fill-rule="evenodd">
        <g id="003-onboarding-idf---teacher" transform="translate(-558.000000, -188.000000)">
            <g id="modal" transform="translate(360.000000, 132.000000)">
                <g id="undraw_app_installation_mbdv" transform="translate(198.000000, 56.000000)">
                    <path d="M20.4361371,5.01557632 C12.9304258,6.35929387 4.31152648,8.75389408 1.27518172,16.1163032 C-1.49948079,22.847352 1.75700935,30.4299065 3.94807892,37.3956386 C6.10731676,44.2727398 7.22732125,51.4337685 7.27102804,58.6417445 C7.3271028,68.780893 5.35202492,79.4724818 9.36448598,88.6853583 C13.8920042,99.0799585 25.0965732,105.09242 29.0238837,115.746625 C30.6708204,120.213915 30.8701973,125.102804 31.655244,129.823468 C33.3956386,140.284528 38.1495327,150.164071 45.1277259,157.817238 C49.7673936,162.905504 55.8089304,167.175493 62.5005192,167.277259 C67.576324,167.356179 72.3696781,165.05296 77.0716511,163.036345 C82.5571539,160.684601 88.1797174,158.666387 93.9086189,156.992731 C96.3219107,156.288681 98.807892,155.640706 101.304258,155.860852 C106.114226,156.27622 110.126687,159.806854 114.691589,161.468328 C127.063344,165.954309 139.852544,156.205607 152.905504,155.17757 C164.095535,154.294912 175.33541,159.92108 186.330218,157.57217 C187.950156,157.225337 189.682243,156.596054 190.531672,155.100727 C191.937695,152.623053 190.193146,149.194185 191.443406,146.62513 C192.693666,144.056075 196.068536,143.790239 198.049844,141.835929 C200.066459,139.846314 200.23053,136.411215 199.202492,133.709242 C198.174455,131.007269 196.19107,128.855659 194.284528,126.751817 C184.847784,116.330811 176.159466,105.25579 168.284528,93.6095535 C160.251298,81.7320872 152.733126,67.761163 154.992731,53.3665628 C155.773624,48.4132918 157.692627,43.7258567 158.562825,38.7892004 C159.433022,33.8525441 159.075805,28.2616822 155.883697,24.5358255 C153.977155,22.3094496 151.302181,21.0238837 148.706127,19.7985462 C124.494289,8.36967809 98.5524403,-3.33333333 72.3385254,0.992731049 C68.0706127,1.69678089 63.8463136,2.82658359 59.5285566,2.98026999 C53.2793354,3.20456906 47.3977155,0.411214953 41.2938733,1.31879543 C34.3634476,2.34267913 27.3603323,3.77570093 20.4361371,5.01557632 Z" id="Path" fill="#295FEC" fill-rule="nonzero" opacity="0.1"></path>
                    <path d="M39.5867082,35.482866 C39.5867082,35.482866 31.0446521,30.7933541 28.5109034,23.6095535 C27.4682465,20.5887343 25.4736074,17.98776 22.8265836,16.1973001 C21.5634162,15.3567683 20.2258736,14.6337723 18.8307373,14.0373832" id="Path" stroke="#535461" stroke-width="2"></path>
                    <path d="M17.2107996,9.52024922 C18.0186916,10.3322949 18.8888889,14.1516096 18.8888889,14.1516096 C18.8888889,14.1516096 15.0758048,13.258567 14.2679128,12.4444444 C13.5269063,11.6215474 13.5618683,10.3619996 14.347382,9.58147509 C15.1328956,8.80095059 16.3926406,8.7740146 17.2107996,9.52024922 Z" id="Path" fill="#295FEC" fill-rule="nonzero"></path>
                    <path d="M24.1163032,11.6033229 C24.3530633,12.7248183 23.0093458,16.4029076 23.0093458,16.4029076 C23.0093458,16.4029076 20.2949117,13.5804777 20.0581516,12.4569055 C19.8787011,11.361127 20.5929124,10.3180284 21.6794227,10.0890554 C22.7659329,9.86008242 23.840356,10.5262411 24.1183801,11.6012461 L24.1163032,11.6033229 Z" id="Path" fill="#295FEC" fill-rule="nonzero"></path>
                    <path d="M31.655244,19.3997923 C31.2938733,20.4859813 28.2762201,22.9844237 28.2762201,22.9844237 C28.2762201,22.9844237 27.3582555,19.1775701 27.7196262,18.0893043 C28.0815075,16.9996459 29.2582129,16.409666 30.3478712,16.7715472 C31.4375296,17.1334285 32.0275095,18.3101339 31.6656282,19.3997923 L31.655244,19.3997923 Z" id="Path" fill="#295FEC" fill-rule="nonzero"></path>
                    <path d="M36.03946,26.5835929 C35.867082,27.7154725 33.3146417,30.6874351 33.3146417,30.6874351 C33.3146417,30.6874351 31.7653167,27.0903427 31.9376947,25.9584631 C32.0159308,25.1964751 32.5072471,24.539413 33.2160138,24.2489024 C33.9247804,23.9583917 34.7359164,24.0816022 35.3264476,24.5694746 C35.9169789,25.0573469 36.1910221,25.8306662 36.03946,26.5815161 L36.03946,26.5835929 Z" id="Path" fill="#295FEC" fill-rule="nonzero"></path>
                    <path d="M20.0768432,19.6323988 C21.2232606,19.6199377 24.5212876,17.5057113 24.5212876,17.5057113 C24.5212876,17.5057113 21.1754933,15.470405 20.0290758,15.482866 C18.882067,15.4960566 17.9629257,16.4365841 17.9761163,17.5835929 C17.9893069,18.7306018 18.9298344,19.649743 20.0768432,19.6365524 L20.0768432,19.6323988 Z" id="Path" fill="#295FEC" fill-rule="nonzero"></path>
                    <path d="M25.3001038,27.9688474 C26.3883697,27.6137072 28.9034268,24.6105919 28.9034268,24.6105919 C28.9034268,24.6105919 25.1007269,23.6697819 24.0124611,24.0249221 C22.9644912,24.4108454 22.4093319,25.5564133 22.7557735,26.6180892 C23.1022151,27.6797652 24.2262087,28.2773989 25.3001038,27.9709242 L25.3001038,27.9688474 Z" id="Path" fill="#295FEC" fill-rule="nonzero"></path>
                    <path d="M31.4890966,35.3748702 C32.623053,35.2087227 35.6095535,32.674974 35.6095535,32.674974 C35.6095535,32.674974 32.0207684,31.1048806 30.8888889,31.271028 C30.1296446,31.3492837 29.4745061,31.8376946 29.1827234,32.5429879 C28.8909407,33.2482813 29.0095384,34.05679 29.4915851,34.6485727 C29.9736319,35.2403554 30.7414397,35.5200387 31.4911734,35.376947 L31.4890966,35.3748702 Z" id="Path" fill="#295FEC" fill-rule="nonzero"></path>
                    <path d="M31.9023884,64.1433022 C31.9023884,64.1433022 23.3603323,59.4537902 20.8265836,52.2699896 C19.7839266,49.2491705 17.7892876,46.6481961 15.1422638,44.8577362 C13.8790964,44.0172045 12.5415538,43.2942085 11.1464174,42.6978193" id="Path" stroke="#535461" stroke-width="2"></path>
                    <path d="M9.52647975,38.1806854 C10.3343718,38.992731 11.2045691,42.8120457 11.2045691,42.8120457 C11.2045691,42.8120457 7.39148494,41.9190031 6.58359294,41.1048806 C5.84258646,40.2819835 5.87754851,39.0224357 6.66306216,38.2419112 C7.44857581,37.4613867 8.7083208,37.4344507 9.52647975,38.1806854 L9.52647975,38.1806854 Z" id="Path" fill="#295FEC" fill-rule="nonzero"></path>
                    <path d="M16.4319834,40.2637591 C16.6687435,41.3852544 15.325026,45.0633437 15.325026,45.0633437 C15.325026,45.0633437 12.6105919,42.2409138 12.3738318,41.1173416 C12.1943812,40.0215631 12.9085926,38.9784646 13.9951028,38.7494916 C15.0816131,38.5205186 16.1560362,39.1866772 16.4340602,40.2616822 L16.4319834,40.2637591 Z" id="Path" fill="#295FEC" fill-rule="nonzero"></path>
                    <path d="M23.9709242,48.0602285 C23.6095535,49.1464174 20.5919003,51.6448598 20.5919003,51.6448598 C20.5919003,51.6448598 19.6739356,47.8380062 20.0353063,46.7497404 C20.2694025,46.044855 20.8617681,45.5184028 21.5892648,45.3686933 C22.3167616,45.2189839 23.0688653,45.4687615 23.5622659,46.0239374 C24.0556665,46.5791133 24.2154046,47.3553431 23.9813084,48.0602285 L23.9709242,48.0602285 Z" id="Path" fill="#295FEC" fill-rule="nonzero"></path>
                    <path d="M28.3551402,55.2440291 C28.1827622,56.3759086 25.6303219,59.3478712 25.6303219,59.3478712 C25.6303219,59.3478712 24.0809969,55.7507788 24.2533749,54.6188993 C24.331611,53.8569113 24.8229273,53.1998491 25.5316939,52.9093385 C26.2404606,52.6188279 27.0515965,52.7420384 27.6421278,53.2299107 C28.2326591,53.7177831 28.5067022,54.4911023 28.3551402,55.2419522 L28.3551402,55.2440291 Z" id="Path" fill="#295FEC" fill-rule="nonzero"></path>
                    <path d="M12.3925234,48.2928349 C13.5389408,48.2803738 16.8369678,46.1661475 16.8369678,46.1661475 C16.8369678,46.1661475 13.4911734,44.1308411 12.344756,44.1433022 C11.1977472,44.1564928 10.2786059,45.0970203 10.2917965,46.2440291 C10.3049871,47.3910379 11.2455146,48.3101791 12.3925234,48.2969886 L12.3925234,48.2928349 Z" id="Path" fill="#295FEC" fill-rule="nonzero"></path>
                    <path d="M17.615784,56.6292835 C18.7040498,56.2741433 21.219107,53.271028 21.219107,53.271028 C21.219107,53.271028 17.4164071,52.3302181 16.3281412,52.6853583 C15.5968115,52.8940696 15.0380521,53.4858256 14.8715981,54.227915 C14.7051441,54.9700044 14.9576211,55.7437243 15.5297412,56.2448053 C16.1018614,56.7458864 16.9021096,56.8941767 17.615784,56.6313603 L17.615784,56.6292835 Z" id="Path" fill="#295FEC" fill-rule="nonzero"></path>
                    <path d="M23.8047767,64.0353063 C24.9387331,63.8691589 27.9252336,61.3354102 27.9252336,61.3354102 C27.9252336,61.3354102 24.3364486,59.7653167 23.2045691,59.9314642 C22.4453248,60.0097198 21.7901863,60.4981307 21.4984036,61.2034241 C21.2066209,61.9087174 21.3252185,62.7172261 21.8072653,63.3090088 C22.289312,63.9007915 23.0571199,64.1804749 23.8068536,64.0373832 L23.8047767,64.0353063 Z" id="Path" fill="#295FEC" fill-rule="nonzero"></path>
                    <path d="M130.926272,-8.99229221e-06 L34.4423676,-8.99229221e-06 C32.0981065,-0.00330720895 29.8485467,0.924776338 28.1885669,2.58008236 C26.528587,4.23538839 25.5941644,6.48232248 25.5908619,8.82658359 L25.5908619,142.517134 C25.593614,144.861755 26.5277938,147.109223 28.1878333,148.764978 C29.8478729,150.420733 32.0977471,151.349101 34.4423676,151.345803 L130.926272,151.345803 C133.270533,151.349102 135.520093,150.421018 137.180073,148.765712 C138.840053,147.110406 139.774475,144.863472 139.777778,142.519211 L139.777778,8.82450675 C139.769755,3.94364672 135.807134,-0.00688751477 130.926272,-8.99229221e-06 Z" id="Path" fill="url(#linearGradient-1)" fill-rule="nonzero"></path>
                    <rect id="Rectangle" fill="#535461" fill-rule="nonzero" x="26.9511942" y="1.81308411" width="111.468328" height="148.170301" rx="8"></rect>
                    <rect id="Rectangle" fill="#F1F1F4" fill-rule="nonzero" x="32.6147456" y="15.8296989" width="100.141225" height="120.139148"></rect>
                    <circle id="Oval" fill="#FFFFFF" fill-rule="nonzero" cx="82.2326064" cy="8.60851506" r="1.36033229"></circle>
                    <rect id="Rectangle" fill="#295FEC" fill-rule="nonzero" x="44.6791277" y="31.4350987" width="19.5223261" height="19.5223261" rx="2"></rect>
                    <rect id="Rectangle" fill="#295FEC" fill-rule="nonzero" opacity="0.2" transform="translate(110.930426, 41.196262) rotate(-180.000000) translate(-110.930426, -41.196262) " x="101.169263" y="31.4350987" width="19.5223261" height="19.5223261" rx="2"></rect>
                    <rect id="Rectangle" fill="#295FEC" fill-rule="nonzero" x="72.9241952" y="31.4350987" width="19.5223261" height="19.5223261" rx="2"></rect>
                    <rect id="Rectangle" fill="#295FEC" fill-rule="nonzero" x="44.6791277" y="65.9106957" width="19.5223261" height="19.5223261" rx="2"></rect>
                    <rect id="Rectangle" fill="#295FEC" fill-rule="nonzero" opacity="0.2" transform="translate(110.930426, 75.671859) rotate(-180.000000) translate(-110.930426, -75.671859) " x="101.169263" y="65.9106957" width="19.5223261" height="19.5223261" rx="2"></rect>
                    <rect id="Rectangle" fill="#295FEC" fill-rule="nonzero" opacity="0.2" x="72.9241952" y="65.9106957" width="19.5223261" height="19.5223261" rx="2"></rect>
                    <rect id="Rectangle" fill="#295FEC" fill-rule="nonzero" x="44.6791277" y="100.386293" width="19.5223261" height="19.5223261" rx="2"></rect>
                    <rect id="Rectangle" fill="#295FEC" fill-rule="nonzero" transform="translate(110.930426, 110.147456) rotate(-180.000000) translate(-110.930426, -110.147456) " x="101.169263" y="100.386293" width="19.5223261" height="19.5223261" rx="2"></rect>
                    <rect id="Rectangle" fill="#295FEC" fill-rule="nonzero" x="72.9241952" y="100.386293" width="19.5223261" height="19.5223261" rx="2"></rect>
                    <path d="M164.282451,57.7154725 C164.243996,57.492945 164.159845,57.2808006 164.035306,57.0924195 C163.887767,56.9203114 163.724361,56.7624679 163.547248,56.6209761 C162.566978,55.6988577 163.094496,54.0373832 162.716511,52.7559709 C162.301142,51.3873313 160.847352,50.3385254 159.584631,49.6407061 C159.380588,49.5228676 159.161094,49.4340912 158.932503,49.376947 C158.646793,49.3311753 158.357889,49.3082574 158.068536,49.3084112 C157.616256,49.2812059 157.171474,49.180183 156.751817,49.0093458 C156.15161,48.7642783 155.615784,48.3862928 155.001038,48.1786085 C154.881565,48.1348042 154.754095,48.1171 154.627207,48.1266874 C153.956386,48.0643821 153.933541,48.8992731 153.212876,49.3831776 C152.913811,49.5908619 152.629283,49.8774663 152.629283,50.2346833 C152.629283,50.7227414 153.127726,51.0446521 153.57217,51.258567 C154.016615,51.4724818 154.11838,51.430945 154.205607,51.4288681 L154.242991,51.4288681 C154.303219,51.4392523 154.369678,51.4911734 154.542056,51.6801661 C151.7864,52.1101402 149.749733,54.475841 149.734164,57.2647975 C149.733476,58.052251 149.899822,58.8308949 150.222222,59.549325 C150.203531,59.682243 150.182762,59.8193146 150.159917,59.9646937 C149.941848,61.3042575 149.536864,62.9200415 148.843198,64.2575286 C148.274143,64.3738318 147.914849,64.4652129 147.914849,64.4652129 C147.920489,64.4925881 147.923961,64.5203655 147.925234,64.5482866 L147.717549,64.701973 L146.845275,65.325026 C145.127726,62.4776739 143.372793,58.9428868 143.302181,56.2886812 C143.302181,56.2886812 143.094496,56.4319834 142.741433,56.6562825 L142.741433,54.7705088 L142.629283,54.7497404 L142.741433,54.5420561 L143.551402,53.0093458 C143.856353,52.4327938 144.020737,51.7923364 144.031153,51.1401869 C144.068536,48.7310488 143.989616,42.7912773 142.323988,41.8047767 C140.224299,40.5586708 139.804777,45.9460021 138.685358,48.7061267 C137.854621,50.7642783 138.26999,53.7466251 138.523364,55.1277259 C138.542056,55.2211838 138.558671,55.3063344 138.575286,55.3852544 C137.892394,55.6426185 137.228272,55.9472682 136.587747,56.2969886 C137.030114,56.4714434 137.360332,57.8566978 137.543094,58.8535826 C137.561786,58.9595016 137.580478,59.0612669 137.597092,59.1547248 C137.174405,59.2875168 136.743608,59.3929615 136.307373,59.470405 L139.916926,67.3457944 C139.146417,68.238837 137.538941,69.8026999 136.307373,68.992731 C134.627207,67.8878505 129.45379,68.4402908 129.45379,68.4402908 C129.45379,68.4402908 126.496366,60.5877466 126.637591,58.2367601 C126.637591,58.2367601 126.481828,58.3156802 126.222222,58.4444444 L126.222222,56.3032191 C126.126225,56.3680178 126.02557,56.425634 125.92108,56.4755971 L126.031153,56.2803738 L126.19107,55.9958463 C126.496017,55.4566887 126.677601,54.8566124 126.722741,54.238837 C126.897196,51.8234683 127.152648,45.6220145 125.241952,44.847352 C122.86189,43.8816199 122.161994,50.780893 122.161994,50.780893 L122.668744,57.0280374 L122.679128,57.1671859 C121.549325,57.2668744 120.620976,57.2668744 120.620976,57.2668744 C120.905504,57.5472482 120.996885,59.0944964 121.036345,60.0643821 C121.036345,60.1640706 121.036345,60.2554517 121.036345,60.3406023 C120.458982,60.4402908 119.964694,60.4485981 119.642783,60.3032191 L123.422638,70.5150571 C123.422638,70.5150571 123.703011,73.007269 128.602285,74.1038422 C131.482866,74.7538941 133.491173,75.3499481 134.658359,75.7403946 C132.660436,80.4755971 125.727934,97.5472482 127.761163,101.700935 C127.761163,101.700935 128.849429,101.285566 129.962617,100.920042 C130.220145,104.500519 130.666667,109.923157 131.208723,113.397715 C130.616822,115.227414 130.170301,116.762201 130.024922,117.640706 C130.012461,117.713396 130.002077,117.781931 129.993769,117.84839 C129.578401,121.160955 126.213915,127.509865 131.254413,132.890966 C131.254413,132.890966 134.753894,134.967809 135.034268,137.445483 C135.268951,139.534787 138.967809,144.74351 140.139148,146.350987 C139.202492,147.96054 136.560748,152.205607 134.193146,153.316719 C131.254413,154.697819 133.632399,156.629283 136.431983,156.224299 C139.231568,155.819315 148.477674,149.185877 148.477674,149.185877 C148.477674,149.185877 148.413292,144.849429 147.536864,144.533749 L147.536864,144.533749 L146.695742,142.797508 C147.162583,142.724954 147.619657,142.599538 148.058152,142.423676 C151.838006,140.905504 157.017653,138.145379 157.017653,138.145379 C157.017653,138.145379 157.119418,134.903427 155.65109,133.715472 C154.899273,131.395639 151.418484,129.312565 151.418484,129.312565 C151.418484,129.312565 148.895119,122.82243 142.735202,121.023884 C142.735202,121.023884 141.740395,119.622015 141.777778,118.016615 C142.182762,117.239875 142.456906,116.745587 142.456906,116.745587 L145.642783,109.185877 C146.467555,108.450443 147.168777,107.587239 147.719626,106.629283 C147.766701,106.543441 147.812392,106.456906 147.856698,106.369678 C149.777778,106.596054 151.283489,106.82243 151.283489,106.82243 L151.144341,100.1973 C149.875389,86.5275182 153.796469,82.5254413 153.796469,82.5254413 C153.796469,82.5254413 159.403946,75.7632399 159.956386,70.9325026 C160.47352,66.4735202 156.697819,66.2492212 156.114226,66.2409138 C156.002849,65.5796697 156.027583,64.9026519 156.186916,64.251298 L156.253375,64.2990654 C156.371868,64.3961192 156.516349,64.4560787 156.668744,64.4714434 C156.699134,64.4743637 156.729734,64.4743637 156.760125,64.4714434 L156.809969,64.4714434 C156.947562,64.4649679 157.081231,64.4235092 157.198339,64.3509865 C158.662513,63.5825545 159.8027,62.1931464 161.410177,61.7923157 C161.746625,61.709242 162.097612,61.6718588 162.42783,61.5638629 C163.175303,61.3001624 163.777978,60.735155 164.089304,60.0062305 C164.391049,59.2814827 164.458583,58.4805128 164.282451,57.7154725 Z M143.721703,130.820353 C144.002077,131.786085 148.481828,135.09865 148.481828,135.09865 L148.654206,136.288681 C147.505697,137.376577 146.297158,138.399293 145.034268,139.352025 L143.441329,136.064382 C143.441329,136.064382 141.061267,128.47352 138.961578,127.646937 C138.573209,127.49325 138.448598,127.023884 138.502596,126.365524 C139.867082,127.364486 143.489097,130.045691 143.715472,130.826584 L143.721703,130.820353 Z" id="Shape" fill="url(#linearGradient-2)" fill-rule="nonzero"></path>
                    <path d="M135.370717,74.8826584 C135.370717,74.8826584 125.850467,96.913811 128.161994,101.673936 C128.161994,101.673936 131.970924,100.178609 132.523364,100.450675 C133.075805,100.722741 138.50675,72.026999 138.50675,72.026999 L135.370717,74.8826584 Z" id="Path" fill="#575988" fill-rule="nonzero"></path>
                    <path d="M135.370717,74.8826584 C135.370717,74.8826584 125.850467,96.913811 128.161994,101.673936 C128.161994,101.673936 131.970924,100.178609 132.523364,100.450675 C133.075805,100.722741 138.50675,72.026999 138.50675,72.026999 L135.370717,74.8826584 Z" id="Path" fill="#000000" fill-rule="nonzero" opacity="0.05"></path>
                    <path d="M140.537902,145.057113 C140.537902,145.057113 137.273105,151.17757 134.417445,152.533749 C131.561786,153.889927 133.873313,155.798546 136.593977,155.389408 C139.314642,154.98027 148.290758,148.452752 148.290758,148.452752 C148.290758,148.452752 148.228453,144.180685 147.37487,143.869159 C146.521288,143.557632 140.537902,145.057113 140.537902,145.057113 Z" id="Path" fill="#575988" fill-rule="nonzero"></path>
                    <path d="M149.106957,135.129803 C149.106957,135.129803 144.483904,139.752856 142.442368,140.161994 C140.400831,140.571132 144.209761,143.28972 147.88162,141.794393 C151.553479,140.299065 156.58567,137.578401 156.58567,137.578401 C156.58567,137.578401 156.720665,133.21703 154.409138,132.818276 C152.097612,132.419522 149.106957,135.129803 149.106957,135.129803 Z" id="Path" fill="#575988" fill-rule="nonzero"></path>
                    <path d="M130.066459,97.3208723 C130.066459,97.3208723 131.017653,113.912773 132.242991,116.220145 C133.468328,118.527518 138.091381,125.603323 138.091381,125.603323 C138.091381,125.603323 143.395639,129.412253 143.667705,130.363448 C143.939772,131.314642 148.290758,134.579439 148.290758,134.579439 L148.562825,136.483904 C148.562825,136.483904 155.771547,136.068536 155.362409,133.628245 C154.953271,131.187954 151.146417,128.86812 151.146417,128.86812 C151.146417,128.86812 148.697819,122.475597 142.714434,120.708204 C142.714434,120.708204 140.809969,117.987539 142.442368,115.813084 C142.442368,115.813084 146.523364,105.613707 148.834891,104.390447 C151.146417,103.167186 147.88162,96.1017653 147.88162,96.1017653 L130.066459,97.3208723 Z" id="Path" fill="#67647E" fill-rule="nonzero"></path>
                    <path d="M130.066459,97.3208723 C130.066459,97.3208723 131.017653,113.912773 132.242991,116.220145 C133.468328,118.527518 138.091381,125.603323 138.091381,125.603323 C138.091381,125.603323 143.395639,129.412253 143.667705,130.363448 C143.939772,131.314642 148.290758,134.579439 148.290758,134.579439 L148.562825,136.483904 C148.562825,136.483904 155.771547,136.068536 155.362409,133.628245 C154.953271,131.187954 151.146417,128.86812 151.146417,128.86812 C151.146417,128.86812 148.697819,122.475597 142.714434,120.708204 C142.714434,120.708204 140.809969,117.987539 142.442368,115.813084 C142.442368,115.813084 146.523364,105.613707 148.834891,104.390447 C151.146417,103.167186 147.88162,96.1017653 147.88162,96.1017653 L130.066459,97.3208723 Z" id="Path" fill="#000000" fill-rule="nonzero" opacity="0.05"></path>
                    <path d="M143.393562,135.536864 L147.754933,144.647975 C147.075805,146.959502 140.54621,146.143302 140.54621,146.143302 C140.54621,146.143302 135.514019,139.343718 135.241952,136.895119 C134.969886,134.446521 131.570093,132.407061 131.570093,132.407061 C126.674974,127.102804 129.937695,120.847352 130.346833,117.582555 C130.346833,117.520249 130.365524,117.451713 130.375909,117.37487 C130.737279,115.185877 132.938733,108.888889 134.650052,104.172378 C135.804777,100.994808 136.737279,98.5358255 136.737279,98.5358255 C136.737279,98.5358255 145.84839,98.9511942 147.744548,102.207684 C148.616822,103.703011 148.226376,105.258567 147.547248,106.504673 C147.015877,107.446331 146.337158,108.296833 145.536864,109.023884 L142.440291,116.488058 C142.440291,116.488058 137.003115,126.423676 139.050883,127.241952 C141.09865,128.060228 143.393562,135.536864 143.393562,135.536864 Z" id="Path" fill="#67647E" fill-rule="nonzero"></path>
                    <path d="M127.152648,54.8971963 C127.109618,55.5052633 126.933806,56.0965041 126.637591,56.6292835 L126.481828,56.9096573 L125.715472,58.290758 L123.266874,58.290758 L123.214953,57.6469367 L122.722741,51.4911734 C122.722741,51.4911734 123.401869,44.6915888 125.715472,45.642783 C127.570093,46.4070613 127.322949,52.517134 127.152648,54.8971963 Z" id="Path" fill="#F7C4A7" fill-rule="nonzero"></path>
                    <path d="M126.481828,56.9075805 L125.715472,58.2886812 L123.266874,58.2886812 L123.214953,57.6448598 C124.35514,57.5451713 125.711319,57.337487 126.481828,56.9075805 Z" id="Path" fill="#000000" fill-rule="nonzero" opacity="0.1"></path>
                    <path d="M126.666667,56.9304258 L126.666667,60.0581516 L121.634476,61.4184839 C121.634476,61.4184839 121.634476,61.0924195 121.619938,60.6396677 C121.590862,59.6843198 121.501558,58.1599169 121.225337,57.8836968 C121.227414,57.8878505 125.306334,57.8878505 126.666667,56.9304258 Z" id="Path" fill="#E6E6F0" fill-rule="nonzero"></path>
                    <path d="M126.666667,58.7642783 L126.666667,60.0581516 L121.634476,61.4184839 C121.634476,61.4184839 121.634476,61.0924195 121.619938,60.6396677 C123.29595,60.3468328 125.715472,59.2274143 126.666667,58.7642783 Z" id="Path" fill="#000000" fill-rule="nonzero" opacity="0.1"></path>
                    <path d="M156.016615,63.9252336 C155.023884,66.7912773 156.313603,68.07892 156.313603,68.07892 C156.313603,68.07892 144.07269,68.8951194 147.065421,66.7185877 C148.812046,65.4475597 149.586708,62.6438214 149.92731,60.5337487 C150.072182,59.6582962 150.161664,58.774574 150.195223,57.8878505 C150.195223,57.8878505 159.977155,57.7445483 157.948079,60.4714434 C157.132879,61.5181267 156.481611,62.6827062 156.016615,63.9252336 L156.016615,63.9252336 Z" id="Path" fill="#F7C4A7" fill-rule="nonzero"></path>
                    <path d="M157.950156,60.4652129 C156.953271,61.8068536 156.627207,62.0041537 156.288681,62.9719626 C155.982664,63.023818 155.672788,63.0495252 155.362409,63.0488205 C153.030114,63.0488205 150.760125,62.569055 149.92731,60.5358255 C150.072269,59.6596872 150.161752,58.7752687 150.195223,57.8878505 C150.195223,57.8878505 159.975078,57.7383178 157.950156,60.4652129 Z" id="Path" fill="#000000" fill-rule="nonzero" opacity="0.1"></path>
                    <circle id="Oval" fill="#F7C4A7" fill-rule="nonzero" cx="155.090343" cy="57.8816199" r="5.57632399"></circle>
                    <path d="M127.073728,58.8328141 C127.073728,58.8328141 121.76947,61.5534787 120.274143,60.8722741 L123.946002,70.9366563 C123.946002,70.9366563 124.218069,73.3852544 128.978193,74.4672897 C133.738318,75.549325 136.049844,76.5067497 136.049844,76.5067497 L144.888889,66.0353063 L140.400831,67.258567 C140.400831,67.258567 138.089304,70.5233645 136.454829,69.4350987 C134.820353,68.3468328 129.794393,68.8951194 129.794393,68.8951194 C129.794393,68.8951194 126.938733,61.1464174 127.073728,58.8328141 Z" id="Path" fill="#575988" fill-rule="nonzero"></path>
                    <path d="M127.073728,58.8328141 C127.073728,58.8328141 121.76947,61.5534787 120.274143,60.8722741 L123.946002,70.9366563 C123.946002,70.9366563 124.218069,73.3852544 128.978193,74.4672897 C133.738318,75.549325 136.049844,76.5067497 136.049844,76.5067497 L144.888889,66.0353063 L140.400831,67.258567 C140.400831,67.258567 138.089304,70.5233645 136.454829,69.4350987 C134.820353,68.3468328 129.794393,68.8951194 129.794393,68.8951194 C129.794393,68.8951194 126.938733,61.1464174 127.073728,58.8328141 Z" id="Path" fill="#000000" fill-rule="nonzero" opacity="0.05"></path>
                    <path d="M147.746625,65.2544133 C147.746625,65.2544133 154.936656,63.1983385 155.692627,67.0176532 C155.692627,67.0176532 152.369678,65.3977155 147.609553,68.2637591 C147.252336,68.4714434 146.903427,68.7061267 146.571132,68.9449637 C142.382139,71.8795431 139.455867,76.4215992 138.280374,81.5804777 L135.241952,94.8930426 L134.969886,98.4714434 C134.969886,98.4714434 130.608515,99.3312565 129.8027,98.0415369 C128.996885,96.7518172 129.530633,92.4569055 130.753894,91.0259605 C131.977155,89.5950156 133.875389,83.4330218 133.875389,83.4330218 L135.065421,79.8608515 C136.061587,76.8563191 137.645057,74.0797749 139.72378,71.6926272 L139.72378,71.6926272 L140.010384,71.3457944 C141.801796,69.1959643 144.073294,67.4971432 146.641745,66.3862928 C147.337487,66.0851506 147.84216,65.7050883 147.746625,65.2544133 Z" id="Path" fill="#000000" fill-rule="nonzero" opacity="0.1"></path>
                    <path d="M147.746625,64.9823468 C147.746625,64.9823468 154.936656,62.9262721 155.692627,66.7455867 C155.692627,66.7455867 152.369678,65.125649 147.609553,67.9916926 C147.252336,68.1993769 146.903427,68.4340602 146.571132,68.6728972 C142.382139,71.6074766 139.455867,76.1495327 138.280374,81.3084112 L135.241952,94.6209761 L134.969886,98.1993769 C134.969886,98.1993769 130.608515,99.05919 129.8027,97.7694704 C128.996885,96.4797508 129.530633,92.184839 130.753894,90.7538941 C131.977155,89.3229491 133.88162,83.165109 133.88162,83.165109 L135.071651,79.5929387 C136.067817,76.5884064 137.651288,73.8118622 139.73001,71.4247144 L139.73001,71.4247144 L140.016615,71.0778816 C141.808027,68.9280515 144.079524,67.2292304 146.647975,66.1183801 C147.337487,65.8130841 147.84216,65.4330218 147.746625,64.9823468 Z" id="Path" fill="#E6E6F0" fill-rule="nonzero"></path>
                    <path d="M129.665628,92.3966771 L129.725857,94.7393562 L131.630322,93.5160955 C131.630322,93.5160955 135.021807,81.1734164 137.410177,77.8089304 C137.69055,77.4122534 137.825545,76.8203531 138.089304,76.7206646 L147.813084,67.337487 L147.813084,65.1568017 C147.813084,65.1568017 142.849429,68.8286604 142.440291,69.5181724 C142.265836,69.8068536 139.659398,71.231568 138.07892,73.4641745 C136.671415,75.5196262 135.42173,77.6788048 134.340602,79.9231568 L131.075805,87.2668744 L129.665628,92.3966771 Z" id="Path" fill="#000000" fill-rule="nonzero" opacity="0.1"></path>
                    <path d="M147.815161,65.0218069 L147.815161,67.1298027 L137.954309,76.5794393 C137.692627,76.6791277 137.555556,77.271028 137.275182,77.6677051 C134.884735,81.0342679 131.495327,93.3748702 131.495327,93.3748702 L129.590862,94.5981308 L129.530633,92.2554517 L130.951194,87.1214953 L134.215992,79.7777778 C135.297077,77.5334034 136.546764,75.3742216 137.954309,73.3187954 C139.524403,71.0882658 142.132918,69.6635514 142.31568,69.3727934 C142.668744,68.7871236 146.502596,65.9792316 147.557632,65.219107 L147.815161,65.0218069 Z" id="Path" fill="#787C9C" fill-rule="nonzero"></path>
                    <path d="M153.233645,51.9626168 C152.803738,51.7549325 152.317757,51.4330218 152.317757,50.953271 C152.317757,50.6022845 152.593977,50.3115265 152.884735,50.1225337 C153.661475,49.5929387 153.601246,48.635514 154.494289,48.9345794 C155.09242,49.1422638 155.613707,49.5140187 156.195223,49.7549325 C156.60241,49.9233564 157.034732,50.023015 157.474559,50.0498442 C157.752801,50.0497999 158.0306,50.0720239 158.305296,50.1163032 C158.524003,50.1735596 158.733693,50.2609303 158.928349,50.3759086 C160.16821,51.069603 161.088996,52.2190952 161.495327,53.5804777 C161.865005,54.8431983 161.827622,56.3385254 162.778816,57.2461059 C162.95082,57.3853052 163.109358,57.540366 163.252336,57.709242 C163.374214,57.898157 163.455543,58.1103184 163.491173,58.3322949 C163.662478,59.0861226 163.597208,59.8744345 163.304258,60.5898235 C163.003262,61.3066059 162.414553,61.8636554 161.682243,62.1246106 C161.360332,62.2305296 161.021807,62.2658359 160.693666,62.3489097 C159.13188,62.7435099 158.024922,64.1142264 156.600208,64.8701973 C156.48648,64.9414866 156.356297,64.9822582 156.222222,64.9885774 C156.075464,64.9722031 155.936777,64.9129722 155.823468,64.8182762 C155.273105,64.4257529 154.820353,63.815161 154.834891,63.1381101 C154.87923,62.7153278 155.002512,62.3046205 155.198339,61.9273105 C155.496441,61.2209617 155.724599,60.4870976 155.879543,59.7362409 C155.928814,59.5637355 155.933814,59.3815946 155.894081,59.2066459 C155.790239,58.8764278 155.424714,58.7227414 155.17134,58.4880582 C154.689512,58.0415369 154.63136,57.2814123 154.809969,56.6479751 C154.988577,56.0145379 155.362409,55.4558671 155.640706,54.8598131 C155.736542,54.6807586 155.792512,54.4830921 155.804777,54.2803738 C155.804777,53.4849429 154.728972,53.0529595 154.27622,52.5275182 C153.686397,51.8089304 154.074766,52.3779855 153.233645,51.9626168 Z" id="Path" fill="#000000" fill-rule="nonzero" opacity="0.1"></path>
                    <path d="M153.370717,51.9626168 C152.94081,51.7549325 152.454829,51.4330218 152.454829,50.953271 C152.454829,50.6022845 152.731049,50.3115265 153.021807,50.1225337 C153.798546,49.5929387 153.738318,48.635514 154.63136,48.9345794 C155.229491,49.1422638 155.750779,49.5140187 156.332295,49.7549325 C156.739481,49.9233564 157.171803,50.023015 157.61163,50.0498442 C157.892004,50.066459 158.799585,49.6344756 159.065421,49.7009346 C159.284128,49.758191 159.493817,49.8455617 159.688474,49.96054 C160.928335,50.6542344 161.84912,51.8037266 162.255452,53.165109 C162.62513,54.4278297 162.367601,56.0062305 163.318795,56.9034268 C163.478712,57.0571132 163.260644,57.5264798 163.389408,57.6988577 C163.511286,57.8877728 163.592615,58.0999342 163.628245,58.3219107 C163.79955,59.0757384 163.73428,59.8640503 163.441329,60.5794393 C163.140333,61.2962217 162.551625,61.8532712 161.819315,62.1142264 C161.497404,62.2201454 161.158879,62.2554517 160.830737,62.3385254 C159.268951,62.7331256 158.161994,64.1038422 156.737279,64.8598131 C156.623552,64.9311024 156.493369,64.971874 156.359294,64.9781931 C156.212535,64.9618189 156.073849,64.902588 155.96054,64.807892 C155.410177,64.4153686 154.957425,63.8047767 154.971963,63.1277259 C155.016301,62.7049436 155.139584,62.2942363 155.33541,61.9169263 C155.633512,61.2105775 155.861671,60.4767134 156.016615,59.7258567 C156.065886,59.5533513 156.070886,59.3712103 156.031153,59.1962617 C155.92731,58.8660436 155.561786,58.7123572 155.308411,58.4776739 C154.826584,58.0311526 154.768432,57.271028 154.94704,56.6375909 C155.125649,56.0041537 155.499481,55.4454829 155.777778,54.8494289 C155.873614,54.6703744 155.929584,54.4727079 155.941848,54.2699896 C155.941848,53.4745587 154.866044,53.0425753 154.413292,52.517134 C153.823468,51.8089304 154.211838,52.3779855 153.370717,51.9626168 Z" id="Path" fill="#B96B6B" fill-rule="nonzero"></path>
                    <path d="M147.549325,106.515057 C145.057113,106.220145 141.916926,105.931464 140.537902,106.161994 C138.317757,106.531672 135.202492,104.55244 134.641745,104.182762 C135.796469,101.005192 136.728972,98.5462098 136.728972,98.5462098 C136.728972,98.5462098 145.840083,98.9615784 147.736241,102.218069 C148.618899,103.713396 148.228453,105.268951 147.549325,106.515057 Z" id="Path" fill="#000000" fill-rule="nonzero" opacity="0.1"></path>
                    <path d="M159.443406,71.3457944 C158.899273,76.105919 153.460021,82.768432 153.460021,82.768432 C153.460021,82.768432 149.65109,86.7144341 150.876428,100.176532 L151.011423,106.70405 C151.011423,106.70405 142.986501,105.480789 140.539979,105.88785 C138.093458,106.294912 134.556594,103.84839 134.556594,103.84839 C134.556594,103.84839 133.194185,80.317757 139.050883,75.4267913 C139.769576,74.313163 140.551762,73.2418175 141.393562,72.2180685 C142.963655,70.317757 145.09865,68.1765317 147.096573,67.6490135 C147.353631,67.5796177 147.61765,67.5392139 147.883697,67.5285566 C147.883697,67.5285566 154.004154,64.1287643 155.636552,66.7123572 C155.634476,66.7227414 159.985462,66.5856698 159.443406,71.3457944 Z" id="Path" fill="#575988" fill-rule="nonzero"></path>
                    <path d="M134.623053,96.7102804 C134.623053,96.7102804 136.799585,95.7590862 140.471443,96.0311526 C144.143302,96.3032191 150.681205,93.0384216 150.681205,93.0384216" id="Path" fill="#000000" fill-rule="nonzero" opacity="0.1"></path>
                    <path d="M138.566978,127.046729 C138.566978,127.046729 138.701973,127.462098 136.934579,127.997923 C135.167186,128.533749 134.623053,129.086189 134.623053,129.086189" id="Path" fill="#000000" fill-rule="nonzero" opacity="0.05"></path>
                    <rect id="Rectangle" fill="#295FEC" fill-rule="nonzero" transform="translate(133.223261, 44.029076) rotate(-180.000000) translate(-133.223261, -44.029076) " x="123.462098" y="34.2679128" width="19.5223261" height="19.5223261" rx="2"></rect>
                    <path d="M143.964694,51.8483904 C143.95534,52.4909738 143.796038,53.1224918 143.499481,53.6926272 L142.714434,55.2045691 L142.170301,56.2429907 L138.770509,56.5150571 C138.770509,56.5150571 138.699896,56.2346833 138.612669,55.7715472 C138.359294,54.411215 137.958463,51.4724818 138.770509,49.443406 C139.858775,46.7227414 140.265836,41.4184839 142.301142,42.6438214 C143.925234,43.6199377 144.002077,49.4745587 143.964694,51.8483904 Z" id="Path" fill="#F7C4A7" fill-rule="nonzero"></path>
                    <path d="M142.714434,55.1609553 L142.714434,55.2024922 L142.170301,56.2409138 L138.770509,56.5129803 C138.770509,56.5129803 138.699896,56.2326064 138.612669,55.7694704 C139.829699,55.3063344 141.424714,54.874351 142.714434,55.1609553 Z" id="Path" fill="#000000" fill-rule="nonzero" opacity="0.1"></path>
                    <path d="M142.714434,55.4330218 L142.714434,57.8878505 L137.819315,60.4714434 C137.819315,60.4714434 137.76324,60.0290758 137.659398,59.4558671 C137.480789,58.4735202 137.160955,57.1069574 136.731049,56.9366563 C136.731049,56.9304258 140.265836,54.8888889 142.714434,55.4330218 Z" id="Path" fill="#E6E6F0" fill-rule="nonzero"></path>
                    <path d="M155.956386,77.6635514 C154.750675,78.7258333 153.156094,79.2362799 151.557632,79.0716511 C142.94704,78.1973001 142.714434,75.1547248 142.714434,75.1547248 L141.393562,72.2180685 C142.963655,70.317757 145.09865,68.1765317 147.096573,67.6490135 C148.523364,69.9480789 149.796469,71.6074766 149.796469,71.6074766 C149.796469,71.6074766 156.188993,66.7123572 158.093458,71.3354102 C159.196262,74.0373832 157.534787,76.2699896 155.956386,77.6635514 Z" id="Path" fill="#000000" fill-rule="nonzero" opacity="0.05"></path>
                    <path d="M142.714434,56.9325026 L142.714434,57.8878505 L137.819315,60.4714434 C137.819315,60.4714434 137.76324,60.0290758 137.659398,59.4558671 C139.76947,58.7725857 141.856698,57.4911734 142.714434,56.9325026 Z" id="Path" fill="#000000" fill-rule="nonzero" opacity="0.1"></path>
                    <path d="M143.258567,56.9304258 C143.258567,56.9304258 139.586708,59.5140187 136.458982,60.0581516 L142.851506,74.2014538 C142.851506,74.2014538 143.086189,77.2440291 151.694704,78.1183801 C153.292445,78.2821562 154.886053,77.7717803 156.091381,76.7102804 C157.669782,75.3167186 159.327103,73.0841121 158.218069,70.3925234 C156.313603,65.7694704 149.92108,70.6645898 149.92108,70.6645898 C149.92108,70.6645898 143.393562,62.0976116 143.258567,56.9304258 Z" id="Path" fill="#575988" fill-rule="nonzero"></path>
                    <rect id="Rectangle" fill="#295FEC" fill-rule="nonzero" x="164.423676" y="148.359294" width="32.3987539" height="2.90758048" rx="1.45379024"></rect>
                    <rect id="Rectangle" fill="#295FEC" fill-rule="nonzero" x="160.893043" y="145.451713" width="32.3987539" height="2.90758048" rx="1.45379024"></rect>
                    <rect id="Rectangle" fill="#000000" fill-rule="nonzero" opacity="0.05" x="160.893043" y="145.451713" width="32.3987539" height="2.90758048" rx="1.45379024"></rect>
                </g>
            </g>
        </g>
    </g>
</svg>