<?xml version="1.0" encoding="UTF-8"?>
<svg width="243px" height="168px" viewBox="0 0 243 168" version="1.1" xmlns="http://www.w3.org/2000/svg" xmlns:xlink="http://www.w3.org/1999/xlink">
    <!-- Generator: sketchtool 56.1 (101010) - https://sketch.com -->
    <title>A53321DF-8C33-4750-9536-C8C9287D34F3hdpi/</title>
    <desc>Created with sketchtool.</desc>
    <g id="[flow]-onboarding---IDF" stroke="none" stroke-width="1" fill="none" fill-rule="evenodd">
        <g id="010-onboarding-idf---teacher---desktop" transform="translate(-519.000000, -181.000000)">
            <g id="modal" transform="translate(360.000000, 125.000000)">
                <g id="undraw_desktop_installation_mbdv" transform="translate(159.000000, 56.000000)">
                    <path d="M59.2293269,5.01557632 C51.7236156,6.35929387 43.1047163,8.75389408 40.0683715,16.1163032 C37.293709,22.847352 40.5501992,30.4299065 42.7412687,37.3956386 C44.9005066,44.2727398 46.0205111,51.4337685 46.0642178,58.6417445 C46.1202926,68.780893 44.1452147,79.4724818 48.1576758,88.6853583 C52.685194,99.0799585 63.889763,105.09242 67.8170735,115.746625 C69.4640102,120.213915 69.6633871,125.102804 70.4484338,129.823468 C72.1888284,140.284528 76.9427225,150.164071 83.9209157,157.817238 C88.5605834,162.905504 94.6021202,167.175493 101.293709,167.277259 C106.369514,167.356179 111.162868,165.05296 115.864841,163.036345 C121.350344,160.684601 126.972907,158.666387 132.701809,156.992731 C135.115101,156.288681 137.601082,155.640706 140.097447,155.860852 C144.907416,156.27622 148.919877,159.806854 153.484779,161.468328 C165.856534,165.954309 178.645734,156.205607 191.698693,155.17757 C202.888725,154.294912 214.1286,159.92108 225.123408,157.57217 C226.743346,157.225337 228.475433,156.596054 229.324862,155.100727 C230.730885,152.623053 228.986336,149.194185 230.236596,146.62513 C231.486855,144.056075 234.861726,143.790239 236.843034,141.835929 C238.859649,139.846314 239.023719,136.411215 237.995682,133.709242 C236.967645,131.007269 234.984259,128.855659 233.077717,126.751817 C223.640974,116.330811 214.952656,105.25579 207.077717,93.6095535 C199.044488,81.7320872 191.526315,67.761163 193.785921,53.3665628 C194.566814,48.4132918 196.485817,43.7258567 197.356014,38.7892004 C198.226212,33.8525441 197.868995,28.2616822 194.676887,24.5358255 C192.770345,22.3094496 190.09537,21.0238837 187.499316,19.7985462 C163.287478,8.36967809 137.34563,-3.33333333 111.131715,0.992731049 C106.863802,1.69678089 102.639503,2.82658359 98.3217464,2.98026999 C92.0725252,3.20456906 86.1909053,0.411214953 80.0870631,1.31879543 C73.1566374,2.34267913 66.1535221,3.77570093 59.2293269,5.01557632 Z" id="Path" fill="#295FEC" fill-rule="nonzero" opacity="0.1"></path>
                    <g id="Group" transform="translate(5.000000, 8.977850)">
                        <path d="M33.5867082,26.5050158 C33.5867082,26.5050158 25.0446521,21.8155038 22.5109034,14.6317032 C21.4682465,11.6108841 19.4736074,9.00990974 16.8265836,7.21944983 C15.5634162,6.37891807 14.2258736,5.65592207 12.8307373,5.0595329" id="Path" stroke="#535461" stroke-width="2"></path>
                        <path d="M11.2107996,0.542398947 C12.0186916,1.35444464 12.8888889,5.17375928 12.8888889,5.17375928 C12.8888889,5.17375928 9.07580478,4.2807167 8.26791277,3.46659417 C7.5269063,2.6436971 7.56186835,1.38414931 8.34738199,0.603624811 C9.13289564,-0.176899688 10.3926406,-0.203835674 11.2107996,0.542398947 Z" id="Path" fill="#295FEC" fill-rule="nonzero"></path>
                        <path d="M18.1163032,2.62547267 C18.3530633,3.746968 17.0093458,7.42505731 17.0093458,7.42505731 C17.0093458,7.42505731 14.2949117,4.6026274 14.0581516,3.47905523 C13.8787011,2.38327668 14.5929124,1.34017815 15.6794227,1.11120515 C16.7659329,0.882232149 17.840356,1.54839083 18.1183801,2.62339583 L18.1163032,2.62547267 Z" id="Path" fill="#295FEC" fill-rule="nonzero"></path>
                        <path d="M25.655244,10.421942 C25.2938733,11.508131 22.2762201,14.0065734 22.2762201,14.0065734 C22.2762201,14.0065734 21.3582555,10.1997198 21.7196262,9.11145398 C22.0815075,8.0217956 23.2582129,7.43181569 24.3478712,7.79369697 C25.4375296,8.15557826 26.0275095,9.33228366 25.6656282,10.421942 L25.655244,10.421942 Z" id="Path" fill="#295FEC" fill-rule="nonzero"></path>
                        <path d="M30.03946,17.6057427 C29.867082,18.7376222 27.3146417,21.7095848 27.3146417,21.7095848 C27.3146417,21.7095848 25.7653167,18.1124924 25.9376947,16.9806129 C26.0159308,16.2186249 26.5072471,15.5615627 27.2160138,15.2710521 C27.9247804,14.9805415 28.7359164,15.103752 29.3264476,15.5916243 C29.9169789,16.0794967 30.1910221,16.8528159 30.03946,17.6036658 L30.03946,17.6057427 Z" id="Path" fill="#295FEC" fill-rule="nonzero"></path>
                        <path d="M14.0768432,10.6545485 C15.2232606,10.6420874 18.5212876,8.52786104 18.5212876,8.52786104 C18.5212876,8.52786104 15.1754933,6.49255471 14.0290758,6.50501577 C12.882067,6.51820637 11.9629257,7.45873384 11.9761163,8.60574266 C11.9893069,9.75275149 12.9298344,10.6718928 14.0768432,10.6587022 L14.0768432,10.6545485 Z" id="Path" fill="#295FEC" fill-rule="nonzero"></path>
                        <path d="M19.3001038,18.9909971 C20.3883697,18.6358569 22.9034268,15.6327416 22.9034268,15.6327416 C22.9034268,15.6327416 19.1007269,14.6919317 18.0124611,15.0470718 C16.9644912,15.4329951 16.4093319,16.578563 16.7557735,17.640239 C17.1022151,18.7019149 18.2262087,19.2995487 19.3001038,18.9930739 L19.3001038,18.9909971 Z" id="Path" fill="#295FEC" fill-rule="nonzero"></path>
                        <path d="M25.4890966,26.3970199 C26.623053,26.2308725 29.6095535,23.6971238 29.6095535,23.6971238 C29.6095535,23.6971238 26.0207684,22.1270303 24.8888889,22.2931778 C24.1296446,22.3714334 23.4745061,22.8598443 23.1827234,23.5651377 C22.8909407,24.270431 23.0095384,25.0789397 23.4915851,25.6707224 C23.9736319,26.2625051 24.7414397,26.5421884 25.4911734,26.3990968 L25.4890966,26.3970199 Z" id="Path" fill="#295FEC" fill-rule="nonzero"></path>
                        <path d="M25.9023884,55.1654519 C25.9023884,55.1654519 17.3603323,50.47594 14.8265836,43.2921393 C13.7839266,40.2713202 11.7892876,37.6703459 9.14226376,35.879886 C7.87909639,35.0393542 6.54155378,34.3163582 5.14641745,33.719969" id="Path" stroke="#535461" stroke-width="2"></path>
                        <path d="M3.52647975,29.2028351 C4.33437175,30.0148808 5.20456906,33.8341954 5.20456906,33.8341954 C5.20456906,33.8341954 1.39148494,32.9411528 0.583592939,32.1270303 C-0.157413539,31.3041332 -0.122451487,30.0445854 0.66306216,29.2640609 C1.44857581,28.4835364 2.7083208,28.4566005 3.52647975,29.2028351 L3.52647975,29.2028351 Z" id="Path" fill="#295FEC" fill-rule="nonzero"></path>
                        <path d="M10.4319834,31.2859088 C10.6687435,32.4074041 9.32502596,36.0854934 9.32502596,36.0854934 C9.32502596,36.0854934 6.6105919,33.2630635 6.37383178,32.1394914 C6.19438122,31.0437128 6.9085926,30.0006143 7.99510283,29.7716413 C9.08161307,29.5426683 10.1560362,30.208827 10.4340602,31.283832 L10.4319834,31.2859088 Z" id="Path" fill="#295FEC" fill-rule="nonzero"></path>
                        <path d="M17.9709242,39.0823782 C17.6095535,40.1685672 14.5919003,42.6670095 14.5919003,42.6670095 C14.5919003,42.6670095 13.6739356,38.860156 14.0353063,37.7718901 C14.2694025,37.0670047 14.8617681,36.5405526 15.5892648,36.3908431 C16.3167616,36.2411336 17.0688653,36.4909112 17.5622659,37.0460871 C18.0556665,37.601263 18.2154046,38.3774928 17.9813084,39.0823782 L17.9709242,39.0823782 Z" id="Path" fill="#295FEC" fill-rule="nonzero"></path>
                        <path d="M22.3551402,46.2661788 C22.1827622,47.3980583 19.6303219,50.370021 19.6303219,50.370021 C19.6303219,50.370021 18.0809969,46.7729285 18.2533749,45.641049 C18.331611,44.879061 18.8229273,44.2219989 19.5316939,43.9314882 C20.2404606,43.6409776 21.0515965,43.7641881 21.6421278,44.2520605 C22.2326591,44.7399328 22.5067022,45.5132521 22.3551402,46.264102 L22.3551402,46.2661788 Z" id="Path" fill="#295FEC" fill-rule="nonzero"></path>
                        <path d="M6.39252336,39.3149846 C7.53894081,39.3025236 10.8369678,37.1882972 10.8369678,37.1882972 C10.8369678,37.1882972 7.49117342,35.1529908 6.34475597,35.1654519 C5.19774717,35.1786425 4.27860594,36.11917 4.29179655,37.2661788 C4.30498715,38.4131876 5.24551457,39.3323289 6.39252336,39.3191383 L6.39252336,39.3149846 Z" id="Path" fill="#295FEC" fill-rule="nonzero"></path>
                        <path d="M11.615784,47.6514332 C12.7040498,47.296293 15.219107,44.2931778 15.219107,44.2931778 C15.219107,44.2931778 11.4164071,43.3523678 10.3281412,43.707508 C9.59681148,43.9162193 9.03805206,44.5079753 8.87159806,45.2500647 C8.70514407,45.9921541 8.95762111,46.7658741 9.52974124,47.2669551 C10.1018614,47.7680361 10.9021096,47.9163264 11.615784,47.6535101 L11.615784,47.6514332 Z" id="Path" fill="#295FEC" fill-rule="nonzero"></path>
                        <path d="M17.8047767,55.0574561 C18.9387331,54.8913086 21.9252336,52.3575599 21.9252336,52.3575599 C21.9252336,52.3575599 18.3364486,50.7874664 17.2045691,50.9536139 C16.4453248,51.0318695 15.7901863,51.5202805 15.4984036,52.2255738 C15.2066209,52.9308671 15.3252185,53.7393758 15.8072653,54.3311585 C16.289312,54.9229412 17.0571199,55.2026246 17.8068536,55.0595329 L17.8047767,55.0574561 Z" id="Path" fill="#295FEC" fill-rule="nonzero"></path>
                    </g>
                    <g id="laptop" transform="translate(0.000000, 19.000000)">
                        <path d="M32,0 L210,0 C214.418278,-8.11624501e-16 218,3.581722 218,8 L218,121 L24,121 L24,8 C24,3.581722 27.581722,8.11624501e-16 32,0 Z" id="Rectangle" fill="#535461" fill-rule="nonzero"></path>
                        <rect id="Rectangle" fill="#F1F1F4" fill-rule="nonzero" x="34" y="14" width="174" height="91"></rect>
                        <circle id="Oval" fill="#FFFFFF" fill-rule="nonzero" cx="121.232606" cy="7.60851506" r="1.36033229"></circle>
                        <path d="M150.282588,117 L143.923943,123.486388 L99.0907253,123.486388 L93.3444753,117 L2.03887363,117 C0.912834818,117 0,117.907619 0,119.027224 L0,120.660671 C0,126.923209 5.10596454,132 11.404491,132 L231.595509,132 C234.620168,132 237.520945,130.805324 239.659702,128.678787 C241.798459,126.552251 243,123.668048 243,120.660671 L243,119.027224 C243,117.907619 242.087165,117 240.961126,117 L150.282588,117 Z" id="Path" fill="#535461" fill-rule="nonzero"></path>
                        <rect id="Rectangle" fill="#295FEC" fill-rule="nonzero" x="61" y="21" width="19.5223261" height="19.5223261" rx="2"></rect>
                        <rect id="Rectangle" fill="#295FEC" fill-rule="nonzero" opacity="0.2" transform="translate(171.805815, 30.761163) rotate(-180.000000) translate(-171.805815, -30.761163) " x="162.044652" y="21" width="19.5223261" height="19.5223261" rx="2"></rect>
                        <rect id="Rectangle" fill="#295FEC" fill-rule="nonzero" x="111.522326" y="21" width="19.5223261" height="19.5223261" rx="2"></rect>
                        <rect id="Rectangle" fill="#295FEC" fill-rule="nonzero" x="61" y="49.5223261" width="19.5223261" height="19.5223261" rx="2"></rect>
                        <rect id="Rectangle" fill="#295FEC" fill-rule="nonzero" opacity="0.2" transform="translate(171.805815, 59.283489) rotate(-180.000000) translate(-171.805815, -59.283489) " x="162.044652" y="49.5223261" width="19.5223261" height="19.5223261" rx="2"></rect>
                        <rect id="Rectangle" fill="#295FEC" fill-rule="nonzero" opacity="0.2" x="111.522326" y="49.5223261" width="19.5223261" height="19.5223261" rx="2"></rect>
                        <rect id="Rectangle" fill="#295FEC" fill-rule="nonzero" x="61" y="78.0446521" width="19.5223261" height="19.5223261" rx="2"></rect>
                        <rect id="Rectangle" fill="#295FEC" fill-rule="nonzero" transform="translate(171.805815, 87.805815) rotate(-180.000000) translate(-171.805815, -87.805815) " x="162.044652" y="78.0446521" width="19.5223261" height="19.5223261" rx="2"></rect>
                        <rect id="Rectangle" fill="#295FEC" fill-rule="nonzero" x="111.522326" y="78.0446521" width="19.5223261" height="19.5223261" rx="2"></rect>
                        <rect id="Rectangle" fill="#39B54A" x="34" y="14" width="174" height="103"></rect>
                    </g>
                    <g id="check" transform="translate(89.000000, 60.000000)" fill-rule="nonzero">
                        <path d="M56.4890548,3.58253873 L23.3390542,36.2345733 L9.40597672,22.5106602 C7.54596798,20.6785776 4.5302844,20.6785636 2.67025807,22.5106288 L2.16971959,21.7732188 C0.309686438,23.6052918 0.81021267,27.3131008 2.67024092,29.145181 L20.74827,46.9515808 C22.1669655,48.3489585 24.4669356,48.3495482 25.8863694,46.9528981 L63.2213441,10.2171489 C65.0825702,8.38579483 65.7577345,5.02760753 63.8974564,3.19532219 L63.8974564,3.19532219 C62.0378935,1.36373895 58.3485907,1.75093619 56.4890548,3.58253873 Z" id="Path" fill="#57B894"></path>
                        <path d="M56.4890548,3.58253873 L23.3390542,36.2345733 L9.40597672,22.5106602 C7.54596798,20.6785776 4.5302844,20.6785636 2.67025807,22.5106288 L2.16971959,21.7732188 C0.309686438,23.6052918 0.81021267,27.3131008 2.67024092,29.145181 L20.74827,46.9515808 C22.1669655,48.3489585 24.4669356,48.3495482 25.8863694,46.9528981 L63.2213441,10.2171489 C65.0825702,8.38579483 65.7577345,5.02760753 63.8974564,3.19532219 L63.8974564,3.19532219 C62.0378935,1.36373895 58.3485907,1.75093619 56.4890548,3.58253873 Z" id="Path" fill="#000000" opacity="0.1"></path>
                        <path d="M55.7869016,1.37998921 L22.2928268,34.1809268 L8.21513345,20.3944285 C6.33581909,18.5539911 3.28883478,18.553977 1.40950265,20.394397 L1.40950265,20.394397 C0.507013592,21.2782024 0,22.4769034 0,23.7267972 C0,24.9766911 0.507013592,26.175392 1.40950265,27.0591974 L19.6751693,44.9467997 C21.1085899,46.3505499 23.432432,46.3511422 24.8665987,44.9481231 L62.5890848,8.04484786 C63.4921276,7.16141583 64,5.9627629 64,4.71274945 C64,3.46273599 63.4934007,2.26383017 62.5908172,1.37994801 L62.5908172,1.37994801 C60.7119531,-0.459998761 57.6657424,-0.459980314 55.7869016,1.37998921 Z" id="Path" fill="#FFFFFF"></path>
                    </g>
                </g>
            </g>
        </g>
    </g>
</svg>