<svg width="590" height="458" fill="none" xmlns="http://www.w3.org/2000/svg"><g clip-path="url(#clip0)"><path opacity=".1" d="M130.611 90.887c14.352-12.172 36.879-14.667 57.387-13.698 64.407 3.052 122.546 32.677 172.837 66.193 18.209 12.13 36.132 25.205 47.949 41.914 24.075 34.011 16.921 81.127-16.528 109.146-11.384 9.531-25.181 16.853-39.346 23.319-25.185 11.516-52.36 20.762-80.945 23.407-20.38 1.873-41.016.352-61.283-2.265-56.615-7.332-112.179-23.511-158.771-51.189-20.43-12.139-39.684-27.232-48.106-46.862-8.421-19.63-3.031-44.536 17.83-56.179 8.628-4.808 18.946-6.98 29.043-9.021 14.867-3.001 29.97-5.96 43.383-12.06 13.861-6.301 30.266-18.488 27.515-32.439-2.929-14.948-5.297-28.094 9.035-40.266z" fill="#0047FF"/><path d="M464.329 377.771a158.272 158.272 0 01-1.326-34.273l1.326-18.93c-7.306 14.545-5.655 33.69 0 53.203zM470.027 380.938a116.277 116.277 0 01-.638-20.401l.638-11.268c-3.516 8.658-2.721 20.054 0 31.669z" fill="#CACACA"/><path d="M495.353 394.873v6.334a1.913 1.913 0 01-1.9 1.9h-3.165a.634.634 0 00-.633.634v51.936a1.905 1.905 0 01-1.899 1.9h-38.618a1.904 1.904 0 01-1.899-1.9v-51.936a.634.634 0 00-.633-.634h-3.798a1.896 1.896 0 01-1.899-1.9v-6.334a1.892 1.892 0 011.172-1.756c.23-.095.477-.144.727-.144h50.645a1.904 1.904 0 011.9 1.9z" fill="#fff"/><path d="M489.712 404.437h-42.416v1.9h42.416v-1.9z" fill="#E6E6E6"/><path d="M489.655 432.397c-14.194 5.877-28.542 5.942-43.049 0v-13.386a67.575 67.575 0 0143.049 0v13.386z" fill="#87A7D6"/><path d="M285.819 218.193c12.725 0 23.041-10.32 23.041-23.052 0-12.731-10.316-23.052-23.041-23.052-12.726 0-23.041 10.321-23.041 23.052 0 12.732 10.315 23.052 23.041 23.052z" fill="#2F2E41"/><path d="M292.239 172.724a23.044 23.044 0 0119.783 11.237 23.059 23.059 0 01.5 22.755 23.068 23.068 0 004.761-17.972 23.057 23.057 0 00-10.048-15.64 23.037 23.037 0 00-32.985 8.288 22.984 22.984 0 0117.989-8.668z" fill="#2F2E41"/><path d="M242.764 195.092c37.38 0 67.683-30.317 67.683-67.715s-30.303-67.716-67.683-67.716c-37.38 0-67.683 30.318-67.683 67.716 0 37.398 30.303 67.715 67.683 67.715z" fill="#2F2E41"/><path d="M189.644 85.363a67.65 67.65 0 0193.8-7.1c-.554-.527-1.101-1.057-1.676-1.569a67.664 67.664 0 00-95.532 5.638 67.736 67.736 0 005.594 95.58c.575.511 1.166.993 1.753 1.481a67.716 67.716 0 01-20.97-46.218 67.721 67.721 0 0117.031-47.812z" fill="#2F2E41"/><path d="M242.189 194.518c24.076 0 43.593-19.526 43.593-43.613s-19.517-43.613-43.593-43.613c-24.075 0-43.592 19.526-43.592 43.613s19.517 43.613 43.592 43.613z" fill="#977657"/><path d="M264.459 206.358l-46.65 2.098s3.894 24.137-21.344 26.432c-25.238 2.296-48.181-4.59-57.359 12.625-9.177 17.216-5.221 78.517-5.221 78.517s17.207 61.977 30.973 71.159c13.766 9.181 134.219-3.443 134.219-3.443l50.411-63.682-1.708-49.112c-.891-25.645-24.295-44.9-49.502-40.154-.495.093-.993.193-1.495.301 0 0-5.538-4.141-20.732-11.741-9.291-4.648-11.592-23-11.592-23z" fill="#87A6D6"/><path d="M163.197 233.741s11.088 20.127 6.499 48.82c-4.589 28.693 14.664 89.378 14.664 89.378l13.766-3.443s-9.177-59.682-6.883-73.454c2.295-13.773 2.928-54.415-8.544-61.301-11.472-6.887-19.502 0-19.502 0z" fill="#F37748"/><path d="M163.197 233.741s11.088 20.127 6.499 48.82c-4.589 28.693 14.664 89.378 14.664 89.378l13.766-3.443s-9.177-59.682-6.883-73.454c2.295-13.773 2.928-54.415-8.544-61.301-11.472-6.887-19.502 0-19.502 0z" fill="#fff" fill-opacity=".4"/><path d="M295.976 244.294l4.822 127.071 9.177 5.739s13.193-139.448 6.31-139.448h-14.006a6.317 6.317 0 00-4.463 1.849 6.322 6.322 0 00-1.84 4.789z" fill="#F37748"/><path d="M295.976 244.294l4.822 127.071 9.177 5.739s13.193-139.448 6.31-139.448h-14.006a6.317 6.317 0 00-4.463 1.849 6.322 6.322 0 00-1.84 4.789z" fill="#fff" fill-opacity=".4"/><path d="M190.669 369.07a5.738 5.738 0 005.735-5.739 5.738 5.738 0 00-5.735-5.739 5.738 5.738 0 00-5.736 5.739 5.738 5.738 0 005.736 5.739zM305.386 374.808a5.737 5.737 0 005.736-5.738 5.737 5.737 0 10-11.472 0 5.737 5.737 0 005.736 5.738z" fill="#6C63FF"/><path d="M204.907 96.388v43.613h10.096l12.848-13.772-1.721 13.772h44.625l-2.754-13.772 5.507 13.772h7.112V96.388h-75.713z" fill="#2F2E41"/><path d="M198.023 148.036c1.901 0 3.442-2.826 3.442-6.313 0-3.486-1.541-6.312-3.442-6.312-1.9 0-3.441 2.826-3.441 6.312 0 3.487 1.541 6.313 3.441 6.313zM286.355 148.036c1.901 0 3.442-2.826 3.442-6.313 0-3.486-1.541-6.312-3.442-6.312-1.9 0-3.441 2.826-3.441 6.312 0 3.487 1.541 6.313 3.441 6.313z" fill="#977657"/><path d="M370.04 298.916H111.087a7.135 7.135 0 00-5.04 2.089 7.124 7.124 0 00-2.088 5.042V450.4a7.13 7.13 0 007.128 7.131H370.04a7.125 7.125 0 007.127-7.131V306.047a7.125 7.125 0 00-7.127-7.131z" fill="#C2C6C9"/><path d="M240.771 367.585c8.741 0 15.827-7.089 15.827-15.834s-7.086-15.834-15.827-15.834-15.826 7.089-15.826 15.834 7.085 15.834 15.826 15.834z" fill="#fff"/><path d="M589 458H0v-1h589v1z" fill="#C2C6C9"/><path d="M327.78 228.858l79.897-80.567h37.72v-1.267h-38.248l-.186.188-80.083 80.755.9.891zM475.968 134.304a11.943 11.943 0 00-11.928 11.93v137.433a11.94 11.94 0 0011.928 11.929h100.809a11.944 11.944 0 0011.929-11.929V146.234a11.944 11.944 0 00-11.929-11.93H475.968z" fill="#3F3D56"/><path d="M582.502 142.778H470.243v144.345h112.259V142.778z" fill="#F7F9FB"/><path d="M567.827 168.651h-82.909v5.447h82.909v-5.447zM567.827 183.176h-82.909v5.447h82.909v-5.447zM567.827 197.702h-82.909v5.447h82.909v-5.447zM567.827 212.227h-82.909v5.447h82.909v-5.447zM567.827 226.752h-82.909v5.447h82.909v-5.447zM567.827 241.278h-82.909v5.447h82.909v-5.447zM567.827 255.803h-82.909v5.447h82.909v-5.447z" fill="#B6C6F0"/><path opacity=".5" d="M568.993 137.282L487.4 151.948l17.669 110.313 83.467-21.331-19.543-103.648z" fill="#808D9C"/><path d="M568.994 133.625l-82.212 15.046 19.343 105.71 82.212-15.047-19.343-105.709z" fill="#fff"/><path d="M561.714 154.54l-60.717 11.112.73 3.989 60.717-11.112-.73-3.989z" fill="#F37748"/><path d="M561.714 154.54l-60.717 11.112.73 3.989 60.717-11.112-.73-3.989z" fill="#fff" fill-opacity=".4"/><path d="M563.66 165.177l-60.717 11.113.73 3.989 60.717-11.113-.73-3.989z" fill="#F37748"/><path d="M563.66 165.177l-60.717 11.113.73 3.989 60.717-11.113-.73-3.989z" fill="#fff" fill-opacity=".4"/><path d="M565.607 175.815l-60.717 11.112.729 3.989 60.718-11.112-.73-3.989z" fill="#F37748"/><path d="M565.607 175.815l-60.717 11.112.729 3.989 60.718-11.112-.73-3.989z" fill="#fff" fill-opacity=".4"/><path d="M567.553 186.452l-60.717 11.112.73 3.99 60.717-11.113-.73-3.989z" fill="#F37748"/><path d="M567.553 186.452l-60.717 11.112.73 3.99 60.717-11.113-.73-3.989z" fill="#fff" fill-opacity=".4"/><path d="M569.5 197.09l-60.717 11.112.73 3.989 60.717-11.112-.73-3.989z" fill="#F37748"/><path d="M569.5 197.09l-60.717 11.112.73 3.989 60.717-11.112-.73-3.989z" fill="#fff" fill-opacity=".4"/><path d="M571.447 207.727l-60.718 11.112.73 3.989 60.717-11.112-.729-3.989z" fill="#F37748"/><path d="M571.447 207.727l-60.718 11.112.73 3.989 60.717-11.112-.729-3.989z" fill="#fff" fill-opacity=".4"/><path d="M573.393 218.365l-60.717 11.112.73 3.989 60.717-11.112-.73-3.989z" fill="#F37748"/><path d="M573.393 218.365l-60.717 11.112.73 3.989 60.717-11.112-.73-3.989z" fill="#fff" fill-opacity=".4"/><path d="M522.822 276.627c1.635-1.12 3.316-2.284 5.259-2.793 1.772-.464 3.807-.341 5.208.956 1.131 1.048 1.609 2.657.771 4.035a2.567 2.567 0 01-1.699 1.236 2.044 2.044 0 01-1.839-.719c-.44-.485-.703-1.203-.469-1.843.246-.673.902-1.085 1.548-1.315.75-.238 1.524-.397 2.307-.477l3.21-.439 13.137-1.799 14.63-2.003a.455.455 0 00.318-.558.468.468 0 00-.559-.317l-29.111 3.986c-1.053.144-2.121.247-3.163.459a5.318 5.318 0 00-2.271.943c-1.394 1.104-1.295 3.057-.011 4.212 1.299 1.17 3.182.968 4.322-.323a3.92 3.92 0 00.298-4.803c-1.245-1.877-3.512-2.598-5.679-2.332-2.506.308-4.63 1.717-6.666 3.11-.479.328-.025 1.115.459.784zM547.158 127.344h-9.893v-2.025a5.539 5.539 0 00-5.539-5.54h-10.708a5.54 5.54 0 00-5.539 5.54v2.025h-9.893a5.544 5.544 0 00-5.117 3.42 5.53 5.53 0 00-.422 2.12v15.341h52.65v-15.341a5.53 5.53 0 00-1.622-3.917 5.54 5.54 0 00-3.917-1.623z" fill="#3F3D56"/><path d="M332.794 55.49a35.648 35.648 0 015.443-46.098A35.542 35.542 0 01361.117.02a35.536 35.536 0 0123.453 7.823 35.623 35.623 0 0112.696 21.24 35.652 35.652 0 01-4.196 24.393 35.574 35.574 0 01-19.059 15.763 35.52 35.52 0 01-24.715-.482 11.53 11.53 0 01-2.793 4.884 11.494 11.494 0 01-15.488.99 11.519 11.519 0 01-4.252-10.05 11.52 11.52 0 016.031-9.091z" fill="#87A6D6"/><path d="M362.17 15.434c8.161 0 13.775 4.514 13.775 11.004 0 4.297-2.089 7.27-6.115 9.636-3.786 2.192-5.07 3.798-5.07 6.576a1.718 1.718 0 01-1.719 1.715h-4.172a1.717 1.717 0 01-1.719-1.655l-.007-.212c-.37-4.47 1.197-7.249 5.136-9.55 3.678-2.192 5.223-3.58 5.223-6.272 0-2.691-2.612-4.666-5.854-4.666-2.465 0-4.415 1.196-5.31 3.15a3.832 3.832 0 01-1.434 1.607 3.85 3.85 0 01-2.077.582c-2.826 0-4.694-2.998-3.372-5.49 2.091-3.942 6.504-6.425 12.715-6.425zm-5.723 37.2c0-2.496 2.089-4.471 4.657-4.471 2.589 0 4.679 1.953 4.679 4.47 0 2.518-2.09 4.472-4.679 4.472-2.59 0-4.657-1.954-4.657-4.471z" fill="#fff"/></g><defs><clipPath id="clip0"><path fill="#fff" d="M0 0h589.608v458H0z"/></clipPath></defs></svg>