<?xml version="1.0" encoding="UTF-8"?>
<svg width="303px" height="254px" viewBox="0 0 303 254" version="1.1" xmlns="http://www.w3.org/2000/svg" xmlns:xlink="http://www.w3.org/1999/xlink">
    <!-- Generator: sketchtool 55.2 (78181) - https://sketchapp.com -->
    <title>6CD58946-0AFB-4454-8F7E-F235FEADE866</title>
    <desc>Created with sketchtool.</desc>
    <defs>
        <linearGradient x1="49.6122131%" y1="71.4295899%" x2="49.7008946%" y2="28.4673796%" id="linearGradient-1">
            <stop stop-color="#808080" stop-opacity="0.25" offset="0%"></stop>
            <stop stop-color="#808080" stop-opacity="0.12" offset="54%"></stop>
            <stop stop-color="#808080" stop-opacity="0.1" offset="100%"></stop>
        </linearGradient>
        <linearGradient x1="-0.523741434%" y1="50.0020309%" x2="99.9338477%" y2="50.0020309%" id="linearGradient-2">
            <stop stop-color="#000000" stop-opacity="0.09" offset="0%"></stop>
            <stop stop-color="#000000" stop-opacity="0.07" offset="55%"></stop>
            <stop stop-color="#000000" stop-opacity="0.02" offset="100%"></stop>
        </linearGradient>
        <linearGradient x1="50.0025204%" y1="99.9951603%" x2="50.0025204%" y2="0.00439256359%" id="linearGradient-3">
            <stop stop-color="#808080" stop-opacity="0.25" offset="0%"></stop>
            <stop stop-color="#808080" stop-opacity="0.12" offset="54%"></stop>
            <stop stop-color="#808080" stop-opacity="0.1" offset="100%"></stop>
        </linearGradient>
        <linearGradient x1="50.00252%" y1="99.9951605%" x2="50.00252%" y2="0.00284973732%" id="linearGradient-4">
            <stop stop-color="#808080" stop-opacity="0.25" offset="0%"></stop>
            <stop stop-color="#808080" stop-opacity="0.12" offset="54%"></stop>
            <stop stop-color="#808080" stop-opacity="0.1" offset="100%"></stop>
        </linearGradient>
        <linearGradient x1="49.99748%" y1="99.9951605%" x2="49.99748%" y2="0.00284973732%" id="linearGradient-5">
            <stop stop-color="#808080" stop-opacity="0.25" offset="0%"></stop>
            <stop stop-color="#808080" stop-opacity="0.12" offset="54%"></stop>
            <stop stop-color="#808080" stop-opacity="0.1" offset="100%"></stop>
        </linearGradient>
        <linearGradient x1="50%" y1="100%" x2="50%" y2="0.0136911281%" id="linearGradient-6">
            <stop stop-color="#808080" stop-opacity="0.25" offset="0%"></stop>
            <stop stop-color="#808080" stop-opacity="0.12" offset="54%"></stop>
            <stop stop-color="#808080" stop-opacity="0.1" offset="100%"></stop>
        </linearGradient>
    </defs>
    <g id="[ui]-Homepage-sprint-12" stroke="none" stroke-width="1" fill="none" fill-rule="evenodd">
        <g id="Homepage-001" transform="translate(-629.000000, -120.000000)">
            <g id="undraw_connected_8wvi" transform="translate(629.000000, 120.000000)">
                <g id="Group" opacity="0.5" transform="translate(0.000000, 40.000000)" fill="url(#linearGradient-1)" fill-rule="nonzero">
                    <path d="M0.256251429,191.713752 L0,7.57450262 C0,3.73838865 3.1007479,0.628603839 6.92571429,0.628603839 L295.523691,0.243106457 C299.348658,0.243106457 302.449406,3.35289127 302.449406,7.18900524 L302.702194,191.328255 C302.702194,193.170422 301.972523,194.937138 300.6737,196.239747 C299.374876,197.542356 297.613294,198.274154 295.77648,198.274154 L7.17850286,198.659651 C3.35488888,198.659651 0.256250951,195.54851 0.256251429,191.713752 Z" id="Path"></path>
                </g>
                <polygon id="Rectangle" fill="url(#linearGradient-2)" fill-rule="nonzero" transform="translate(150.831716, 140.074554) rotate(-0.080000) translate(-150.831716, -140.074554) " points="22.4772103 54.992827 279.185735 54.9935593 279.186221 225.156281 22.4776968 225.155549"></polygon>
                <path d="M18.6423316,47.1949785 L285.257122,47.1949785 C292.260093,47.1949785 297.937122,52.8720078 297.937122,59.8749785 L297.937122,219.569499 C297.937122,226.57247 292.260093,232.249499 285.257122,232.249499 L18.6423316,232.249499 C11.6393609,232.249499 5.96233157,226.57247 5.96233157,219.569499 L5.96233157,59.8749785 C5.96233157,52.8720078 11.6393609,47.1949785 18.6423316,47.1949785 Z" id="Rectangle" fill="#FFFFFF" fill-rule="nonzero" transform="translate(151.949727, 139.722239) rotate(-0.080000) translate(-151.949727, -139.722239) "></path>
                <polygon id="Rectangle" fill="#E3F2FF" transform="translate(153.000000, 139.500000) rotate(90.000000) translate(-153.000000, -139.500000) " points="73 17 233 17 233 262 73 262"></polygon>
                <circle id="Oval" fill="#DBDBDB" fill-rule="nonzero" cx="18.5" cy="140.5" r="6.5"></circle>
                <circle id="Oval" fill="#DBDBDB" fill-rule="nonzero" cx="287" cy="112" r="2"></circle>
                <path d="M272.9379,136.340164 L299.955756,136.340087 C300.375493,136.340083 300.715757,136.680346 300.715759,137.100083 C300.715759,137.100083 300.715759,137.100084 300.715756,137.100085 L300.715756,137.834405 C300.715754,138.25414 300.375492,138.594403 299.955756,138.594407 L272.9379,138.594484 C272.518163,138.594487 272.177899,138.254225 272.177897,137.834488 C272.177897,137.834488 272.177897,137.834487 272.1779,137.834486 L272.1779,137.100166 C272.177902,136.680431 272.518164,136.340167 272.9379,136.340164 Z" id="Rectangle" fill="#DBDBDB" fill-rule="nonzero" transform="translate(286.446828, 137.467285) rotate(89.920000) translate(-286.446828, -137.467285) "></path>
                <g id="Group" opacity="0.5" transform="translate(197.000000, 0.000000)" fill="url(#linearGradient-3)" fill-rule="nonzero">
                    <path d="M73.8332608,36.4351869 C73.8313931,19.227329 61.4590519,4.41317107 44.2733243,1.04129947 C27.0875966,-2.33057214 9.8671696,6.67742984 3.13039476,22.5631578 C-3.60638008,38.4488858 2.01373415,56.7951323 16.5579343,66.3958879 L16.5822535,66.556215 C17.7828065,67.686987 19.1998033,68.5727917 20.7512676,69.1623832 L20.7999061,69.0020561 C22.5369953,70.4518224 29.7667606,72.7714486 38.0978404,72.7544861 L38.2784977,72.7544861 C43.5523005,72.7544861 49.2777465,71.8401869 54.3153052,69.1657944 C54.3153052,69.1657944 54.3604695,69.0702804 54.4299531,68.8928972 C55.7083104,68.3051675 56.8815018,67.5183997 57.9041315,66.5630374 C57.9249765,66.4243146 57.9446635,66.287866 57.9631925,66.1536916 C67.9115941,59.4153177 73.8462396,48.3020052 73.8332608,36.4351869 L73.8332608,36.4351869 Z" id="Path"></path>
                </g>
                <ellipse id="Oval" fill="#F5F5F5" fill-rule="nonzero" cx="233" cy="36.5" rx="35" ry="35.5"></ellipse>
                <path d="M220.4855,52 C220.4855,52 212.174056,52.6670372 214.369147,67.528627 C215.508145,68.6009575 216.852487,69.4409491 218.324388,70 L223,54.471373 L220.4855,52 Z" id="Path" fill="#FDA57D" fill-rule="nonzero"></path>
                <path d="M246.5145,52 C246.5145,52 254.825944,52.6670372 252.630853,67.528627 C251.491855,68.6009575 250.147513,69.4409491 248.675612,70 L244,54.471373 L246.5145,52 Z" id="Path" fill="#FDA57D" fill-rule="nonzero"></path>
                <path d="M220.242414,26 C220.242414,26 216.205653,37.2438659 214,36.1912063 C214,36.1912063 235.245015,53.7609921 254,36.1912063 C254,36.1912063 250.698457,30.5692733 245.926478,26 L220.242414,26 Z" id="Path" fill="#333333" fill-rule="nonzero"></path>
                <circle id="Oval" fill="#333333" fill-rule="nonzero" cx="234.5" cy="25.5" r="15.5"></circle>
                <path d="M247.397947,52 L219.23261,52 L216.587227,63.3851723 C216.587227,63.3851723 215.042607,68.6514415 216.963617,70.9657339 C218.884626,73.2800263 236.848373,78.5462955 250.029126,71.3454785 C251.179057,68.3135866 251.311282,64.9847859 250.405516,61.8697765 C248.903507,56.5640999 250.029126,61.4900319 250.029126,61.4900319 L247.397947,52 Z" id="Path" fill="#000000" fill-rule="nonzero" opacity="0.1"></path>
                <path d="M247.397947,52 L219.211305,52 L216.587227,63.3851723 C216.587227,63.3851723 215.042607,68.6514415 216.963617,70.9657339 C218.884626,73.2800263 236.848373,78.5462955 250.029126,71.3454785 C251.179057,68.3135866 251.311282,64.9847859 250.405516,61.8697765 C248.903507,56.5640999 250.029126,61.4900319 250.029126,61.4900319 L247.397947,52 Z" id="Path" fill="#000000" fill-rule="nonzero" opacity="0.1"></path>
                <path d="M247.405049,52 L219.225508,52 L216.587227,63.3851723 C216.587227,63.3851723 215.042607,68.6514415 216.963617,70.9657339 C218.884626,73.2800263 236.848373,78.5462955 250.029126,71.3454785 C251.179057,68.3135866 251.311282,64.9847859 250.405516,61.8697765 C248.903507,56.5640999 250.029126,61.4900319 250.029126,61.4900319 L247.405049,52 Z" id="Path" fill="#295FEC" fill-rule="nonzero"></path>
                <path d="M228,42 L239,42 L239,50.8135593 C239,52.1890889 238.441526,53.5082804 237.447435,54.4809267 C236.453345,55.453573 235.105069,56 233.699213,56 L233.300787,56 C230.373243,56 228,53.6779514 228,50.8135593 L228,42 L228,42 Z" id="Path" fill="#000000" fill-rule="nonzero" opacity="0.1"></path>
                <path d="M228,42 L239,42 L239,50.8135593 C239,53.6779514 236.626757,56 233.699213,56 L233.300787,56 C230.373243,56 228,53.6779514 228,50.8135593 L228,42 L228,42 Z" id="Path" fill="#FDA57D" fill-rule="nonzero"></path>
                <path d="M228,43.1370157 C231.545046,44.2783476 235.447499,44.2878762 239,43.1638744 L239,42 L228,42 L228,43.1370157 Z" id="Path" fill="#000000" fill-rule="nonzero" opacity="0.1"></path>
                <circle id="Oval" fill="#FDA57D" fill-rule="nonzero" cx="234.5" cy="28.5" r="15.5"></circle>
                <path d="M219,23 L249,23 C249,23 246.437464,10.2338612 235.094524,11.0363042 C223.751585,11.8387472 219,23 219,23 Z" id="Path" fill="#333333" fill-rule="nonzero"></path>
                <ellipse id="Oval" fill="#FDA57D" fill-rule="nonzero" cx="219.5" cy="28.5" rx="1.5" ry="2.5"></ellipse>
                <ellipse id="Oval" fill="#FDA57D" fill-rule="nonzero" cx="249.5" cy="28.5" rx="1.5" ry="2.5"></ellipse>
                <path d="M219,23 L249,23 C249,23 246.437464,10.2338612 235.094524,11.0363042 C223.751585,11.8387472 219,23 219,23 Z" id="Path" fill="#000000" fill-rule="nonzero" opacity="0.1"></path>
                <g id="Group" opacity="0.5" transform="translate(12.000000, 52.000000)" fill="url(#linearGradient-4)" fill-rule="nonzero">
                    <path d="M73.7637798,36.3731925 C73.7630229,19.0837401 61.390513,4.19879831 44.2039989,0.810863845 C27.0174849,-2.57707062 9.79634083,6.47414834 3.0601375,22.4355653 C-3.67606583,38.3969822 1.94593311,56.8299086 16.4919249,66.474554 L16.5162441,66.6356338 C17.7167971,67.7717147 19.133794,68.6616781 20.6852582,69.2540376 L20.7338967,69.0929577 C22.4709859,70.5495305 29.7007512,72.8800469 38.031831,72.8630048 L38.2124883,72.8630048 C43.4862911,72.8630048 49.2117371,71.9444131 54.2492958,69.2574648 C54.2492958,69.2574648 54.2944601,69.1615023 54.3639437,68.9832864 C55.642301,68.3927973 56.8154924,67.6023359 57.8381221,66.6424883 C57.8589671,66.5031142 57.8786541,66.366025 57.8971831,66.2312207 C67.8442659,59.4604452 73.7775435,48.2950869 73.7637798,36.3731925 L73.7637798,36.3731925 Z" id="Path"></path>
                </g>
                <ellipse id="Oval" fill="#F5F5F5" fill-rule="nonzero" cx="49" cy="87.5" rx="35" ry="35.5"></ellipse>
                <path d="M34.4854996,103 C34.4854996,103 26.1740564,103.667037 28.3691473,118.528627 C29.508145,119.600958 30.8524866,120.440949 32.3243884,121 L37,105.471373 L34.4854996,103 Z" id="Path" fill="#295FEC" fill-rule="nonzero"></path>
                <path d="M61.5169481,103 C61.5169481,103 69.8252545,103.667037 67.6309921,118.528627 C66.4924242,119.600958 65.14859,120.440949 63.6772436,121 L59,105.468038 L61.5169481,103 Z" id="Path" fill="#295FEC" fill-rule="nonzero"></path>
                <circle id="Oval" fill="#333333" fill-rule="nonzero" cx="48.5" cy="75.5" r="15.5"></circle>
                <path d="M61.4025554,101 L33.2185147,101 L30.5872467,112.379742 C30.5872467,112.379742 29.0425752,117.648474 30.9636494,119.963848 C32.8847237,122.279222 50.8490756,127.547953 64.0302724,120.34377 C65.1786513,117.312617 65.3108703,113.98505 64.4066751,110.870806 C62.9046152,105.562649 64.0302724,110.490884 64.0302724,110.490884 L61.4025554,101 Z" id="Path" fill="#4D8AF0" fill-rule="nonzero"></path>
                <path d="M61.4025554,101 L33.2185147,101 L30.5872467,112.379742 C30.5872467,112.379742 29.0425752,117.648474 30.9636494,119.963848 C32.8847237,122.279222 50.8490756,127.547953 64.0302724,120.34377 C65.1786513,117.312617 65.3108703,113.98505 64.4066751,110.870806 C62.9046152,105.562649 64.0302724,110.490884 64.0302724,110.490884 L61.4025554,101 Z" id="Path" fill="#4D8AF0" fill-rule="nonzero"></path>
                <path d="M61.4095269,101 L33.2177738,101 L30.5871115,112.379742 C30.5871115,112.379742 29.0427956,117.648474 30.9634276,119.963848 C32.8840596,122.279222 50.844276,127.547953 64.0224384,120.34377 C65.1752255,117.314199 65.3124032,113.986609 64.412955,110.870806 C62.9112409,105.562649 64.036639,110.490884 64.036639,110.490884 L61.4095269,101 Z" id="Path" fill="#295FEC" fill-rule="nonzero"></path>
                <path d="M42,92 L53,92 L53,100.813559 C53,103.677951 50.6267566,106 47.6992126,106 L47.3007874,106 C44.3732434,106 42,103.677951 42,100.813559 L42,92 L42,92 Z" id="Path" fill="#000000" fill-rule="nonzero" opacity="0.1"></path>
                <path d="M42,92 L53,92 L53,100.813559 C53,103.677951 50.6267566,106 47.6992126,106 L47.3007874,106 C44.3732434,106 42,103.677951 42,100.813559 L42,92 L42,92 Z" id="Path" fill="#FDB797" fill-rule="nonzero"></path>
                <path d="M42,93.1370157 C45.5450463,94.2783476 49.4474989,94.2878762 53,93.1638744 L53,92 L42,92 L42,93.1370157 Z" id="Path" fill="#000000" fill-rule="nonzero" opacity="0.1"></path>
                <circle id="Oval" fill="#FDB797" fill-rule="nonzero" cx="48.5" cy="78.5" r="15.5"></circle>
                <path d="M33,74 L63,74 C63,74 60.4380546,61.2338612 49.0977296,62.0363042 C37.7574046,62.8387472 33,74 33,74 Z" id="Path" fill="#000000" fill-rule="nonzero" opacity="0.1"></path>
                <path d="M33,74 L63,74 C63,74 60.4380546,61.2338612 49.0977296,62.0363042 C37.7574046,62.8387472 33,74 33,74 Z" id="Path" fill="#333333" fill-rule="nonzero"></path>
                <ellipse id="Oval" fill="#FDB797" fill-rule="nonzero" cx="33.5" cy="78.5" rx="1.5" ry="2.5"></ellipse>
                <ellipse id="Oval" fill="#FDB797" fill-rule="nonzero" cx="63.5" cy="78.5" rx="1.5" ry="2.5"></ellipse>
                <path d="M35.4629401,64.373149 C35.7854564,63.227707 36.4970246,62.217718 37.4853709,61.502542 C38.2528575,60.9926534 39.1690014,60.747642 40.0471166,60.4496551 C41.3486667,60.0086652 42.5978797,59.4371053 43.7739207,58.7445079 C45.1083793,57.9564982 46.3598664,57.0095621 47.8291537,56.4897406 C50.3563279,55.5957799 53.1704453,56.0791809 55.780591,56.7215081 C56.431498,56.8524587 57.0583745,57.0756445 57.6405359,57.3837012 C58.2739266,57.8037235 58.8310211,58.320484 59.2895948,58.9133672 L63.4381708,63.6977121 C63.837057,64.1214745 64.1849547,64.5868261 64.4753148,65.0850065 C64.7245229,65.5773981 64.8835596,66.1071302 64.9454868,66.6510931 C65.0935065,67.5308283 64.9381593,68.4327985 64.502972,69.2204022 C63.8115427,70.3659962 62.3595411,70.9421042 60.9766824,70.9950796 C59.5938238,71.0480551 58.2351651,70.6639831 56.9041637,70.289844 C52.6173018,69.0879636 48.261297,67.9721683 43.829235,67.4689015 C41.623043,67.2086227 39.3967969,67.1399164 37.1776849,67.2636217 C36.4862556,67.3066642 35.5597403,67.614584 35.1379684,66.9325252 C34.7542251,66.3398624 35.2727971,64.9625008 35.4629401,64.373149 Z" id="Path" fill="#333333" fill-rule="nonzero"></path>
                <g id="Group" opacity="0.5" transform="translate(110.000000, 161.000000)" fill="url(#linearGradient-5)" fill-rule="nonzero">
                    <path d="M0.274436117,36.356729 C0.275193106,19.1480685 12.647703,4.33268243 29.834217,0.960579434 C47.0207311,-2.41152356 64.2418751,6.59739998 70.9780785,22.4842309 C77.7142818,38.3710618 72.0922829,56.717853 57.5462911,66.3174299 L57.5219718,66.477757 C56.3214189,67.6085291 54.904422,68.4943338 53.3529577,69.0839252 L53.3043192,68.9235981 C51.56723,70.3733645 44.3374648,72.6929907 36.006385,72.6760281 L35.8257277,72.6760281 C30.5519249,72.6760281 24.8264789,71.761729 19.7889202,69.0873364 C19.7889202,69.0873364 19.7437559,68.9918224 19.6742723,68.8144393 C18.3959149,68.2267095 17.2227236,67.4399418 16.2000939,66.4845794 C16.1792488,66.3458567 16.1595618,66.2094081 16.1410329,66.0752336 C6.19395004,59.3360973 0.260672441,48.2229136 0.274436117,36.356729 Z" id="Path"></path>
                </g>
                <ellipse id="Oval" fill="#F5F5F5" fill-rule="nonzero" cx="146" cy="196.5" rx="35" ry="35.5"></ellipse>
                <path d="M132.4855,211 C132.4855,211 124.174056,211.667037 126.369147,226.528627 C127.508145,227.600958 128.852487,228.440949 130.324388,229 L135,213.471373 L132.4855,211 Z" id="Path" fill="#BE7C5E" fill-rule="nonzero"></path>
                <path d="M160.519394,211 C160.519394,211 168.824566,211.667037 166.631131,226.528627 C165.490991,227.601699 164.145291,228.441731 162.672084,229 L158,213.471373 L160.519394,211 Z" id="Path" fill="#BE7C5E" fill-rule="nonzero"></path>
                <path d="M133.227688,186.003386 C133.227688,186.003386 132.598855,187.858856 131.705778,190.005513 C129.75907,194.701749 131.980056,212.735023 136.639443,214.654825 C141.867457,216.81164 148.74114,218.193085 155.882412,215.555473 C162.090468,213.263223 164.003727,192.73793 159.615273,187.736964 C159.100165,187.151204 158.561643,186.56883 157.999707,186 L133.227688,186.003386 Z" id="Path" fill="#333333" fill-rule="nonzero"></path>
                <circle id="Oval" fill="#333333" fill-rule="nonzero" cx="146.5" cy="184.5" r="15.5"></circle>
                <path d="M161.397947,211 L133.218406,211 L130.587227,222.379742 C130.587227,222.379742 129.042607,227.648474 130.963617,229.963848 C132.884626,232.279222 150.848373,237.547953 164.029126,230.34377 C165.179057,227.310461 165.311282,223.980104 164.405516,220.863638 C162.903507,215.555481 164.029126,220.483716 164.029126,220.483716 L161.397947,211 Z" id="Path" fill="#000000" fill-rule="nonzero" opacity="0.1"></path>
                <path d="M161.397947,211 L133.218406,211 L130.587227,222.379742 C130.587227,222.379742 129.042607,227.648474 130.963617,229.963848 C132.884626,232.279222 150.848373,237.547953 164.029126,230.34377 C165.179057,227.310461 165.311282,223.980104 164.405516,220.863638 C162.903507,215.555481 164.029126,220.483716 164.029126,220.483716 L161.397947,211 Z" id="Path" fill="#000000" fill-rule="nonzero" opacity="0.1"></path>
                <path d="M161.397947,211 L133.218406,211 L130.587227,222.379742 C130.587227,222.379742 129.042607,227.648474 130.963617,229.963848 C132.884626,232.279222 150.848373,237.547953 164.029126,230.34377 C165.179057,227.310461 165.311282,223.980104 164.405516,220.863638 C162.903507,215.555481 164.029126,220.483716 164.029126,220.483716 L161.397947,211 Z" id="Path" fill="#295FEC" fill-rule="nonzero"></path>
                <path d="M141,202 L152,202 L152,210.813559 C152,213.677951 149.626757,216 146.699213,216 L146.304252,216 C143.376708,216 141.003465,213.677951 141.003465,210.813559 L141.003465,202 L141,202 Z" id="Path" fill="#000000" fill-rule="nonzero" opacity="0.1"></path>
                <path d="M141,202 L152,202 L152,210.813559 C152,213.677951 149.626757,216 146.699213,216 L146.304252,216 C143.376708,216 141.003465,213.677951 141.003465,210.813559 L141.003465,202 L141,202 Z" id="Path" fill="#BE7C5E" fill-rule="nonzero"></path>
                <path d="M141,203.137016 C144.545046,204.278348 148.447499,204.287876 152,203.163874 L152,202 L141,202 L141,203.137016 Z" id="Path" fill="#000000" fill-rule="nonzero" opacity="0.1"></path>
                <circle id="Oval" fill="#BE7C5E" fill-rule="nonzero" cx="146.5" cy="188.5" r="15.5"></circle>
                <path d="M131,183 L161,183 C161,183 158.438055,170.233861 147.09773,171.036304 C135.757405,171.838747 131,183 131,183 Z" id="Path" fill="#333333" fill-rule="nonzero"></path>
                <ellipse id="Oval" fill="#BE7C5E" fill-rule="nonzero" cx="131.5" cy="187.5" rx="1.5" ry="2.5"></ellipse>
                <ellipse id="Oval" fill="#BE7C5E" fill-rule="nonzero" cx="161.5" cy="187.5" rx="1.5" ry="2.5"></ellipse>
                <path d="M131,184 L161,184 C161,184 158.438055,171.233861 147.09773,172.036304 C135.757405,172.838747 131,184 131,184 Z" id="Path" fill="#000000" fill-rule="nonzero" opacity="0.1"></path>
                <path d="M233,83 L233,195 L198,195" id="Path" stroke="#295FEC" stroke-width="2" stroke-dasharray="12"></path>
                <path d="M49,132 L49,196 L101,196" id="Path" stroke="#295FEC" stroke-width="2" stroke-dasharray="12"></path>
                <g id="Group" opacity="0.5" transform="translate(35.000000, 119.000000)" fill="url(#linearGradient-6)" fill-rule="nonzero">
                    <circle id="Oval" cx="13.1194595" cy="12.8805405" r="12.8313514"></circle>
                </g>
                <circle id="Oval" fill="#39B54A" cx="47" cy="132" r="12"></circle>
                <polygon id="Path" fill="#FFFFFF" fill-rule="nonzero" points="41.875 130.201383 46.3756983 134.285714 52.747905 125 55 126.857143 46.3756983 138 40 130.944932"></polygon>
                <g id="Group" opacity="0.5" transform="translate(222.000000, 65.000000)" fill="url(#linearGradient-6)" fill-rule="nonzero">
                    <circle id="Oval" cx="12.9402703" cy="13.0035135" r="12.8313514"></circle>
                </g>
                <circle id="Oval" fill="#39B54A" cx="235" cy="77" r="12"></circle>
                <polygon id="Path" fill="#FFFFFF" fill-rule="nonzero" points="228.875 75.2013833 233.375698 79.2857143 239.751397 70 242 71.8571429 233.375698 83 227 75.9414738"></polygon>
                <g id="Group" opacity="0.5" transform="translate(134.000000, 228.000000)" fill="url(#linearGradient-6)" fill-rule="nonzero">
                    <circle id="Oval" cx="12.9086486" cy="13.0386486" r="12.8313514"></circle>
                </g>
                <circle id="Oval" fill="#39B54A" cx="148" cy="241" r="12"></circle>
                <polygon id="Path" fill="#FFFFFF" fill-rule="nonzero" points="141.875 240.201383 146.375698 244.285714 152.751397 235 155 236.857143 146.375698 248 140 240.944932"></polygon>
            </g>
        </g>
    </g>
</svg>