<?xml version="1.0" encoding="UTF-8"?>
<svg width="280px" height="32px" viewBox="0 0 280 32" version="1.1" xmlns="http://www.w3.org/2000/svg" xmlns:xlink="http://www.w3.org/1999/xlink">
    <!-- Generator: sketchtool 58 (101010) - https://sketch.com -->
    <title>3CABD969-3566-48C7-BA34-B1BCEDF4AA7E</title>
    <desc>Created with sketchtool.</desc>
    <g id="[Flow]-Sprint-17" stroke="none" stroke-width="1" fill="none" fill-rule="evenodd">
        <g id="005b-Battery-dispenser---obtenir-batterie---Loading" transform="translate(-616.000000, -156.000000)">
            <g id="card-dispenser" transform="translate(564.000000, 104.000000)">
                <g id="powerbank-dispenser" transform="translate(32.000000, 32.000000)">
                    <g id="header-logo" transform="translate(20.000000, 20.000000)">
                        <rect id="Rectangle-Copy-10" fill="#000000" x="0" y="0" width="280" height="32" rx="4"></rect>
                        <g id="elements" transform="translate(47.000000, 4.000000)">
                            <g id="sticker-logo" transform="translate(27.000000, 0.000000)">
                                <rect id="Rectangle-Copy-14" fill-opacity="0.9" fill="#FFFFFF" x="0" y="0" width="132" height="24" rx="2"></rect>
                                <g id="logo" transform="translate(40.046753, 6.140260)" fill-rule="nonzero">
                                    <path d="M11.6415584,7.04415584 L10.6285714,7.04415584 L11.5168831,5.85974026 L12.7324675,5.85974026 L13.6207792,7.04415584 L12.6077922,7.04415584 L12.1246753,6.40519481 L11.6415584,7.04415584 L11.6415584,7.04415584 Z M11.438961,11.625974 L11.438961,7.4961039 L12.7948052,7.4961039 L12.7948052,11.625974 L11.438961,11.625974 L11.438961,11.625974 Z" id="Shape" fill="#E42313"></path>
                                    <polygon id="Path" fill="#E42313" points="13.4493506 5.93766234 14.8051948 5.93766234 14.8051948 11.625974 13.4493506 11.625974"></polygon>
                                    <path d="M16.5194805,9.8961039 C16.5506494,10.4571429 16.8623377,10.8311688 17.438961,10.8311688 C17.7662338,10.8311688 18.0779221,10.6753247 18.2025974,10.3792208 L19.4649351,10.3792208 C19.2155844,11.3298701 18.3272727,11.7506494 17.4077922,11.7506494 C16.0675325,11.7506494 15.1480519,10.9402597 15.1480519,9.55324675 C15.1480519,8.29090909 16.161039,7.38701299 17.3766234,7.38701299 C18.8571429,7.38701299 19.5896104,8.50909091 19.5272727,9.8961039 L16.5194805,9.8961039 L16.5194805,9.8961039 Z M18.187013,9.13246753 C18.1558442,8.66493506 17.8285714,8.29090909 17.3766234,8.29090909 C16.8935065,8.29090909 16.5818182,8.63376623 16.5038961,9.13246753 L18.187013,9.13246753 L18.187013,9.13246753 Z" id="Shape" fill="#E42313"></path>
                                    <path d="M22.8311688,11.625974 L22.3012987,11.625974 L22.3012987,11.1896104 L22.2857143,11.1896104 C22.1142857,11.5480519 21.6935065,11.7038961 21.2571429,11.7038961 C20.2597403,11.7038961 19.761039,10.9090909 19.761039,10.0051948 C19.761039,9.08571429 20.2441558,8.32207792 21.2415584,8.32207792 C21.5688312,8.32207792 22.0519481,8.44675325 22.2857143,8.83636364 L22.3012987,8.83636364 L22.3012987,7.16883117 L22.8311688,7.16883117 L22.8311688,11.625974 L22.8311688,11.625974 Z M21.3194805,11.2363636 C22.0363636,11.2363636 22.3168831,10.6285714 22.3168831,10.0207792 C22.3168831,9.38181818 22.0207792,8.78961039 21.2883117,8.78961039 C20.5558442,8.78961039 20.3220779,9.41298701 20.3220779,10.0519481 C20.3220779,10.6441558 20.6337662,11.2363636 21.3194805,11.2363636 L21.3194805,11.2363636 Z" id="Shape" fill="#E42313"></path>
                                    <path d="M26.1038961,10.5974026 C25.9636364,11.3142857 25.4493506,11.7038961 24.7168831,11.7038961 C23.6883117,11.7038961 23.1896104,10.987013 23.1584416,10.0051948 C23.1584416,9.03896104 23.7974026,8.32207792 24.6857143,8.32207792 C25.838961,8.32207792 26.1818182,9.3974026 26.1506494,10.1766234 L23.7194805,10.1766234 C23.7038961,10.7376623 24.0155844,11.2363636 24.7324675,11.2363636 C25.1688312,11.2363636 25.4805195,11.0181818 25.574026,10.5974026 L26.1038961,10.5974026 L26.1038961,10.5974026 Z M25.5896104,9.69350649 C25.5584416,9.17922078 25.1844156,8.77402597 24.6545455,8.77402597 C24.0935065,8.77402597 23.7662338,9.19480519 23.7194805,9.69350649 L25.5896104,9.69350649 L25.5896104,9.69350649 Z" id="Shape" fill="#E42313"></path>
                                    <polygon id="Path" fill="#E42313" points="26.5090909 5.93766234 30.6857143 5.93766234 30.6857143 7.13766234 27.974026 7.13766234 27.974026 8.29090909 30.3272727 8.29090909 30.3272727 9.44415584 27.974026 9.44415584 27.974026 11.625974 26.5090909 11.625974"></polygon>
                                    <path d="M30.9506494,7.4961039 L32.2597403,7.4961039 L32.2597403,8.21298701 L32.2753247,8.21298701 C32.4779221,7.68311688 32.9298701,7.4025974 33.5220779,7.4025974 C33.6311688,7.4025974 33.7402597,7.41818182 33.8337662,7.43376623 L33.8337662,8.66493506 C33.6623377,8.61818182 33.5064935,8.58701299 33.3194805,8.58701299 C32.6493506,8.58701299 32.3064935,9.05454545 32.3064935,9.56883117 L32.3064935,11.6103896 L30.9506494,11.6103896 L30.9506494,7.4961039 L30.9506494,7.4961039 Z" id="Path" fill="#E42313"></path>
                                    <path d="M33.8493506,8.77402597 C33.8805195,8.22857143 34.1298701,7.88571429 34.4883117,7.66753247 C34.8623377,7.46493506 35.3298701,7.38701299 35.7974026,7.38701299 C36.7792208,7.38701299 37.7298701,7.60519481 37.7298701,8.77402597 L37.7298701,10.5818182 C37.7298701,10.9246753 37.7298701,11.3142857 37.8857143,11.6415584 L36.5298701,11.6415584 C36.4831169,11.5168831 36.4675325,11.3922078 36.4519481,11.2519481 C36.1090909,11.6103896 35.5792208,11.7662338 35.0961039,11.7662338 C34.3012987,11.7662338 33.6935065,11.3766234 33.6935065,10.5194805 C33.6935065,9.17922078 35.1584416,9.27272727 36.0935065,9.08571429 C36.3272727,9.03896104 36.4519481,8.96103896 36.4519481,8.6961039 C36.4519481,8.38441558 36.0779221,8.25974026 35.7974026,8.25974026 C35.4233766,8.25974026 35.1896104,8.43116883 35.1272727,8.77402597 L33.8493506,8.77402597 L33.8493506,8.77402597 Z M35.5948052,10.9090909 C36.2337662,10.9090909 36.4519481,10.5506494 36.4207792,9.69350649 C36.2337662,9.81818182 35.8753247,9.83376623 35.5792208,9.91168831 C35.2831169,9.98961039 35.0181818,10.1142857 35.0181818,10.4415584 C35.0337662,10.7688312 35.2987013,10.9090909 35.5948052,10.9090909 L35.5948052,10.9090909 Z" id="Shape" fill="#E42313"></path>
                                    <path d="M38.2285714,7.4961039 L39.5376623,7.4961039 L39.5376623,8.05714286 L39.5532468,8.05714286 C39.8025974,7.63636364 40.3636364,7.37142857 40.8467532,7.37142857 C42.2181818,7.37142857 42.3428571,8.36883117 42.3428571,8.97662338 L42.3428571,11.625974 L40.987013,11.625974 L40.987013,9.63116883 C40.987013,9.07012987 41.0493506,8.49350649 40.3168831,8.49350649 C39.8025974,8.49350649 39.5844156,8.92987013 39.5844156,9.38181818 L39.5844156,11.6415584 L38.2285714,11.6415584 L38.2285714,7.4961039 L38.2285714,7.4961039 Z" id="Path" fill="#E42313"></path>
                                    <path d="M45.5376623,9.00779221 C45.5220779,8.66493506 45.225974,8.41558442 44.8831169,8.41558442 C44.1194805,8.41558442 44.0103896,9.05454545 44.0103896,9.63116883 C44.0103896,10.161039 44.2441558,10.7064935 44.8207792,10.7064935 C45.2883117,10.7064935 45.5376623,10.4415584 45.5844156,10.0051948 L46.8935065,10.0051948 C46.7688312,11.1116883 45.9116883,11.7506494 44.8207792,11.7506494 C43.574026,11.7506494 42.6545455,10.8935065 42.6545455,9.63116883 C42.6545455,8.32207792 43.4961039,7.37142857 44.8207792,7.37142857 C45.8493506,7.37142857 46.7688312,7.91688312 46.8623377,9.00779221 L45.5376623,9.00779221 L45.5376623,9.00779221 Z" id="Path" fill="#E42313"></path>
                                    <path d="M48.3116883,9.8961039 C48.3428571,10.4571429 48.6545455,10.8311688 49.2311688,10.8311688 C49.5584416,10.8311688 49.8701299,10.6753247 49.9948052,10.3792208 L51.2571429,10.3792208 C51.0077922,11.3298701 50.1194805,11.7506494 49.2,11.7506494 C47.8597403,11.7506494 46.9402597,10.9402597 46.9402597,9.55324675 C46.9402597,8.29090909 47.9532468,7.38701299 49.1688312,7.38701299 C50.6493506,7.38701299 51.3974026,8.50909091 51.3194805,9.8961039 L48.3116883,9.8961039 L48.3116883,9.8961039 Z M49.9948052,9.13246753 C49.9636364,8.66493506 49.6519481,8.29090909 49.1844156,8.29090909 C48.7012987,8.29090909 48.3896104,8.63376623 48.3116883,9.13246753 L49.9948052,9.13246753 L49.9948052,9.13246753 Z" id="Shape" fill="#E42313"></path>
                                    <path d="M11.438961,0.124675325 L13.7142857,0.124675325 C14.6181818,0.124675325 15.1948052,0.623376623 15.1948052,1.4025974 C15.1948052,1.97922078 14.9298701,2.46233766 14.3532468,2.63376623 L14.3532468,2.64935065 C14.9142857,2.75844156 15.038961,3.17922078 15.0857143,3.64675325 C15.1324675,4.12987013 15.1012987,4.65974026 15.3662338,4.98701299 L14.6493506,4.98701299 C14.4623377,4.78441558 14.5714286,4.27012987 14.4779221,3.78701299 C14.4155844,3.3038961 14.2909091,2.91428571 13.6675325,2.91428571 L12.0935065,2.91428571 L12.0935065,4.98701299 L11.4545455,4.98701299 L11.4545455,0.124675325 L11.438961,0.124675325 Z M13.4337662,2.35324675 C14.0415584,2.35324675 14.5558442,2.1974026 14.5558442,1.4961039 C14.5558442,1.01298701 14.2909091,0.67012987 13.6987013,0.67012987 L12.0935065,0.67012987 L12.0935065,2.35324675 L13.4337662,2.35324675 Z" id="Shape" fill="#2A327B"></path>
                                    <path d="M18.9974026,3.84935065 C18.8415584,4.62857143 18.2805195,5.04935065 17.5012987,5.04935065 C16.3792208,5.04935065 15.8493506,4.27012987 15.8181818,3.19480519 C15.8181818,2.13506494 16.5038961,1.37142857 17.4701299,1.37142857 C18.7168831,1.37142857 19.0909091,2.54025974 19.0597403,3.38181818 L16.425974,3.38181818 C16.4103896,3.98961039 16.7532468,4.53506494 17.5168831,4.53506494 C18,4.53506494 18.3272727,4.3012987 18.4207792,3.84935065 L18.9974026,3.84935065 Z M18.4363636,2.88311688 C18.4051948,2.33766234 18,1.88571429 17.4233766,1.88571429 C16.8155844,1.88571429 16.4571429,2.33766234 16.4103896,2.88311688 L18.4363636,2.88311688 Z M17.5636364,1.82076576e-14 L18.3116883,1.82076576e-14 L17.4233766,0.966233766 L16.987013,0.966233766 L17.5636364,1.82076576e-14 Z" id="Shape" fill="#2A327B"></path>
                                    <path d="M22.6753247,4.67532468 C22.6753247,5.81298701 22.1454545,6.40519481 21.038961,6.40519481 C20.3844156,6.40519481 19.6207792,6.14025974 19.5896104,5.37662338 L20.1662338,5.37662338 C20.1974026,5.7974026 20.6961039,5.95324675 21.0701299,5.95324675 C21.8181818,5.95324675 22.1298701,5.40779221 22.1298701,4.62857143 L22.1298701,4.37922078 L22.1142857,4.37922078 C21.9272727,4.8 21.4597403,5.01818182 21.0233766,5.01818182 C19.9792208,5.01818182 19.4493506,4.19220779 19.4493506,3.24155844 C19.4493506,2.41558442 19.8545455,1.38701299 21.0701299,1.38701299 C21.5064935,1.38701299 21.9116883,1.58961039 22.1142857,1.96363636 L22.1142857,1.96363636 L22.1142857,1.46493506 L22.6597403,1.46493506 L22.6597403,4.67532468 L22.6753247,4.67532468 Z M22.0987013,3.14805195 C22.0987013,2.52467532 21.8337662,1.88571429 21.1012987,1.88571429 C20.3532468,1.88571429 20.0571429,2.49350649 20.0571429,3.16363636 C20.0571429,3.8025974 20.2909091,4.5038961 21.0545455,4.5038961 C21.8181818,4.5038961 22.0987013,3.8025974 22.0987013,3.14805195 Z" id="Shape" fill="#2A327B"></path>
                                    <path d="M24.5792208,0.825974026 L23.5792208,0.825974026 L23.5792208,0.124675325 L24.5792208,0.124675325 L24.5792208,0.825974026 Z M23.5792208,1.46493506 L24.5792208,1.46493506 L24.5792208,4.97142857 L23.5792208,4.97142857 L23.5792208,1.46493506 Z" id="Shape" fill="#2A327B"></path>
                                    <path d="M26.5714286,1.37142857 C27.6779221,1.37142857 28.2701299,2.18181818 28.2701299,3.21038961 C28.2701299,4.23896104 27.6779221,5.04935065 26.5714286,5.04935065 C25.4649351,5.04935065 24.8727273,4.23896104 24.8727273,3.21038961 C24.8571429,2.18181818 25.4493506,1.37142857 26.5714286,1.37142857 Z M26.5714286,4.53506494 C27.1792208,4.53506494 27.6623377,4.05194805 27.6623377,3.21038961 C27.6623377,2.35324675 27.1792208,1.88571429 26.5714286,1.88571429 C25.9636364,1.88571429 25.4805195,2.36883117 25.4805195,3.21038961 C25.4805195,4.06753247 25.9636364,4.53506494 26.5714286,4.53506494 Z" id="Shape" fill="#2A327B"></path>
                                    <path d="M28.9558442,1.46493506 L29.5012987,1.46493506 L29.5012987,2.02597403 L29.5168831,2.02597403 C29.7662338,1.58961039 30.1558442,1.38701299 30.6545455,1.38701299 C31.574026,1.38701299 31.8701299,1.91688312 31.8701299,2.66493506 L31.8701299,4.97142857 L31.2779221,4.97142857 L31.2779221,2.58701299 C31.2779221,2.16623377 31.012987,1.88571429 30.561039,1.88571429 C29.8597403,1.88571429 29.5168831,2.35324675 29.5168831,2.99220779 L29.5168831,4.97142857 L28.9402597,4.97142857 L28.9402597,1.46493506 L28.9558442,1.46493506 Z" id="Path" fill="#2A327B"></path>
                                    <path d="M6.91948052,4.28571429 C6.88831169,4.3012987 6.77922078,4.33246753 6.79480519,4.33246753 C6.77922078,4.33246753 6.77922078,4.33246753 6.77922078,4.31688312 C6.79480519,4.27012987 6.59220779,4.45714286 6.59220779,4.37922078 C6.59220779,4.36363636 6.60779221,4.37922078 6.57662338,4.37922078 C6.65454545,4.39480519 6.14025974,4.55064935 6.14025974,4.53506494 C6.10909091,4.48831169 6.12467532,4.42597403 6.15584416,4.37922078 C6.2025974,4.28571429 6.06233766,4.12987013 6.12467532,4.17662338 C6.09350649,4.14545455 6.09350649,4.11428571 6.12467532,4.06753247 C6.14025974,4.08311688 6.12467532,4.06753247 6.14025974,4.02077922 C6.15584416,4.00519481 6.10909091,3.95844156 6.15584416,3.97402597 C6.18701299,3.95844156 6.23376623,3.78701299 6.2025974,3.66233766 C6.12467532,3.47532468 6.15584416,2.08831169 6.2025974,2.13506494 C6.21818182,2.04155844 6.12467532,1.96363636 6.17142857,1.9012987 C6.17142857,1.82337662 6.10909091,1.82337662 6.10909091,1.77662338 C6.07792208,1.63636364 5.85974026,1.63636364 5.89090909,1.60519481 C5.78181818,1.63636364 5.37662338,2.27532468 5.37662338,2.29090909 C5.40779221,2.25974026 5.11168831,2.71168831 5.11168831,2.71168831 C5.08051948,2.71168831 5.04935065,2.75844156 5.03376623,2.83636364 C5.03376623,2.85194805 4.86233766,3.05454545 4.87792208,3.00779221 C4.81558442,3.1012987 4.75324675,3.19480519 4.70649351,3.28831169 C4.75324675,3.25714286 4.62857143,3.36623377 4.64415584,3.36623377 C4.64415584,3.35064935 4.51948052,3.67792208 4.51948052,3.64675325 C4.53506494,3.6 4.36363636,3.8025974 4.34805195,3.8025974 C4.31688312,3.95844156 3.75584416,3.58441558 3.75584416,3.42857143 C3.75584416,3.42857143 3.74025974,3.27272727 3.67792208,3.25714286 C3.70909091,3.28831169 3.28831169,2.8987013 3.31948052,2.92987013 C3.1012987,2.63376623 2.92987013,2.64935065 2.6025974,2.35324675 C2.6025974,2.35324675 2.52467532,2.16623377 2.47792208,2.1038961 C2.29090909,2.16623377 2.13506494,2.35324675 2.16623377,2.4 C2.11948052,2.41558442 2.1038961,2.35324675 2.08831169,2.33766234 C2.05714286,2.4 2.13506494,2.82077922 2.13506494,2.82077922 C2.11948052,2.88311688 2.16623377,3.19480519 2.18181818,3.14805195 L2.21298701,3.17922078 C2.21298701,3.17922078 2.18181818,3.22597403 2.22857143,3.25714286 C2.27532468,3.35064935 2.38441558,3.41298701 2.33766234,3.53766234 C2.29090909,3.55324675 2.33766234,3.72467532 2.33766234,3.66233766 C2.29090909,3.91168831 2.88311688,4.39480519 2.80519481,4.73766234 C2.77402597,4.76883117 2.91428571,4.95584416 2.88311688,4.94025974 C2.83636364,5.0025974 2.68051948,5.03376623 2.57142857,5.06493506 C2.54025974,5.08051948 2.50909091,5.06493506 2.47792208,5.04935065 C2.44675325,5.04935065 2.16623377,4.92467532 2.1038961,4.98701299 C2.1038961,5.0025974 1.88571429,4.94025974 1.87012987,4.94025974 C1.91688312,4.89350649 1.62077922,5.0025974 1.65194805,4.90909091 C1.66753247,4.83116883 1.4025974,4.98701299 1.46493506,4.94025974 C1.46493506,4.94025974 1.34025974,5.0025974 1.34025974,4.98701299 C1.35584416,4.95584416 1.23116883,4.98701299 1.26233766,4.98701299 C1.24675325,4.98701299 1.12207792,4.95584416 1.13766234,4.95584416 C1.07532468,4.90909091 1.05974026,4.97142857 0.981818182,4.94025974 C0.981818182,4.95584416 0.888311688,4.95584416 0.872727273,4.95584416 C0.872727273,4.95584416 0.701298701,4.95584416 0.701298701,4.95584416 C0.716883117,4.95584416 0.561038961,5.0025974 0.545454545,4.95584416 C0.545454545,4.95584416 0.420779221,5.04935065 0.38961039,4.98701299 C0.405194805,4.94025974 0.233766234,5.03376623 0.218181818,5.03376623 C0.202597403,5.03376623 0.109090909,4.98701299 0.124675325,5.01818182 C0.109090909,5.01818182 1.77635684e-14,5.15844156 1.77635684e-14,5.15844156 C0.0155844156,5.15844156 0.561038961,5.57922078 0.483116883,5.51688312 C0.483116883,5.51688312 0.545454545,5.56363636 0.685714286,5.65714286 C0.67012987,5.71948052 0.903896104,5.65714286 0.857142857,5.7974026 C1.07532468,5.67272727 1.52727273,6.26493506 1.68311688,6.17142857 C1.6987013,6.17142857 1.77662338,6.28051948 1.79220779,6.26493506 C1.76103896,6.23376623 1.9012987,6.31168831 1.85454545,6.31168831 C1.87012987,6.34285714 1.87012987,6.32727273 1.93246753,6.40519481 C2.1038961,6.38961039 2.18181818,6.54545455 2.24415584,6.59220779 C2.44675325,6.96623377 1.62077922,7.34025974 1.55844156,7.52727273 C1.55844156,7.54285714 1.55844156,7.54285714 1.54285714,7.54285714 C1.55844156,7.55844156 1.43376623,7.58961039 1.41818182,7.65194805 L1.29350649,7.80779221 C1.18441558,7.77662338 0.903896104,8.21298701 0.794805195,8.27532468 L0.52987013,8.4 C0.52987013,8.4 0.498701299,8.43116883 0.467532468,8.47792208 C0.436363636,8.50909091 0.405194805,8.55584416 0.374025974,8.57142857 C0.358441558,8.58701299 0.187012987,8.74285714 0.187012987,8.74285714 L0.14025974,8.82077922 L0.202597403,8.85194805 C0.202597403,8.85194805 0.155844156,8.8987013 0.155844156,8.92987013 C0.14025974,8.94545455 0.124675325,9.00779221 0.171428571,9.00779221 C0.218181818,9.02337662 0.249350649,9.02337662 0.264935065,9.03896104 C0.280519481,9.07012987 0.483116883,9.08571429 0.514285714,9.07012987 C0.52987013,9.07012987 0.638961039,9.02337662 0.638961039,9.02337662 C0.748051948,8.99220779 1.07532468,8.99220779 1.12207792,9.02337662 C1.12207792,9.02337662 1.60519481,8.8987013 1.62077922,8.86753247 C1.63636364,8.86753247 1.93246753,8.75844156 1.93246753,8.75844156 C2.01038961,8.72727273 2.1974026,8.6961039 2.24415584,8.63376623 C2.18181818,8.64935065 2.47792208,8.54025974 2.55584416,8.58701299 C2.58701299,8.6025974 3.27272727,8.46233766 3.3038961,8.36883117 C3.36623377,8.36883117 3.36623377,8.43116883 3.36623377,8.43116883 C3.35064935,8.52467532 3.36623377,8.77402597 3.33506494,8.82077922 C3.33506494,8.78961039 3.24155844,8.88311688 3.27272727,8.94545455 C3.33506494,8.96103896 3.33506494,8.94545455 3.38181818,9.03896104 C3.36623377,8.99220779 3.38181818,9.24155844 3.38181818,9.33506494 C3.38181818,9.38181818 3.45974026,9.53766234 3.33506494,9.61558442 C3.33506494,9.61558442 3.25714286,9.77142857 3.25714286,9.77142857 C3.27272727,9.69350649 3.27272727,9.8025974 3.25714286,9.78701299 C3.31948052,9.75584416 3.3038961,9.95844156 3.28831169,9.97402597 C3.3038961,9.94285714 3.25714286,10.0051948 3.25714286,9.98961039 C3.14805195,10.1922078 3.36623377,10.2233766 3.24155844,10.238961 C3.3038961,10.2545455 3.31948052,10.5350649 3.31948052,10.4883117 C3.33506494,10.5818182 3.31948052,10.6753247 3.28831169,10.7532468 C3.27272727,10.6909091 3.24155844,10.8623377 3.24155844,10.9090909 C3.25714286,11.0181818 3.21038961,11.2051948 3.3038961,11.2519481 C3.28831169,11.2051948 3.38181818,11.3454545 3.38181818,11.3454545 C3.61558442,11.438961 3.66233766,11.1428571 3.77142857,11.0961039 C3.8025974,11.0961039 3.84935065,10.9558442 3.88051948,10.9558442 C3.88051948,10.9402597 4.02077922,10.2857143 4.12987013,10.3168831 C4.12987013,10.3168831 4.3012987,10.0519481 4.34805195,9.92727273 C4.34805195,9.94285714 4.25454545,9.83376623 4.44155844,9.75584416 C4.53506494,9.78701299 4.56623377,9.55324675 4.5974026,9.41298701 C4.5974026,9.33506494 4.65974026,9.36623377 4.65974026,9.28831169 C4.65974026,9.3038961 4.81558442,9.03896104 4.84675325,8.92987013 C4.87792208,8.92987013 4.87792208,8.80519481 4.89350649,8.82077922 C4.84675325,8.77402597 4.94025974,8.72727273 4.92467532,8.6961039 C4.94025974,8.63376623 4.94025974,8.57142857 4.97142857,8.57142857 C5.0025974,8.44675325 5.08051948,8.49350649 5.0961039,8.50909091 C5.12727273,8.52467532 5.18961039,8.49350649 5.18961039,8.58701299 C5.15844156,8.63376623 5.31428571,8.68051948 5.2987013,8.71168831 C5.2987013,8.6961039 6.04675325,9.56883117 6.24935065,9.74025974 C6.26493506,9.75584416 6.84155844,10.3168831 6.81038961,10.3168831 C6.87272727,10.3480519 6.93506494,10.4727273 6.93506494,10.4571429 C6.9038961,10.4883117 7.04415584,10.5506494 7.07532468,10.5506494 C7.16883117,10.7064935 7.16883117,10.6753247 7.21558442,10.6441558 C7.23116883,10.7064935 7.34025974,10.6753247 7.38701299,10.7064935 C7.37142857,10.6753247 7.48051948,10.6441558 7.44935065,10.612987 C7.48051948,10.6285714 7.43376623,10.4883117 7.46493506,10.5038961 C7.43376623,10.4415584 7.21558442,10.1454545 7.23116883,10.0987013 C7.23116883,10.0831169 7.26233766,10.0831169 7.27792208,10.0831169 C7.27792208,10.0675325 7.24675325,10.0519481 7.23116883,10.0363636 C7.27792208,10.0363636 7.27792208,10.0207792 7.26233766,9.97402597 C7.21558442,9.98961039 7.16883117,9.74025974 7.2,9.70909091 C7.21558442,9.64675325 7.02857143,8.86753247 6.93506494,8.78961039 C6.93506494,8.75844156 6.9038961,8.58701299 6.9038961,8.57142857 C6.74805195,8.47792208 6.87272727,8.29090909 6.77922078,8.25974026 C6.74805195,8.30649351 6.63896104,8.13506494 6.62337662,7.97922078 C6.57662338,7.88571429 6.62337662,7.66753247 6.59220779,7.6987013 C6.56103896,7.66753247 6.74805195,7.58961039 6.79480519,7.68311688 C7.18441558,7.83896104 7.93246753,7.58961039 8.21298701,7.79220779 C8.27532468,7.66753247 8.41558442,7.76103896 8.33766234,7.74545455 C8.32207792,7.76103896 8.35324675,7.76103896 8.36883117,7.77662338 C8.33766234,7.77662338 8.63376623,7.74545455 8.68051948,7.77662338 C8.57142857,7.74545455 8.85194805,7.76103896 8.83636364,7.76103896 C8.72727273,7.74545455 9.03896104,7.79220779 9.36623377,7.58961039 C9.47532468,7.55844156 9.45974026,7.4961039 9.50649351,7.38701299 C9.49090909,7.48051948 9.53766234,7.29350649 9.44415584,7.23116883 C8.86753247,7.09090909 8.41558442,6.67012987 7.83896104,6.51428571 C7.62077922,6.46753247 7.26233766,5.92207792 7.07532468,5.95324675 C7.41818182,5.56363636 7.76103896,5.15844156 8.11948052,4.83116883 C8.18181818,4.76883117 8.8987013,3.98961039 8.8987013,4.00519481 C8.92987013,3.97402597 8.96103896,3.83376623 8.96103896,3.8961039 C8.96103896,3.88051948 8.96103896,3.84935065 8.92987013,3.81818182 C8.92987013,3.83376623 8.66493506,3.61558442 8.58701299,3.75584416 C8.68051948,3.81818182 8.4,3.83376623 8.32207792,3.84935065 C8.30649351,3.86493506 8.27532468,3.86493506 8.25974026,3.84935065 C8.18181818,3.83376623 8.08831169,3.91168831 8.04155844,3.92727273 C7.93246753,3.83376623 7.66753247,4.00519481 7.55844156,4.05194805 C7.57402597,4.05194805 7.51168831,4.05194805 7.41818182,4.03636364 C7.37142857,4.0987013 7.38701299,4.08311688 7.38701299,4.08311688 C7.35584416,4.0987013 7.32467532,4.12987013 7.18441558,4.17662338 C7.2,4.17662338 7.09090909,4.22337662 7.05974026,4.22337662 C7.05974026,4.23896104 7.04415584,4.28571429 6.98181818,4.28571429 C6.93506494,4.28571429 6.93506494,4.27012987 6.91948052,4.28571429" id="Path" fill="#E42313"></path>
                                </g>
                            </g>
                            <g id="qr-code-1" transform="translate(0.000000, 2.000000)">
                                <rect id="Rectangle-Copy-12" stroke="#FFFFFF" fill-opacity="0.9" fill="#FFFFFF" x="0" y="0" width="20" height="20" rx="1"></rect>
                                <path d="M9,2 L2.5,2 C2.224,2 2,2.2235 2,2.5 L2,9 C2,9.2765 2.224,9.5 2.5,9.5 L9,9.5 C9.276,9.5 9.5,9.2765 9.5,9 L9.5,2.5 C9.5,2.2235 9.276,2 9,2 Z M8.5,8.5 L3,8.5 L3,3 L8.5,3 L8.5,8.5 Z M4.5,7.5 L7,7.5 C7.276,7.5 7.5,7.2765 7.5,7 L7.5,4.5 C7.5,4.2235 7.276,4 7,4 L4.5,4 C4.224,4 4,4.2235 4,4.5 L4,7 C4,7.2765 4.224,7.5 4.5,7.5 Z M5,5 L6.5,5 L6.5,6.5 L5,6.5 L5,5 Z M17.5,2 L11,2 C10.724,2 10.5,2.2235 10.5,2.5 L10.5,9 C10.5,9.2765 10.724,9.5 11,9.5 L17.5,9.5 C17.776,9.5 18,9.2765 18,9 L18,2.5 C18,2.2235 17.776,2 17.5,2 Z M17,8.5 L11.5,8.5 L11.5,3 L17,3 L17,8.5 Z M13,7.5 L15.5,7.5 C15.776,7.5 16,7.2765 16,7 L16,4.5 C16,4.2235 15.776,4 15.5,4 L13,4 C12.724,4 12.5,4.2235 12.5,4.5 L12.5,7 C12.5,7.2765 12.724,7.5 13,7.5 Z M13.5,5 L15,5 L15,6.5 L13.5,6.5 L13.5,5 Z M17.5,10.5 L11,10.5 C10.724,10.5 10.5,10.7235 10.5,11 L10.5,17.5 C10.5,17.7765 10.724,18 11,18 L17.5,18 C17.776,18 18,17.7765 18,17.5 L18,11 C18,10.7235 17.776,10.5 17.5,10.5 Z M17,17 L11.5,17 L11.5,11.5 L17,11.5 L17,17 Z M13,16 L15.5,16 C15.776,16 16,15.7765 16,15.5 L16,13 C16,12.7235 15.776,12.5 15.5,12.5 L13,12.5 C12.724,12.5 12.5,12.7235 12.5,13 L12.5,15.5 C12.5,15.7765 12.724,16 13,16 Z M13.5,13.5 L15,13.5 L15,15 L13.5,15 L13.5,13.5 Z M9,10.5 L6.5,10.5 C6.224,10.5 6,10.7235 6,11 L6,13 L2.5,13 C2.224,13 2,13.2235 2,13.5 L2,17.5 C2,17.7765 2.224,18 2.5,18 L6.5,18 C6.776,18 7,17.7765 7,17.5 L7,14 L9,14 C9.276,14 9.5,13.7765 9.5,13.5 L9.5,11 C9.5,10.7235 9.276,10.5 9,10.5 Z M6,17 L3,17 L3,14 L6,14 L6,17 Z M8.5,13 L7,13 L7,11.5 L8.5,11.5 L8.5,13 Z M2,11 C2,10.7235 2.224,10.5 2.5,10.5 L4.5,10.5 C4.776,10.5 5,10.7235 5,11 C5,11.2765 4.776,11.5 4.5,11.5 L2.5,11.5 C2.224,11.5 2,11.2765 2,11 Z M5,16 L4,16 L4,15 L5,15 L5,16 Z M9.5,15 L9.5,17.5 C9.5,17.7765 9.276,18 9,18 L8,18 C7.724,18 7.5,17.7765 7.5,17.5 C7.5,17.2235 7.724,17 8,17 L8.5,17 L8.5,15 C8.5,14.7235 8.724,14.5 9,14.5 C9.276,14.5 9.5,14.7235 9.5,15 Z" id="Shape" fill="#000000" fill-rule="nonzero"></path>
                            </g>
                            <g id="qr-code-2" transform="translate(166.000000, 2.000000)">
                                <rect id="Rectangle-Copy-12" stroke="#FFFFFF" fill-opacity="0.9" fill="#FFFFFF" x="0" y="0" width="20" height="20" rx="1"></rect>
                                <path d="M9,2 L2.5,2 C2.224,2 2,2.2235 2,2.5 L2,9 C2,9.2765 2.224,9.5 2.5,9.5 L9,9.5 C9.276,9.5 9.5,9.2765 9.5,9 L9.5,2.5 C9.5,2.2235 9.276,2 9,2 Z M8.5,8.5 L3,8.5 L3,3 L8.5,3 L8.5,8.5 Z M4.5,7.5 L7,7.5 C7.276,7.5 7.5,7.2765 7.5,7 L7.5,4.5 C7.5,4.2235 7.276,4 7,4 L4.5,4 C4.224,4 4,4.2235 4,4.5 L4,7 C4,7.2765 4.224,7.5 4.5,7.5 Z M5,5 L6.5,5 L6.5,6.5 L5,6.5 L5,5 Z M17.5,2 L11,2 C10.724,2 10.5,2.2235 10.5,2.5 L10.5,9 C10.5,9.2765 10.724,9.5 11,9.5 L17.5,9.5 C17.776,9.5 18,9.2765 18,9 L18,2.5 C18,2.2235 17.776,2 17.5,2 Z M17,8.5 L11.5,8.5 L11.5,3 L17,3 L17,8.5 Z M13,7.5 L15.5,7.5 C15.776,7.5 16,7.2765 16,7 L16,4.5 C16,4.2235 15.776,4 15.5,4 L13,4 C12.724,4 12.5,4.2235 12.5,4.5 L12.5,7 C12.5,7.2765 12.724,7.5 13,7.5 Z M13.5,5 L15,5 L15,6.5 L13.5,6.5 L13.5,5 Z M17.5,10.5 L11,10.5 C10.724,10.5 10.5,10.7235 10.5,11 L10.5,17.5 C10.5,17.7765 10.724,18 11,18 L17.5,18 C17.776,18 18,17.7765 18,17.5 L18,11 C18,10.7235 17.776,10.5 17.5,10.5 Z M17,17 L11.5,17 L11.5,11.5 L17,11.5 L17,17 Z M13,16 L15.5,16 C15.776,16 16,15.7765 16,15.5 L16,13 C16,12.7235 15.776,12.5 15.5,12.5 L13,12.5 C12.724,12.5 12.5,12.7235 12.5,13 L12.5,15.5 C12.5,15.7765 12.724,16 13,16 Z M13.5,13.5 L15,13.5 L15,15 L13.5,15 L13.5,13.5 Z M9,10.5 L6.5,10.5 C6.224,10.5 6,10.7235 6,11 L6,13 L2.5,13 C2.224,13 2,13.2235 2,13.5 L2,17.5 C2,17.7765 2.224,18 2.5,18 L6.5,18 C6.776,18 7,17.7765 7,17.5 L7,14 L9,14 C9.276,14 9.5,13.7765 9.5,13.5 L9.5,11 C9.5,10.7235 9.276,10.5 9,10.5 Z M6,17 L3,17 L3,14 L6,14 L6,17 Z M8.5,13 L7,13 L7,11.5 L8.5,11.5 L8.5,13 Z M2,11 C2,10.7235 2.224,10.5 2.5,10.5 L4.5,10.5 C4.776,10.5 5,10.7235 5,11 C5,11.2765 4.776,11.5 4.5,11.5 L2.5,11.5 C2.224,11.5 2,11.2765 2,11 Z M5,16 L4,16 L4,15 L5,15 L5,16 Z M9.5,15 L9.5,17.5 C9.5,17.7765 9.276,18 9,18 L8,18 C7.724,18 7.5,17.7765 7.5,17.5 C7.5,17.2235 7.724,17 8,17 L8.5,17 L8.5,15 C8.5,14.7235 8.724,14.5 9,14.5 C9.276,14.5 9.5,14.7235 9.5,15 Z" id="Shape" fill="#000000" fill-rule="nonzero"></path>
                            </g>
                        </g>
                    </g>
                </g>
            </g>
        </g>
    </g>
</svg>